<svg xmlns="http://www.w3.org/2000/svg" viewBox="0 0 1237.069 737.302"><defs><style>.cls-1,.cls-6{fill:none;stroke:#000;stroke-miterlimit:10;}.cls-1{stroke-width:3px;}.cls-2{fill:#4fb81c;}.cls-3{fill:#942582;}.cls-4{fill:#e35500;}.cls-5{fill:#148fcf;}.cls-6{stroke-width:2px;}.cls-7,.cls-8,.cls-9{fill:#efab1f;}.cls-7{opacity:0.4;}.cls-8{opacity:0.7;}.cls-10{fill:#f0ab00;}</style></defs><g id="Ebene_2" data-name="Ebene 2"><g id="Layer_1" data-name="Layer 1"><path class="cls-1" d="M632.152,172.816c98.34,6.236,176.994,84.89,183.23,183.23H986.647C980.14,163.2,825,8.058,632.152,1.551Z" transform="translate(-1.25)"/><path class="cls-1" d="M423.712,356.046c6.236-98.34,84.89-176.994,183.23-183.23V1.551C414.093,8.058,258.954,163.2,252.447,356.046Z" transform="translate(-1.25)"/><path class="cls-1" d="M606.942,564.486a196.256,196.256,0,0,1-183.23-183.23H252.447c6.507,192.849,161.646,347.989,354.5,354.5Z" transform="translate(-1.25)"/><path class="cls-1" d="M815.382,381.256a196.256,196.256,0,0,1-183.23,183.23V735.751C825,729.244,980.14,574.105,986.647,381.256Z" transform="translate(-1.25)"/><path class="cls-2" d="M1027.618,481.735l3.172-1.674a6.867,6.867,0,0,0,6.53,4.13,7.324,7.324,0,0,0,3.494-.72,2.469,2.469,0,0,0,1.327-2.347,2.969,2.969,0,0,0-.289-1.345,3.089,3.089,0,0,0-.928-1.063,7.374,7.374,0,0,0-1.661-.9q-1.023-.414-2.489-.868-1.731-.5-3.234-1.033a11.028,11.028,0,0,1-2.63-1.313,5.7,5.7,0,0,1-1.761-1.924,5.774,5.774,0,0,1-.633-2.831,6.3,6.3,0,0,1,.586-2.735A6.131,6.131,0,0,1,1030.76,465a7.66,7.66,0,0,1,2.565-1.359,10.816,10.816,0,0,1,3.293-.477,11.378,11.378,0,0,1,3.138.4,9.28,9.28,0,0,1,2.481,1.1,8.759,8.759,0,0,1,1.889,1.618,10.115,10.115,0,0,1,1.343,1.96l-2.907,2.016a6.551,6.551,0,0,0-5.975-3.453,5.692,5.692,0,0,0-3.058.687,2.23,2.23,0,0,0-1.076,2,2.865,2.865,0,0,0,.32,1.416,3.164,3.164,0,0,0,1.006,1.04,7.772,7.772,0,0,0,1.747.852q1.06.384,2.5.79,1.655.485,3.129,1.064a11.19,11.19,0,0,1,2.578,1.392,5.933,5.933,0,0,1,1.724,1.971,5.849,5.849,0,0,1,.625,2.815,6.142,6.142,0,0,1-.609,2.7,6.6,6.6,0,0,1-1.74,2.207,8.2,8.2,0,0,1-2.794,1.473,12.441,12.441,0,0,1-3.787.53,10.359,10.359,0,0,1-5.96-1.66A9.685,9.685,0,0,1,1027.618,481.735Z" transform="translate(-1.25)"/><path class="cls-2" d="M1049.846,482.487V470.3h3.937v11.263q0,2.768,2.537,2.768a4.914,4.914,0,0,0,2.419-.61,11.588,11.588,0,0,0,2.2-1.61V470.3h3.938v16.984h-3.938V485a10.133,10.133,0,0,1-1.017.9,7.947,7.947,0,0,1-1.362.847,8.237,8.237,0,0,1-1.731.614,8.991,8.991,0,0,1-2.122.234,4.853,4.853,0,0,1-3.541-1.289A5.107,5.107,0,0,1,1049.846,482.487Z" transform="translate(-1.25)"/><path class="cls-2" d="M1068.146,484.968l2.156-2.39A8.815,8.815,0,0,0,1072.63,484a7.506,7.506,0,0,0,3.016.595,5.672,5.672,0,0,0,2.492-.45,1.571,1.571,0,0,0,.9-1.524,1.3,1.3,0,0,0-.307-.876,2.635,2.635,0,0,0-.824-.615,6.041,6.041,0,0,0-1.2-.437q-.679-.178-1.448-.377l-2.226-.581a7.586,7.586,0,0,1-2.068-.865,4.694,4.694,0,0,1-1.524-1.493,4.356,4.356,0,0,1-.593-2.389,4.436,4.436,0,0,1,.468-2.046,4.784,4.784,0,0,1,1.3-1.577,6.152,6.152,0,0,1,1.985-1.026,8.394,8.394,0,0,1,2.562-.369,10.774,10.774,0,0,1,4.055.66,11.044,11.044,0,0,1,2.927,1.758l-1.883,2.553a8.881,8.881,0,0,0-1.079-.711,10.333,10.333,0,0,0-1.236-.6,8.065,8.065,0,0,0-1.283-.4,5.741,5.741,0,0,0-1.22-.14,3.878,3.878,0,0,0-2.25.476,1.445,1.445,0,0,0-.625,1.19,1.24,1.24,0,0,0,.3.841,2.612,2.612,0,0,0,.771.591,5.2,5.2,0,0,0,1.151.417l1.475.368,2.263.563a7.186,7.186,0,0,1,2.1.868,4.825,4.825,0,0,1,1.528,1.534,4.549,4.549,0,0,1,.609,2.477,4.477,4.477,0,0,1-2.091,3.947,7.354,7.354,0,0,1-2.278.956,11.491,11.491,0,0,1-2.74.319,12.235,12.235,0,0,1-4.36-.75A8.591,8.591,0,0,1,1068.146,484.968Z" transform="translate(-1.25)"/><path class="cls-2" d="M1084.663,473.425V470.3h2.938v-5.922h3.937V470.3h4.391v3.125h-4.391v8.4a2.975,2.975,0,0,0,.516,1.963,2.579,2.579,0,0,0,1.984.592,6.366,6.366,0,0,0,.93-.07,5.249,5.249,0,0,0,.773-.163v3.139c-.115.021-.284.047-.508.078s-.468.057-.734.079-.542.036-.828.046-.561.016-.82.016a9.473,9.473,0,0,1-2.649-.305,3.747,3.747,0,0,1-1.6-.875,2.937,2.937,0,0,1-.789-1.453,8.8,8.8,0,0,1-.211-2.039v-9.406Z" transform="translate(-1.25)"/><path class="cls-2" d="M1098.165,483.179a5.424,5.424,0,0,1,2.563-4.737,13.051,13.051,0,0,1,3.437-1.558,30.125,30.125,0,0,1,5.063-1.022v-.447a1.963,1.963,0,0,0-.674-1.661,3.477,3.477,0,0,0-2.114-.517,7.735,7.735,0,0,0-3.221.643,14.881,14.881,0,0,0-2.5,1.41l-1.915-2.211a12.658,12.658,0,0,1,3.452-2.184,11.536,11.536,0,0,1,4.733-.923,9.347,9.347,0,0,1,2.862.381,4.216,4.216,0,0,1,2.932,2.983,8.939,8.939,0,0,1,.321,2.5v7.281a23.928,23.928,0,0,0,.109,2.531,6,6,0,0,0,.375,1.637h-3.969q-.156-.551-.273-1a4.84,4.84,0,0,1-.117-1.185,7.476,7.476,0,0,1-2.834,1.891,10.206,10.206,0,0,1-3.446.542,6.114,6.114,0,0,1-1.9-.282,4.316,4.316,0,0,1-1.512-.83,3.833,3.833,0,0,1-1.005-1.371A4.561,4.561,0,0,1,1098.165,483.179Zm3.844-.733a1.846,1.846,0,0,0,.641,1.528,2.712,2.712,0,0,0,1.739.513,6.636,6.636,0,0,0,2.724-.529,7.331,7.331,0,0,0,2.115-1.418V478.8a18.818,18.818,0,0,0-5.387,1.363Q1102.008,481.044,1102.009,482.446Z" transform="translate(-1.25)"/><path class="cls-2" d="M1117.559,467.347v-3.36h4v3.36Zm.031,19.937V470.3h3.937v16.984Z" transform="translate(-1.25)"/><path class="cls-2" d="M1126.248,487.284V470.3h3.938v2.719a13.415,13.415,0,0,1,1.093-1.094,7.819,7.819,0,0,1,1.375-.977,8.42,8.42,0,0,1,1.664-.7,6.7,6.7,0,0,1,1.946-.273,5.283,5.283,0,0,1,3.687,1.219,4.8,4.8,0,0,1,1.344,3.734v12.359h-3.938V476.05a3.145,3.145,0,0,0-.609-2.109,2.455,2.455,0,0,0-1.953-.7,5.015,5.015,0,0,0-2.414.594,10.766,10.766,0,0,0-2.2,1.61v11.843Z" transform="translate(-1.25)"/><path class="cls-2" d="M1144.531,483.179a5.43,5.43,0,0,1,2.563-4.737,13.051,13.051,0,0,1,3.437-1.558,30.125,30.125,0,0,1,5.063-1.022v-.447a1.963,1.963,0,0,0-.674-1.661,3.471,3.471,0,0,0-2.113-.517,7.736,7.736,0,0,0-3.222.643,14.881,14.881,0,0,0-2.5,1.41l-1.915-2.211a12.658,12.658,0,0,1,3.452-2.184,11.536,11.536,0,0,1,4.733-.923,9.343,9.343,0,0,1,2.862.381,4.216,4.216,0,0,1,2.932,2.983,8.939,8.939,0,0,1,.321,2.5v7.281a23.928,23.928,0,0,0,.109,2.531,6,6,0,0,0,.375,1.637h-3.969q-.156-.551-.273-1a4.84,4.84,0,0,1-.117-1.185,7.476,7.476,0,0,1-2.834,1.891,10.2,10.2,0,0,1-3.446.542,6.114,6.114,0,0,1-1.9-.282,4.316,4.316,0,0,1-1.512-.83,3.857,3.857,0,0,1-1.005-1.371A4.561,4.561,0,0,1,1144.531,483.179Zm3.844-.733a1.843,1.843,0,0,0,.642,1.528,2.707,2.707,0,0,0,1.738.513,6.633,6.633,0,0,0,2.724-.529,7.317,7.317,0,0,0,2.115-1.418V478.8a18.827,18.827,0,0,0-5.387,1.363Q1148.374,481.044,1148.375,482.446Z" transform="translate(-1.25)"/><path class="cls-2" d="M1163.783,487.284V463.6h3.938v8.937a7.564,7.564,0,0,1,2.156-1.8,6.427,6.427,0,0,1,3.25-.765,6.542,6.542,0,0,1,2.678.547,5.73,5.73,0,0,1,2.137,1.648,8.058,8.058,0,0,1,1.411,2.75,13.148,13.148,0,0,1,.508,3.852,12.705,12.705,0,0,1-.524,3.859,7.7,7.7,0,0,1-1.472,2.734,5.871,5.871,0,0,1-2.3,1.633,7.915,7.915,0,0,1-2.974.539,6.748,6.748,0,0,1-2.664-.539,6.057,6.057,0,0,1-2.211-1.6v1.89Zm3.938-4.984a5.556,5.556,0,0,0,1.875,1.562,4.649,4.649,0,0,0,2.125.547,3.68,3.68,0,0,0,3.226-1.375,7.365,7.365,0,0,0,.977-4.234,6.559,6.559,0,0,0-1.078-4.094,3.6,3.6,0,0,0-3-1.375,4.481,4.481,0,0,0-2.313.656,7.056,7.056,0,0,0-1.812,1.485Z" transform="translate(-1.25)"/><path class="cls-2" d="M1183.567,467.347v-3.36h4v3.36Zm.032,19.937V470.3h3.937v16.984Z" transform="translate(-1.25)"/><path class="cls-2" d="M1192.4,487.284V463.6h3.938v23.687Z" transform="translate(-1.25)"/><path class="cls-2" d="M1201.165,467.347v-3.36h4v3.36Zm.031,19.937V470.3h3.938v16.984Z" transform="translate(-1.25)"/><path class="cls-2" d="M1208.23,473.425V470.3h2.938v-5.922h3.937V470.3h4.391v3.125h-4.391v8.4a2.975,2.975,0,0,0,.516,1.963,2.581,2.581,0,0,0,1.984.592,6.356,6.356,0,0,0,.93-.07,5.266,5.266,0,0,0,.774-.163v3.139c-.116.021-.285.047-.508.078s-.469.057-.735.079-.542.036-.828.046-.56.016-.82.016a9.461,9.461,0,0,1-2.648-.305,3.751,3.751,0,0,1-1.6-.875,2.945,2.945,0,0,1-.789-1.453,8.8,8.8,0,0,1-.211-2.039v-9.406Z" transform="translate(-1.25)"/><path class="cls-2" d="M1220.576,493.358l.891-3.2a9.191,9.191,0,0,0,1.109.235,11.035,11.035,0,0,0,1.781.125,2.763,2.763,0,0,0,1.657-.445,3.336,3.336,0,0,0,1.031-1.474l.469-1.248L1221,470.3h4.094l4.375,12.355h.062l4.36-12.355h3.906l-7.234,18.844a14.108,14.108,0,0,1-.93,1.992,5.746,5.746,0,0,1-1.211,1.492,4.927,4.927,0,0,1-1.633.93,6.717,6.717,0,0,1-2.18.32,13.261,13.261,0,0,1-2.461-.182Q1221.216,493.515,1220.576,493.358Z" transform="translate(-1.25)"/><path class="cls-3" d="M2.688,487.285V463.6h8.273a16.266,16.266,0,0,1,3.583.375,8.335,8.335,0,0,1,2.895,1.217,5.848,5.848,0,0,1,1.936,2.233,8.8,8.8,0,0,1-.063,7.038,6.371,6.371,0,0,1-2.034,2.3,8.233,8.233,0,0,1-2.949,1.227,16.664,16.664,0,0,1-3.512.362H6.625v8.938ZM6.625,474.8h4.4a6.8,6.8,0,0,0,3.889-.876A3.349,3.349,0,0,0,16.141,471a3.3,3.3,0,0,0-1.229-2.873,6.809,6.809,0,0,0-3.921-.885H6.625Z" transform="translate(-1.25)"/><path class="cls-3" d="M22.565,478.8a9.847,9.847,0,0,1,.766-4.1,8.156,8.156,0,0,1,1.953-2.742,7.217,7.217,0,0,1,2.625-1.524,9.04,9.04,0,0,1,2.75-.461,8.548,8.548,0,0,1,2.781.461,5.992,5.992,0,0,1,2.383,1.539,7.789,7.789,0,0,1,1.664,2.836,13.125,13.125,0,0,1,.625,4.352v.922H26.5a4.5,4.5,0,0,0,1.391,3.379,4.751,4.751,0,0,0,3.156,1.058,6.118,6.118,0,0,0,2.727-.533,8.375,8.375,0,0,0,2.039-1.458l2.078,2.054a9.174,9.174,0,0,1-7.141,3.062,9.52,9.52,0,0,1-3.07-.5,7.036,7.036,0,0,1-2.609-1.57,7.74,7.74,0,0,1-1.821-2.75A10.61,10.61,0,0,1,22.565,478.8Zm4-1.656H34.5q-.359-3.9-3.875-3.906a4.719,4.719,0,0,0-1.39.2,3.4,3.4,0,0,0-1.219.677,3.941,3.941,0,0,0-.945,1.215A5.218,5.218,0,0,0,26.565,477.144Z" transform="translate(-1.25)"/><path class="cls-3" d="M41.661,487.285V470.3H45.6v2.782h.063a6.659,6.659,0,0,1,6.109-3.11h.266l-.125,3.61a4.469,4.469,0,0,0-.539-.047c-.246-.01-.42-.016-.524-.016a5.671,5.671,0,0,0-3.172.821,6.727,6.727,0,0,0-2.078,2.2v10.75Z" transform="translate(-1.25)"/><path class="cls-3" d="M53.663,484.968l2.156-2.389A8.858,8.858,0,0,0,58.147,484a7.526,7.526,0,0,0,3.016.594,5.652,5.652,0,0,0,2.492-.45,1.569,1.569,0,0,0,.9-1.523,1.3,1.3,0,0,0-.307-.876,2.6,2.6,0,0,0-.824-.615,6.087,6.087,0,0,0-1.2-.438l-1.449-.377q-1.086-.283-2.225-.58a7.606,7.606,0,0,1-2.069-.865,4.682,4.682,0,0,1-1.523-1.493,4.358,4.358,0,0,1-.594-2.389,4.428,4.428,0,0,1,.469-2.047,4.769,4.769,0,0,1,1.3-1.576,6.158,6.158,0,0,1,1.984-1.027,8.4,8.4,0,0,1,2.563-.369,10.747,10.747,0,0,1,4.054.661,11.051,11.051,0,0,1,2.927,1.757l-1.883,2.553a8.921,8.921,0,0,0-1.079-.711,10.4,10.4,0,0,0-1.235-.6,8.23,8.23,0,0,0-1.283-.4,5.688,5.688,0,0,0-1.22-.141,3.876,3.876,0,0,0-2.25.477,1.443,1.443,0,0,0-.625,1.189,1.239,1.239,0,0,0,.3.841,2.591,2.591,0,0,0,.77.591,5.223,5.223,0,0,0,1.152.418l1.474.367,2.265.564a7.175,7.175,0,0,1,2.095.868,4.821,4.821,0,0,1,1.528,1.533,4.564,4.564,0,0,1,.608,2.478,4.473,4.473,0,0,1-2.09,3.947,7.36,7.36,0,0,1-2.279.956,11.486,11.486,0,0,1-2.74.318,12.234,12.234,0,0,1-4.359-.75A8.583,8.583,0,0,1,53.663,484.968Z" transform="translate(-1.25)"/><path class="cls-3" d="M70.821,478.816a10.422,10.422,0,0,1,.7-4.015,7.722,7.722,0,0,1,1.862-2.754,7.293,7.293,0,0,1,2.649-1.574,9.483,9.483,0,0,1,3.046-.5,9.372,9.372,0,0,1,3.023.5,7.365,7.365,0,0,1,2.648,1.574,7.834,7.834,0,0,1,1.886,2.754,10.227,10.227,0,0,1,.717,4.015,10.083,10.083,0,0,1-.717,4,7.852,7.852,0,0,1-1.886,2.73A7.578,7.578,0,0,1,82.1,487.13a9.1,9.1,0,0,1-6.03,0,7.591,7.591,0,0,1-2.649-1.583,7.85,7.85,0,0,1-1.885-2.73A10.065,10.065,0,0,1,70.821,478.816Zm3.938,0a9.025,9.025,0,0,0,.258,2.233A5.21,5.21,0,0,0,75.8,482.8a3.712,3.712,0,0,0,1.346,1.159,4.17,4.17,0,0,0,1.933.423,3.788,3.788,0,0,0,3.248-1.465,6.761,6.761,0,0,0,1.088-4.1,8.9,8.9,0,0,0-.258-2.193,4.94,4.94,0,0,0-.791-1.74,3.792,3.792,0,0,0-1.346-1.136,4.221,4.221,0,0,0-1.941-.415,3.793,3.793,0,0,0-3.232,1.441A6.586,6.586,0,0,0,74.759,478.816Z" transform="translate(-1.25)"/><path class="cls-3" d="M90.98,487.285V470.3h3.937v2.719a13.93,13.93,0,0,1,1.094-1.094,7.69,7.69,0,0,1,1.375-.976,8.361,8.361,0,0,1,1.664-.7,6.661,6.661,0,0,1,1.946-.274,5.288,5.288,0,0,1,3.687,1.219,4.8,4.8,0,0,1,1.344,3.734v12.36h-3.938V476.05a3.149,3.149,0,0,0-.609-2.109,2.455,2.455,0,0,0-1.953-.7,5,5,0,0,0-2.414.594,10.753,10.753,0,0,0-2.2,1.609v11.844Z" transform="translate(-1.25)"/><path class="cls-3" d="M109.264,483.179a5.426,5.426,0,0,1,2.562-4.737,13.106,13.106,0,0,1,3.438-1.558,30.119,30.119,0,0,1,5.062-1.021v-.447a1.96,1.96,0,0,0-.673-1.661,3.477,3.477,0,0,0-2.114-.517,7.743,7.743,0,0,0-3.222.643,14.743,14.743,0,0,0-2.5,1.41L109.9,473.08a12.666,12.666,0,0,1,3.453-2.185,11.549,11.549,0,0,1,4.733-.923,9.336,9.336,0,0,1,2.861.381,4.214,4.214,0,0,1,2.933,2.984,8.931,8.931,0,0,1,.32,2.5v7.281a23.618,23.618,0,0,0,.11,2.53,6.021,6.021,0,0,0,.375,1.638h-3.969q-.158-.55-.274-1a4.849,4.849,0,0,1-.117-1.186,7.46,7.46,0,0,1-2.834,1.892,10.221,10.221,0,0,1-3.445.542,6.151,6.151,0,0,1-1.9-.282,4.328,4.328,0,0,1-1.511-.83,3.846,3.846,0,0,1-1.005-1.372A4.555,4.555,0,0,1,109.264,483.179Zm3.843-.732a1.84,1.84,0,0,0,.642,1.527,2.709,2.709,0,0,0,1.738.514,6.654,6.654,0,0,0,2.725-.529,7.333,7.333,0,0,0,2.114-1.418V478.8a18.865,18.865,0,0,0-5.387,1.364Q113.108,481.045,113.107,482.447Z" transform="translate(-1.25)"/><path class="cls-3" d="M128.688,487.285V463.6h3.937v23.688Z" transform="translate(-1.25)"/><path class="cls-3" d="M137.456,467.347v-3.359h4v3.359Zm.031,19.938V470.3h3.937v16.985Z" transform="translate(-1.25)"/><path class="cls-3" d="M145,487.285v-2.266l9.047-11.594h-8.375V470.3h13.313v2.36L149.9,484.238h9.625v3.047Z" transform="translate(-1.25)"/><path class="cls-3" d="M161.772,483.179a5.43,5.43,0,0,1,2.563-4.737,13.083,13.083,0,0,1,3.437-1.558,30.133,30.133,0,0,1,5.063-1.021v-.447a1.963,1.963,0,0,0-.673-1.661,3.477,3.477,0,0,0-2.114-.517,7.74,7.74,0,0,0-3.222.643,14.743,14.743,0,0,0-2.5,1.41l-1.915-2.211a12.675,12.675,0,0,1,3.452-2.185,11.557,11.557,0,0,1,4.734-.923,9.336,9.336,0,0,1,2.861.381,4.214,4.214,0,0,1,2.933,2.984,8.931,8.931,0,0,1,.32,2.5v7.281a23.921,23.921,0,0,0,.109,2.53,6.1,6.1,0,0,0,.375,1.638h-3.968q-.157-.55-.274-1a4.849,4.849,0,0,1-.117-1.186A7.455,7.455,0,0,1,170,486.993a10.211,10.211,0,0,1-3.444.542,6.146,6.146,0,0,1-1.9-.282,4.319,4.319,0,0,1-1.511-.83,3.846,3.846,0,0,1-1-1.372A4.555,4.555,0,0,1,161.772,483.179Zm3.844-.732a1.84,1.84,0,0,0,.642,1.527,2.709,2.709,0,0,0,1.738.514,6.654,6.654,0,0,0,2.725-.529,7.333,7.333,0,0,0,2.114-1.418V478.8a18.856,18.856,0,0,0-5.387,1.364Q165.617,481.045,165.616,482.447Z" transform="translate(-1.25)"/><path class="cls-3" d="M179.431,473.425V470.3h2.938v-5.921h3.937V470.3H190.7v3.125h-4.391v8.4a2.977,2.977,0,0,0,.516,1.963,2.585,2.585,0,0,0,1.984.592,6.36,6.36,0,0,0,.93-.071,5.122,5.122,0,0,0,.773-.163v3.14c-.114.02-.284.047-.508.078s-.468.057-.734.078-.542.036-.828.047-.56.016-.82.016a9.511,9.511,0,0,1-2.649-.305,3.753,3.753,0,0,1-1.6-.875,2.941,2.941,0,0,1-.789-1.453,8.8,8.8,0,0,1-.211-2.039v-9.407Z" transform="translate(-1.25)"/><path class="cls-3" d="M194.152,467.347v-3.359h4v3.359Zm.031,19.938V470.3h3.938v16.985Z" transform="translate(-1.25)"/><path class="cls-3" d="M201.857,478.816a10.4,10.4,0,0,1,.7-4.015,7.708,7.708,0,0,1,1.861-2.754,7.293,7.293,0,0,1,2.649-1.574,9.483,9.483,0,0,1,3.046-.5,9.368,9.368,0,0,1,3.023.5,7.377,7.377,0,0,1,2.649,1.574,7.846,7.846,0,0,1,1.885,2.754,10.227,10.227,0,0,1,.717,4.015,10.083,10.083,0,0,1-.717,4,7.863,7.863,0,0,1-1.885,2.73,7.591,7.591,0,0,1-2.649,1.583,9.1,9.1,0,0,1-6.03,0,7.591,7.591,0,0,1-2.649-1.583,7.85,7.85,0,0,1-1.885-2.73A10.065,10.065,0,0,1,201.857,478.816Zm3.938,0a9.025,9.025,0,0,0,.258,2.233,5.229,5.229,0,0,0,.783,1.748,3.72,3.72,0,0,0,1.346,1.159,4.17,4.17,0,0,0,1.933.423,3.788,3.788,0,0,0,3.248-1.465,6.761,6.761,0,0,0,1.088-4.1,8.9,8.9,0,0,0-.258-2.193,4.922,4.922,0,0,0-.791-1.74,3.783,3.783,0,0,0-1.346-1.136,4.221,4.221,0,0,0-1.941-.415,3.794,3.794,0,0,0-3.232,1.441A6.586,6.586,0,0,0,205.8,478.816Z" transform="translate(-1.25)"/><path class="cls-3" d="M222.016,487.285V470.3h3.938v2.719a13.741,13.741,0,0,1,1.093-1.094,7.763,7.763,0,0,1,1.375-.976,8.386,8.386,0,0,1,1.664-.7,6.661,6.661,0,0,1,1.946-.274,5.288,5.288,0,0,1,3.687,1.219,4.8,4.8,0,0,1,1.344,3.734v12.36h-3.938V476.05a3.149,3.149,0,0,0-.609-2.109,2.455,2.455,0,0,0-1.953-.7,5,5,0,0,0-2.414.594,10.776,10.776,0,0,0-2.195,1.609v11.844Z" transform="translate(-1.25)"/><path class="cls-4" d="M1041.7,208.646a16.146,16.146,0,0,1,.789-5.264,10.94,10.94,0,0,1,2.18-3.833,9.129,9.129,0,0,1,3.3-2.339,10.589,10.589,0,0,1,4.14-.8,10.944,10.944,0,0,1,3.6.54,7.8,7.8,0,0,1,2.656,1.518,8.323,8.323,0,0,1,1.821,2.327,12.476,12.476,0,0,1,1.109,2.99l-3.813,1.078a14.429,14.429,0,0,0-.789-2.055,4.939,4.939,0,0,0-1.07-1.476,4.3,4.3,0,0,0-1.5-.9,6.148,6.148,0,0,0-2.047-.3,5.52,5.52,0,0,0-4.68,2.21,10.273,10.273,0,0,0-1.664,6.274q0,4.251,1.7,6.492a5.571,5.571,0,0,0,4.711,2.242,5.338,5.338,0,0,0,3.656-1.195,7.453,7.453,0,0,0,2.031-3.883l3.813.86a13.97,13.97,0,0,1-1.211,3.212,8.7,8.7,0,0,1-1.938,2.471,8.546,8.546,0,0,1-2.75,1.6,10.58,10.58,0,0,1-3.633.577,10.916,10.916,0,0,1-4.195-.788,8.867,8.867,0,0,1-3.289-2.333,10.93,10.93,0,0,1-2.148-3.847A16.88,16.88,0,0,1,1041.7,208.646Z" transform="translate(-1.25)"/><path class="cls-4" d="M1064.455,212.068a10.4,10.4,0,0,1,.7-4.015,7.71,7.71,0,0,1,1.862-2.754,7.293,7.293,0,0,1,2.649-1.574,9.479,9.479,0,0,1,3.046-.5,9.362,9.362,0,0,1,3.022.5,7.381,7.381,0,0,1,2.65,1.574,7.846,7.846,0,0,1,1.885,2.754,10.224,10.224,0,0,1,.716,4.015,10.084,10.084,0,0,1-.716,4,7.873,7.873,0,0,1-1.885,2.73,7.6,7.6,0,0,1-2.65,1.583,9.1,9.1,0,0,1-6.029,0,7.591,7.591,0,0,1-2.649-1.583,7.833,7.833,0,0,1-1.885-2.73A10.048,10.048,0,0,1,1064.455,212.068Zm3.938,0a9.061,9.061,0,0,0,.257,2.232,5.227,5.227,0,0,0,.784,1.749,3.727,3.727,0,0,0,1.345,1.159,4.178,4.178,0,0,0,1.934.423,3.791,3.791,0,0,0,3.248-1.465,6.761,6.761,0,0,0,1.088-4.1,8.9,8.9,0,0,0-.258-2.193,4.971,4.971,0,0,0-.791-1.741,3.8,3.8,0,0,0-1.346-1.135,4.224,4.224,0,0,0-1.941-.415,3.8,3.8,0,0,0-3.233,1.441A6.593,6.593,0,0,0,1068.393,212.068Z" transform="translate(-1.25)"/><path class="cls-4" d="M1084.614,220.537V203.552h3.938v2.719a13.594,13.594,0,0,1,1.094-1.094,7.69,7.69,0,0,1,1.375-.976,8.311,8.311,0,0,1,1.664-.7,6.654,6.654,0,0,1,1.945-.274,5.288,5.288,0,0,1,3.687,1.219,4.8,4.8,0,0,1,1.344,3.734v12.36h-3.937V209.3a3.143,3.143,0,0,0-.61-2.109,2.453,2.453,0,0,0-1.953-.7,5,5,0,0,0-2.414.594,10.748,10.748,0,0,0-2.2,1.609v11.844Z" transform="translate(-1.25)"/><path class="cls-4" d="M1102.054,203.552h4.14l4.157,12.532h.062l4.125-12.532h3.813l-6.141,17.016h-4Z" transform="translate(-1.25)"/><path class="cls-4" d="M1119.978,212.052a9.848,9.848,0,0,1,.765-4.1,8.156,8.156,0,0,1,1.953-2.742,7.217,7.217,0,0,1,2.625-1.524,9.04,9.04,0,0,1,2.75-.461,8.558,8.558,0,0,1,2.782.461,5.989,5.989,0,0,1,2.382,1.539,7.775,7.775,0,0,1,1.664,2.836,13.125,13.125,0,0,1,.625,4.352v.922h-11.609a4.5,4.5,0,0,0,1.391,3.379,4.748,4.748,0,0,0,3.156,1.058,6.113,6.113,0,0,0,2.726-.533,8.4,8.4,0,0,0,2.04-1.458l2.078,2.054a9.174,9.174,0,0,1-7.141,3.062,9.515,9.515,0,0,1-3.07-.5,7.032,7.032,0,0,1-2.61-1.57,7.739,7.739,0,0,1-1.82-2.75A10.591,10.591,0,0,1,1119.978,212.052Zm4-1.656h7.937q-.36-3.9-3.875-3.906a4.726,4.726,0,0,0-1.391.2,3.409,3.409,0,0,0-1.218.677,3.943,3.943,0,0,0-.946,1.215A5.218,5.218,0,0,0,1123.978,210.4Z" transform="translate(-1.25)"/><path class="cls-4" d="M1139.105,220.537V203.552h3.938v2.719a13.594,13.594,0,0,1,1.094-1.094,7.69,7.69,0,0,1,1.375-.976,8.311,8.311,0,0,1,1.664-.7,6.654,6.654,0,0,1,1.945-.274,5.29,5.29,0,0,1,3.688,1.219,4.8,4.8,0,0,1,1.343,3.734v12.36h-3.937V209.3a3.143,3.143,0,0,0-.61-2.109,2.453,2.453,0,0,0-1.953-.7,5.006,5.006,0,0,0-2.414.594,10.748,10.748,0,0,0-2.2,1.609v11.844Z" transform="translate(-1.25)"/><path class="cls-4" d="M1158.607,200.6V197.24h4V200.6Zm.032,19.938V203.552h3.937v16.985Z" transform="translate(-1.25)"/><path class="cls-4" d="M1166.312,212.052a9.847,9.847,0,0,1,.766-4.1,8.156,8.156,0,0,1,1.953-2.742,7.217,7.217,0,0,1,2.625-1.524,9.04,9.04,0,0,1,2.75-.461,8.558,8.558,0,0,1,2.782.461,5.989,5.989,0,0,1,2.382,1.539,7.775,7.775,0,0,1,1.664,2.836,13.125,13.125,0,0,1,.625,4.352v.922H1170.25a4.5,4.5,0,0,0,1.391,3.379,4.748,4.748,0,0,0,3.156,1.058,6.113,6.113,0,0,0,2.726-.533,8.375,8.375,0,0,0,2.039-1.458l2.079,2.054a9.174,9.174,0,0,1-7.141,3.062,9.515,9.515,0,0,1-3.07-.5,7.032,7.032,0,0,1-2.61-1.57,7.739,7.739,0,0,1-1.82-2.75A10.59,10.59,0,0,1,1166.312,212.052Zm4-1.656h7.938q-.36-3.9-3.875-3.906a4.726,4.726,0,0,0-1.391.2,3.409,3.409,0,0,0-1.218.677,3.943,3.943,0,0,0-.946,1.215A5.239,5.239,0,0,0,1170.312,210.4Z" transform="translate(-1.25)"/><path class="cls-4" d="M1185.439,220.537V203.552h3.938v2.719a13.594,13.594,0,0,1,1.094-1.094,7.69,7.69,0,0,1,1.375-.976,8.311,8.311,0,0,1,1.664-.7,6.654,6.654,0,0,1,1.945-.274,5.29,5.29,0,0,1,3.688,1.219,4.8,4.8,0,0,1,1.343,3.734v12.36h-3.937V209.3a3.143,3.143,0,0,0-.61-2.109,2.453,2.453,0,0,0-1.953-.7,5.006,5.006,0,0,0-2.414.594,10.748,10.748,0,0,0-2.195,1.609v11.844Z" transform="translate(-1.25)"/><path class="cls-4" d="M1203.849,212.021a10.223,10.223,0,0,1,.728-4.087,7.789,7.789,0,0,1,1.906-2.732,7.136,7.136,0,0,1,2.631-1.519,9.493,9.493,0,0,1,2.86-.459,8.518,8.518,0,0,1,2.734.4,6.053,6.053,0,0,1,1.984,1.078,6.777,6.777,0,0,1,1.375,1.576,11.6,11.6,0,0,1,.954,1.871l-3.329,1.188a3.763,3.763,0,0,0-3.781-2.844,4.361,4.361,0,0,0-1.578.289,3.265,3.265,0,0,0-1.312.945,4.875,4.875,0,0,0-.9,1.711,8.58,8.58,0,0,0-.336,2.586,6.991,6.991,0,0,0,1.055,4.164,3.5,3.5,0,0,0,3.008,1.446,4.382,4.382,0,0,0,2.3-.579,4.62,4.62,0,0,0,1.664-2.375l3.266,1.188a11.876,11.876,0,0,1-1.078,1.949,6.963,6.963,0,0,1-1.5,1.588,7.213,7.213,0,0,1-2.047,1.086,8.237,8.237,0,0,1-2.7.408,8.466,8.466,0,0,1-2.9-.517,7.053,7.053,0,0,1-2.537-1.592,7.942,7.942,0,0,1-1.791-2.744A10.643,10.643,0,0,1,1203.849,212.021Z" transform="translate(-1.25)"/><path class="cls-4" d="M1221.382,212.052a9.864,9.864,0,0,1,.765-4.1,8.158,8.158,0,0,1,1.954-2.742,7.217,7.217,0,0,1,2.625-1.524,9.04,9.04,0,0,1,2.75-.461,8.552,8.552,0,0,1,2.781.461,6,6,0,0,1,2.383,1.539,7.789,7.789,0,0,1,1.664,2.836,13.125,13.125,0,0,1,.625,4.352v.922h-11.61a4.5,4.5,0,0,0,1.391,3.379,4.749,4.749,0,0,0,3.156,1.058,6.118,6.118,0,0,0,2.727-.533,8.394,8.394,0,0,0,2.039-1.458l2.078,2.054a9.174,9.174,0,0,1-7.141,3.062,9.515,9.515,0,0,1-3.07-.5,7.036,7.036,0,0,1-2.609-1.57,7.74,7.74,0,0,1-1.821-2.75A10.591,10.591,0,0,1,1221.382,212.052Zm4-1.656h7.937q-.36-3.9-3.875-3.906a4.714,4.714,0,0,0-1.39.2,3.4,3.4,0,0,0-1.219.677,3.941,3.941,0,0,0-.945,1.215A5.218,5.218,0,0,0,1225.382,210.4Z" transform="translate(-1.25)"/><path class="cls-5" d="M1.531,170.275a16.157,16.157,0,0,1,.789-5.265,10.974,10.974,0,0,1,2.18-3.833,9.147,9.147,0,0,1,3.3-2.338,10.594,10.594,0,0,1,4.141-.8,10.942,10.942,0,0,1,3.6.54A7.8,7.8,0,0,1,18.2,160.1a8.333,8.333,0,0,1,1.821,2.326,12.457,12.457,0,0,1,1.109,2.991l-3.813,1.078a14.193,14.193,0,0,0-.789-2.055,4.922,4.922,0,0,0-1.07-1.476,4.282,4.282,0,0,0-1.5-.9,6.142,6.142,0,0,0-2.047-.305,5.519,5.519,0,0,0-4.679,2.211,10.266,10.266,0,0,0-1.665,6.274q0,4.251,1.7,6.492a5.571,5.571,0,0,0,4.711,2.242,5.338,5.338,0,0,0,3.656-1.2,7.453,7.453,0,0,0,2.031-3.883l3.813.859a13.961,13.961,0,0,1-1.211,3.213,8.7,8.7,0,0,1-1.938,2.471,8.546,8.546,0,0,1-2.75,1.6,10.6,10.6,0,0,1-3.632.577,10.925,10.925,0,0,1-4.2-.788A8.875,8.875,0,0,1,4.453,179.5a10.938,10.938,0,0,1-2.148-3.847A16.88,16.88,0,0,1,1.531,170.275Z" transform="translate(-1.25)"/><path class="cls-5" d="M24.284,173.7a10.4,10.4,0,0,1,.7-4.015,7.723,7.723,0,0,1,1.862-2.755,7.3,7.3,0,0,1,2.649-1.573,9.474,9.474,0,0,1,3.046-.5,9.362,9.362,0,0,1,3.022.5,7.389,7.389,0,0,1,2.649,1.573,7.833,7.833,0,0,1,1.885,2.755,10.206,10.206,0,0,1,.717,4.015,10.065,10.065,0,0,1-.717,4,7.832,7.832,0,0,1-1.885,2.729,7.561,7.561,0,0,1-2.649,1.583,9.08,9.08,0,0,1-6.029,0,7.565,7.565,0,0,1-2.65-1.583A7.846,7.846,0,0,1,25,177.7,10.066,10.066,0,0,1,24.284,173.7Zm3.937,0a9.017,9.017,0,0,0,.258,2.232,5.231,5.231,0,0,0,.783,1.748,3.731,3.731,0,0,0,1.346,1.16,4.172,4.172,0,0,0,1.934.422A3.79,3.79,0,0,0,35.79,177.8a6.761,6.761,0,0,0,1.087-4.1,8.856,8.856,0,0,0-.258-2.193,4.952,4.952,0,0,0-.79-1.741,3.794,3.794,0,0,0-1.347-1.135,4.22,4.22,0,0,0-1.94-.415,3.8,3.8,0,0,0-3.233,1.441A6.586,6.586,0,0,0,28.221,173.7Z" transform="translate(-1.25)"/><path class="cls-5" d="M44.411,182.166V165.181h3.937v2.328a9.3,9.3,0,0,1,2.438-1.875,7.84,7.84,0,0,1,5.218-.57,4.61,4.61,0,0,1,1.3.563,3.2,3.2,0,0,1,.9.875,6.108,6.108,0,0,1,.609,1.132,9.989,9.989,0,0,1,2.508-1.945,6.941,6.941,0,0,1,3.445-.836,4.659,4.659,0,0,1,3.773,1.406,5.6,5.6,0,0,1,1.18,3.719v12.188H65.786v-11.2a3.516,3.516,0,0,0-.493-2.094,2.255,2.255,0,0,0-1.9-.656,4.226,4.226,0,0,0-2.227.609,15.339,15.339,0,0,0-2.132,1.594v11.75H55.1v-11.2a3.524,3.524,0,0,0-.492-2.094,2.257,2.257,0,0,0-1.9-.656,4.247,4.247,0,0,0-2.211.609,14.742,14.742,0,0,0-2.149,1.594v11.75Z" transform="translate(-1.25)"/><path class="cls-5" d="M74.069,182.166V165.181h3.938v2.328a9.291,9.291,0,0,1,2.437-1.875,7.843,7.843,0,0,1,5.219-.57,4.635,4.635,0,0,1,1.305.563,3.2,3.2,0,0,1,.9.875,6.112,6.112,0,0,1,.61,1.132,9.966,9.966,0,0,1,2.507-1.945,6.945,6.945,0,0,1,3.446-.836,4.659,4.659,0,0,1,3.773,1.406,5.6,5.6,0,0,1,1.18,3.719v12.188H95.444v-11.2a3.524,3.524,0,0,0-.492-2.094,2.257,2.257,0,0,0-1.9-.656,4.224,4.224,0,0,0-2.227.609,15.285,15.285,0,0,0-2.133,1.594v11.75H84.757v-11.2a3.524,3.524,0,0,0-.492-2.094,2.258,2.258,0,0,0-1.9-.656,4.247,4.247,0,0,0-2.211.609,14.791,14.791,0,0,0-2.148,1.594v11.75Z" transform="translate(-1.25)"/><path class="cls-5" d="M102.774,173.681a9.847,9.847,0,0,1,.766-4.1,8.156,8.156,0,0,1,1.953-2.742,7.233,7.233,0,0,1,2.625-1.524,9.04,9.04,0,0,1,2.75-.461,8.548,8.548,0,0,1,2.781.461,5.975,5.975,0,0,1,2.383,1.539,7.775,7.775,0,0,1,1.664,2.836,13.1,13.1,0,0,1,.625,4.352v.922H106.712a4.5,4.5,0,0,0,1.391,3.378,4.743,4.743,0,0,0,3.156,1.059,6.113,6.113,0,0,0,2.726-.533,8.383,8.383,0,0,0,2.039-1.458l2.079,2.054a9.174,9.174,0,0,1-7.141,3.062,9.511,9.511,0,0,1-3.07-.5,7.032,7.032,0,0,1-2.61-1.57,7.752,7.752,0,0,1-1.82-2.75A10.59,10.59,0,0,1,102.774,173.681Zm4-1.656h7.938q-.36-3.9-3.875-3.906a4.726,4.726,0,0,0-1.391.2,3.394,3.394,0,0,0-1.218.677,3.931,3.931,0,0,0-.946,1.215A5.239,5.239,0,0,0,106.774,172.025Z" transform="translate(-1.25)"/><path class="cls-5" d="M121.871,182.166V165.181h3.937v2.782h.063a6.659,6.659,0,0,1,6.109-3.11h.266l-.125,3.61a4.269,4.269,0,0,0-.539-.047c-.246-.01-.42-.016-.524-.016a5.679,5.679,0,0,0-3.172.82,6.74,6.74,0,0,0-2.078,2.2v10.75Z" transform="translate(-1.25)"/><path class="cls-5" d="M134.2,173.65a10.222,10.222,0,0,1,.729-4.087,7.789,7.789,0,0,1,1.906-2.732,7.129,7.129,0,0,1,2.631-1.519,9.491,9.491,0,0,1,2.859-.459,8.524,8.524,0,0,1,2.735.4,6.053,6.053,0,0,1,1.984,1.078,6.777,6.777,0,0,1,1.375,1.576,11.6,11.6,0,0,1,.953,1.871l-3.328,1.188a3.763,3.763,0,0,0-3.781-2.844,4.361,4.361,0,0,0-1.578.289,3.268,3.268,0,0,0-1.313.945,4.858,4.858,0,0,0-.9,1.711,8.58,8.58,0,0,0-.336,2.586,6.991,6.991,0,0,0,1.054,4.164,3.5,3.5,0,0,0,3.008,1.445,4.385,4.385,0,0,0,2.305-.578,4.632,4.632,0,0,0,1.664-2.375l3.266,1.188a11.807,11.807,0,0,1-1.079,1.949,6.984,6.984,0,0,1-1.5,1.588,7.218,7.218,0,0,1-2.046,1.086,8.243,8.243,0,0,1-2.7.408,8.474,8.474,0,0,1-2.9-.517,7.058,7.058,0,0,1-2.536-1.592,7.942,7.942,0,0,1-1.791-2.744A10.646,10.646,0,0,1,134.2,173.65Z" transform="translate(-1.25)"/><path class="cls-5" d="M151.734,173.681a9.847,9.847,0,0,1,.766-4.1,8.156,8.156,0,0,1,1.953-2.742,7.233,7.233,0,0,1,2.625-1.524,9.04,9.04,0,0,1,2.75-.461,8.548,8.548,0,0,1,2.781.461,5.975,5.975,0,0,1,2.383,1.539,7.775,7.775,0,0,1,1.664,2.836,13.1,13.1,0,0,1,.625,4.352v.922H155.672a4.5,4.5,0,0,0,1.39,3.378,4.747,4.747,0,0,0,3.157,1.059,6.113,6.113,0,0,0,2.726-.533,8.383,8.383,0,0,0,2.039-1.458l2.078,2.054a9.806,9.806,0,0,1-10.21,2.562,7.032,7.032,0,0,1-2.61-1.57,7.752,7.752,0,0,1-1.82-2.75A10.59,10.59,0,0,1,151.734,173.681Zm4-1.656h7.938q-.36-3.9-3.875-3.906a4.726,4.726,0,0,0-1.391.2,3.386,3.386,0,0,0-1.218.677,3.916,3.916,0,0,0-.946,1.215A5.239,5.239,0,0,0,155.734,172.025Z" transform="translate(-1.25)"/><path class="cls-5" d="M1.25,212.082a9.849,9.849,0,0,1,.766-4.1,8.156,8.156,0,0,1,1.953-2.742,7.2,7.2,0,0,1,2.625-1.523,9.009,9.009,0,0,1,2.75-.461,8.521,8.521,0,0,1,2.781.461,5.964,5.964,0,0,1,2.383,1.539,7.781,7.781,0,0,1,1.664,2.836,13.119,13.119,0,0,1,.625,4.351v.922H5.188a4.5,4.5,0,0,0,1.39,3.379A4.751,4.751,0,0,0,9.734,217.8a6.1,6.1,0,0,0,2.727-.533,8.375,8.375,0,0,0,2.039-1.458l2.078,2.054a9.62,9.62,0,0,1-3.086,2.262,9.631,9.631,0,0,1-4.054.8,9.521,9.521,0,0,1-3.071-.5,7.036,7.036,0,0,1-2.609-1.57,7.739,7.739,0,0,1-1.82-2.75A10.588,10.588,0,0,1,1.25,212.082Zm4-1.657h7.938q-.36-3.9-3.876-3.906a4.752,4.752,0,0,0-1.39.2A3.4,3.4,0,0,0,6.7,207.4a3.953,3.953,0,0,0-.945,1.215A5.224,5.224,0,0,0,5.25,210.425Z" transform="translate(-1.25)"/><path class="cls-5" d="M18.424,203.582h4.141l4.156,12.531h.063l4.125-12.531h3.812L28.581,220.6h-4Z" transform="translate(-1.25)"/><path class="cls-5" d="M36.348,212.082a9.849,9.849,0,0,1,.766-4.1,8.156,8.156,0,0,1,1.953-2.742,7.2,7.2,0,0,1,2.625-1.523,9.009,9.009,0,0,1,2.75-.461,8.521,8.521,0,0,1,2.781.461,5.964,5.964,0,0,1,2.383,1.539,7.781,7.781,0,0,1,1.664,2.836,13.093,13.093,0,0,1,.625,4.351v.922H40.286a4.5,4.5,0,0,0,1.39,3.379,4.752,4.752,0,0,0,3.157,1.058,6.1,6.1,0,0,0,2.726-.533,8.375,8.375,0,0,0,2.039-1.458l2.078,2.054a9.165,9.165,0,0,1-7.14,3.062,9.521,9.521,0,0,1-3.071-.5,7.036,7.036,0,0,1-2.609-1.57,7.752,7.752,0,0,1-1.82-2.75A10.588,10.588,0,0,1,36.348,212.082Zm4-1.657h7.938q-.36-3.9-3.875-3.906a4.759,4.759,0,0,0-1.391.2,3.413,3.413,0,0,0-1.219.677,3.953,3.953,0,0,0-.945,1.215A5.246,5.246,0,0,0,40.348,210.425Z" transform="translate(-1.25)"/><path class="cls-5" d="M55.444,220.566V203.582h3.938v2.781h.062a6.661,6.661,0,0,1,6.11-3.109h.265l-.125,3.609a4.429,4.429,0,0,0-.539-.047c-.245-.01-.419-.016-.523-.016a5.671,5.671,0,0,0-3.172.821,6.726,6.726,0,0,0-2.078,2.195v10.75Z" transform="translate(-1.25)"/><path class="cls-5" d="M66.493,226.639l.891-3.2a9.437,9.437,0,0,0,1.109.234,11.035,11.035,0,0,0,1.781.125,2.763,2.763,0,0,0,1.657-.444,3.342,3.342,0,0,0,1.031-1.474l.469-1.249-6.516-17.051h4.094l4.375,12.355h.062l4.36-12.355h3.906l-7.234,18.843a14.07,14.07,0,0,1-.93,1.993,5.746,5.746,0,0,1-1.211,1.492,4.917,4.917,0,0,1-1.633.93,6.744,6.744,0,0,1-2.18.32,13.349,13.349,0,0,1-2.461-.182Q67.133,226.8,66.493,226.639Z" transform="translate(-1.25)"/><path class="cls-5" d="M84.511,203.582h4l1.852,7.031q.2.735.361,1.359t.306,1.25q.149.626.306,1.313t.314,1.484l.063,0q.209-.849.379-1.538t.323-1.31l.308-1.25q.154-.627.338-1.371l1.8-6.972h3.217l1.9,7.081q.175.712.328,1.336t.307,1.253q.155.63.318,1.3t.358,1.458h.062q.184-.828.347-1.5c.107-.447.208-.874.3-1.28s.2-.806.316-1.2.239-.828.362-1.3l1.9-7.149h3.609l-5.094,16.984H99.417L96.35,208.751l-.074,0-3.062,11.812H89.558Z" transform="translate(-1.25)"/><path class="cls-5" d="M110.842,220.566V196.879h3.937v9A10.7,10.7,0,0,1,115.8,205a8.2,8.2,0,0,1,1.362-.844,9.245,9.245,0,0,1,1.731-.641,8.232,8.232,0,0,1,2.122-.257,4.836,4.836,0,0,1,3.541,1.3,5.14,5.14,0,0,1,1.32,3.829v12.187h-3.937v-11.2q0-2.75-2.538-2.75a4.924,4.924,0,0,0-2.419.609,12.047,12.047,0,0,0-2.2,1.594v11.75Z" transform="translate(-1.25)"/><path class="cls-5" d="M129.281,212.082a9.849,9.849,0,0,1,.766-4.1A8.156,8.156,0,0,1,132,205.238a7.216,7.216,0,0,1,2.625-1.523,9.009,9.009,0,0,1,2.75-.461,8.521,8.521,0,0,1,2.781.461,5.964,5.964,0,0,1,2.383,1.539,7.781,7.781,0,0,1,1.664,2.836,13.093,13.093,0,0,1,.625,4.351v.922H133.219a4.5,4.5,0,0,0,1.39,3.379,4.752,4.752,0,0,0,3.157,1.058,6.1,6.1,0,0,0,2.726-.533,8.356,8.356,0,0,0,2.039-1.458l2.078,2.054a9.808,9.808,0,0,1-10.211,2.562,7.036,7.036,0,0,1-2.609-1.57,7.752,7.752,0,0,1-1.82-2.75A10.588,10.588,0,0,1,129.281,212.082Zm4-1.657h7.938q-.36-3.9-3.875-3.906a4.759,4.759,0,0,0-1.391.2,3.413,3.413,0,0,0-1.219.677,3.953,3.953,0,0,0-.945,1.215A5.246,5.246,0,0,0,133.281,210.425Z" transform="translate(-1.25)"/><path class="cls-5" d="M148.377,220.566V203.582h3.938v2.781h.062a6.661,6.661,0,0,1,6.11-3.109h.265l-.125,3.609a4.429,4.429,0,0,0-.539-.047c-.245-.01-.419-.016-.523-.016a5.671,5.671,0,0,0-3.172.821,6.737,6.737,0,0,0-2.078,2.195v10.75Z" transform="translate(-1.25)"/><path class="cls-5" d="M160.708,212.082a9.849,9.849,0,0,1,.765-4.1,8.156,8.156,0,0,1,1.953-2.742,7.216,7.216,0,0,1,2.625-1.523,9.009,9.009,0,0,1,2.75-.461,8.527,8.527,0,0,1,2.782.461,5.967,5.967,0,0,1,2.382,1.539,7.767,7.767,0,0,1,1.664,2.836,13.093,13.093,0,0,1,.625,4.351v.922H164.645a4.5,4.5,0,0,0,1.391,3.379,4.748,4.748,0,0,0,3.156,1.058,6.1,6.1,0,0,0,2.726-.533,8.361,8.361,0,0,0,2.04-1.458l2.078,2.054a9.165,9.165,0,0,1-7.141,3.062,9.515,9.515,0,0,1-3.07-.5,7.032,7.032,0,0,1-2.61-1.57,7.752,7.752,0,0,1-1.82-2.75A10.608,10.608,0,0,1,160.708,212.082Zm4-1.657h7.937q-.36-3.9-3.875-3.906a4.759,4.759,0,0,0-1.391.2,3.409,3.409,0,0,0-1.218.677,3.955,3.955,0,0,0-.946,1.215A5.246,5.246,0,0,0,164.708,210.425Z" transform="translate(-1.25)"/><path d="M495.31,409.755a19.212,19.212,0,0,1,1.044-6.579,14.04,14.04,0,0,1,2.842-4.815,11.758,11.758,0,0,1,4.239-2.934,14.433,14.433,0,0,1,10.527,0,11.763,11.763,0,0,1,4.238,2.934,13.7,13.7,0,0,1,2.813,4.815,19.729,19.729,0,0,1,1.015,6.579,19.941,19.941,0,0,1-1.015,6.624A13.653,13.653,0,0,1,518.2,421.2a11.919,11.919,0,0,1-4.238,2.946,14.259,14.259,0,0,1-10.527,0A11.914,11.914,0,0,1,499.2,421.2a13.993,13.993,0,0,1-2.842-4.823A19.418,19.418,0,0,1,495.31,409.755Zm5.039,0q0,5.259,2.285,8.055a7.451,7.451,0,0,0,6.074,2.8,7.933,7.933,0,0,0,3.389-.714,7.087,7.087,0,0,0,2.617-2.1,10.136,10.136,0,0,0,1.68-3.412,18.257,18.257,0,0,0,0-9.246,9.8,9.8,0,0,0-1.68-3.383,7.1,7.1,0,0,0-2.617-2.061,8.018,8.018,0,0,0-3.389-.7,7.481,7.481,0,0,0-6.074,2.765Q500.348,404.516,500.349,409.755Z" transform="translate(-1.25)"/><path d="M526.8,424.589v-21.23h4.922v2.91a11.55,11.55,0,0,1,3.047-2.344,9.794,9.794,0,0,1,6.523-.713,5.787,5.787,0,0,1,1.631.7,4,4,0,0,1,1.123,1.094,7.623,7.623,0,0,1,.762,1.416,12.452,12.452,0,0,1,3.134-2.432,8.671,8.671,0,0,1,4.307-1.045q3.241,0,4.717,1.758a7,7,0,0,1,1.475,4.649v15.234h-4.922v-14a4.4,4.4,0,0,0-.616-2.617,2.823,2.823,0,0,0-2.373-.82,5.284,5.284,0,0,0-2.783.761,19.2,19.2,0,0,0-2.666,1.993v14.687h-4.922v-14a4.4,4.4,0,0,0-.615-2.617,2.823,2.823,0,0,0-2.373-.82,5.315,5.315,0,0,0-2.764.761,18.5,18.5,0,0,0-2.685,1.993v14.687Z" transform="translate(-1.25)"/><path d="M563.868,424.589v-21.23h4.922v3.4a16.779,16.779,0,0,1,1.367-1.367,9.626,9.626,0,0,1,1.719-1.221,10.458,10.458,0,0,1,2.08-.879,8.345,8.345,0,0,1,2.432-.342A6.6,6.6,0,0,1,581,404.472a5.994,5.994,0,0,1,1.68,4.668v15.449h-4.922V410.546a3.933,3.933,0,0,0-.762-2.637,3.069,3.069,0,0,0-2.441-.879,6.257,6.257,0,0,0-3.018.743,13.458,13.458,0,0,0-2.744,2.011v14.805Z" transform="translate(-1.25)"/><path d="M588.206,399.667v-4.2h5v4.2Zm.039,24.922v-21.23h4.922v21.23Z" transform="translate(-1.25)"/><path d="M597.8,413.945a12.788,12.788,0,0,1,.911-5.109,9.752,9.752,0,0,1,2.383-3.416,8.878,8.878,0,0,1,3.289-1.9,11.8,11.8,0,0,1,3.574-.575,10.662,10.662,0,0,1,3.418.5,7.583,7.583,0,0,1,2.48,1.348,8.455,8.455,0,0,1,1.719,1.97,14.3,14.3,0,0,1,1.191,2.339l-4.16,1.484a4.7,4.7,0,0,0-4.727-3.555,5.432,5.432,0,0,0-1.972.362,4.085,4.085,0,0,0-1.641,1.181,6.084,6.084,0,0,0-1.123,2.139,10.76,10.76,0,0,0-.42,3.233,8.742,8.742,0,0,0,1.319,5.2,4.374,4.374,0,0,0,3.759,1.806,5.494,5.494,0,0,0,2.881-.722,5.8,5.8,0,0,0,2.08-2.969l4.082,1.484a14.8,14.8,0,0,1-1.347,2.438,8.745,8.745,0,0,1-1.875,1.984,8.994,8.994,0,0,1-2.559,1.357,10.286,10.286,0,0,1-3.379.51,10.585,10.585,0,0,1-3.621-.646,8.867,8.867,0,0,1-3.171-1.989,9.928,9.928,0,0,1-2.238-3.431A13.3,13.3,0,0,1,597.8,413.945Z" transform="translate(-1.25)"/><path d="M620.866,424.589V394.98h4.922v11.25a13.331,13.331,0,0,1,1.273-1.1,10.233,10.233,0,0,1,1.7-1.055,11.492,11.492,0,0,1,2.163-.8,10.24,10.24,0,0,1,2.652-.323,6.04,6.04,0,0,1,4.427,1.622,6.424,6.424,0,0,1,1.65,4.785v15.234h-4.922v-14q0-3.438-3.171-3.437a6.162,6.162,0,0,0-3.024.761,14.954,14.954,0,0,0-2.75,1.993v14.687Z" transform="translate(-1.25)"/><path d="M643.72,419.457a6.779,6.779,0,0,1,3.2-5.921,16.291,16.291,0,0,1,4.3-1.947,37.282,37.282,0,0,1,6.328-1.277v-.559a2.454,2.454,0,0,0-.842-2.077,4.354,4.354,0,0,0-2.643-.646,9.689,9.689,0,0,0-4.026.8,18.494,18.494,0,0,0-3.127,1.763l-2.393-2.763a15.8,15.8,0,0,1,4.315-2.731,14.434,14.434,0,0,1,5.917-1.154,11.685,11.685,0,0,1,3.576.476,5.272,5.272,0,0,1,3.665,3.73,11.108,11.108,0,0,1,.4,3.123v9.1a29.988,29.988,0,0,0,.136,3.163,7.576,7.576,0,0,0,.469,2.047h-4.961c-.131-.458-.244-.874-.342-1.247a6.09,6.09,0,0,1-.146-1.483,9.353,9.353,0,0,1-3.543,2.366,12.786,12.786,0,0,1-4.307.677,7.7,7.7,0,0,1-2.376-.353,5.42,5.42,0,0,1-1.889-1.038,4.773,4.773,0,0,1-1.256-1.714A5.7,5.7,0,0,1,643.72,419.457Zm4.8-.916a2.3,2.3,0,0,0,.8,1.909,3.378,3.378,0,0,0,2.173.643,8.306,8.306,0,0,0,3.406-.662,9.173,9.173,0,0,0,2.643-1.773v-4.674a23.512,23.512,0,0,0-6.734,1.7Q648.524,416.789,648.524,418.541Z" transform="translate(-1.25)"/><path d="M667.784,424.589v-21.23h4.922v3.4a16.779,16.779,0,0,1,1.367-1.367,9.59,9.59,0,0,1,1.719-1.221,10.458,10.458,0,0,1,2.08-.879,8.34,8.34,0,0,1,2.432-.342,6.6,6.6,0,0,1,4.609,1.524,6,6,0,0,1,1.68,4.668v15.449h-4.922V410.546a3.933,3.933,0,0,0-.762-2.637,3.069,3.069,0,0,0-2.441-.879,6.257,6.257,0,0,0-3.018.743,13.458,13.458,0,0,0-2.744,2.011v14.805Z" transform="translate(-1.25)"/><path d="M691.985,424.589v-21.23h4.922v3.4a17.105,17.105,0,0,1,1.367-1.367,9.59,9.59,0,0,1,1.719-1.221,10.458,10.458,0,0,1,2.08-.879,8.345,8.345,0,0,1,2.432-.342,6.6,6.6,0,0,1,4.609,1.524,5.994,5.994,0,0,1,1.68,4.668v15.449h-4.922V410.546a3.933,3.933,0,0,0-.762-2.637,3.066,3.066,0,0,0-2.441-.879,6.257,6.257,0,0,0-3.018.743,13.458,13.458,0,0,0-2.744,2.011v14.805Z" transform="translate(-1.25)"/><path d="M714.955,413.984a12.317,12.317,0,0,1,.957-5.127,10.19,10.19,0,0,1,2.442-3.428,8.983,8.983,0,0,1,3.281-1.9,11.259,11.259,0,0,1,3.437-.577,10.643,10.643,0,0,1,3.477.577,7.449,7.449,0,0,1,2.978,1.923,9.7,9.7,0,0,1,2.08,3.545,16.38,16.38,0,0,1,.782,5.44v1.152H719.877a5.628,5.628,0,0,0,1.738,4.224,5.943,5.943,0,0,0,3.946,1.323,7.655,7.655,0,0,0,3.408-.666,10.521,10.521,0,0,0,2.549-1.823l2.6,2.567a11.461,11.461,0,0,1-8.926,3.828,11.869,11.869,0,0,1-3.837-.625,8.81,8.81,0,0,1-3.262-1.963,9.713,9.713,0,0,1-2.276-3.437A13.254,13.254,0,0,1,714.955,413.984Zm5-2.071h9.922q-.45-4.882-4.844-4.883a5.919,5.919,0,0,0-1.738.25,4.282,4.282,0,0,0-1.524.846,4.95,4.95,0,0,0-1.181,1.519A6.584,6.584,0,0,0,719.955,411.913Z" transform="translate(-1.25)"/><path d="M739,424.589V394.98h4.922v29.609Z" transform="translate(-1.25)"/><path d="M572.951,472.589v-21.23h4.922v3.476h.078a8.329,8.329,0,0,1,7.637-3.887h.332l-.156,4.512a5.313,5.313,0,0,0-.674-.058c-.306-.013-.525-.02-.654-.02a7.093,7.093,0,0,0-3.965,1.025,8.411,8.411,0,0,0-2.6,2.745v13.437Z" transform="translate(-1.25)"/><path d="M588.324,461.984a12.317,12.317,0,0,1,.957-5.127,10.19,10.19,0,0,1,2.442-3.428,8.983,8.983,0,0,1,3.281-1.9,11.259,11.259,0,0,1,3.437-.577,10.648,10.648,0,0,1,3.477.577,7.449,7.449,0,0,1,2.978,1.923,9.731,9.731,0,0,1,2.081,3.545,16.408,16.408,0,0,1,.781,5.44v1.152H593.246a5.628,5.628,0,0,0,1.738,4.224,5.943,5.943,0,0,0,3.946,1.323,7.652,7.652,0,0,0,3.408-.666,10.521,10.521,0,0,0,2.549-1.823l2.6,2.567a11.461,11.461,0,0,1-8.925,3.828,11.87,11.87,0,0,1-3.838-.625,8.81,8.81,0,0,1-3.262-1.963,9.684,9.684,0,0,1-2.275-3.437A13.234,13.234,0,0,1,588.324,461.984Zm5-2.071h9.922q-.45-4.882-4.844-4.883a5.919,5.919,0,0,0-1.738.25,4.269,4.269,0,0,0-1.523.846,4.938,4.938,0,0,0-1.182,1.519A6.562,6.562,0,0,0,593.324,459.913Z" transform="translate(-1.25)"/><path d="M610.162,455.265v-3.906h3.672v-7.4h4.922v7.4h5.488v3.906h-5.488v10.5a3.728,3.728,0,0,0,.644,2.454,3.227,3.227,0,0,0,2.481.74,7.9,7.9,0,0,0,1.162-.088,6.256,6.256,0,0,0,.967-.2v3.925c-.144.026-.355.059-.635.1s-.586.071-.918.1-.677.046-1.035.059-.7.019-1.026.019a11.877,11.877,0,0,1-3.31-.38,4.706,4.706,0,0,1-2-1.094,3.688,3.688,0,0,1-.986-1.817,11.006,11.006,0,0,1-.264-2.548V455.265Z" transform="translate(-1.25)"/><path d="M627,467.457a6.785,6.785,0,0,1,3.2-5.921,16.306,16.306,0,0,1,4.3-1.947,37.323,37.323,0,0,1,6.328-1.277v-.559a2.451,2.451,0,0,0-.842-2.077,4.349,4.349,0,0,0-2.642-.646,9.7,9.7,0,0,0-4.027.8,18.572,18.572,0,0,0-3.127,1.763l-2.392-2.763a15.781,15.781,0,0,1,4.315-2.731,14.433,14.433,0,0,1,5.916-1.154,11.692,11.692,0,0,1,3.577.476,5.267,5.267,0,0,1,3.665,3.73,11.146,11.146,0,0,1,.4,3.123v9.1a29.951,29.951,0,0,0,.137,3.163,7.579,7.579,0,0,0,.468,2.047h-4.961c-.129-.458-.244-.874-.341-1.247a6.034,6.034,0,0,1-.147-1.483,9.346,9.346,0,0,1-3.543,2.366,12.776,12.776,0,0,1-4.306.677,7.675,7.675,0,0,1-2.375-.353,5.415,5.415,0,0,1-1.89-1.038,4.784,4.784,0,0,1-1.256-1.714A5.681,5.681,0,0,1,627,467.457Zm4.8-.916a2.3,2.3,0,0,0,.8,1.909,3.378,3.378,0,0,0,2.173.643,8.306,8.306,0,0,0,3.406-.662,9.128,9.128,0,0,0,2.642-1.773v-4.674a23.5,23.5,0,0,0-6.733,1.7Q631.8,464.789,631.8,466.541Z" transform="translate(-1.25)"/><path d="M651.2,447.667v-4.2h5v4.2Zm.039,24.922v-21.23h4.922v21.23Z" transform="translate(-1.25)"/><path d="M662.2,472.589V442.98h4.922v29.609Z" transform="translate(-1.25)"/><line class="cls-6" x1="0.885" y1="237.651" x2="365.527" y2="237.651"/><path d="M366.5,243.291a5.64,5.64,0,1,0-5.64-5.64A5.641,5.641,0,0,0,366.5,243.291Z" transform="translate(-1.25)"/><line class="cls-6" x1="0.885" y1="499.124" x2="365.527" y2="499.124"/><path d="M366.5,504.764a5.64,5.64,0,1,0-5.64-5.64A5.641,5.641,0,0,0,366.5,504.764Z" transform="translate(-1.25)"/><line class="cls-6" x1="872.427" y1="237.651" x2="1237.069" y2="237.651"/><path d="M873.959,243.291a5.64,5.64,0,1,1,5.64-5.64A5.64,5.64,0,0,1,873.959,243.291Z" transform="translate(-1.25)"/><line class="cls-6" x1="872.427" y1="499.124" x2="1237.069" y2="499.124"/><path d="M873.959,504.764a5.64,5.64,0,1,1,5.64-5.64A5.64,5.64,0,0,1,873.959,504.764Z" transform="translate(-1.25)"/><path class="cls-2" d="M785.515,576a38.264,38.264,0,0,1,14.841-30.282,81,81,0,0,0-12.726-12.337l-2.114-1.566-2.114,1.566c-1.039.772-25.431,19.14-25.431,42.614s24.392,41.839,25.431,42.611l2.114,1.566,2.114-1.566a80.959,80.959,0,0,0,12.721-12.328A38.262,38.262,0,0,1,785.515,576Z" transform="translate(-1.25)"/><path class="cls-2" d="M792.527,598.091H764.8a79.957,79.957,0,0,0,18.6,20.519l2.114,1.566,2.114-1.566a80.749,80.749,0,0,0,12.719-12.33A38.515,38.515,0,0,1,792.527,598.091Z" transform="translate(-1.25)"/><path class="cls-7" d="M785.516,576H757.971c0,8.153,2.949,15.689,6.833,22.088h27.723A38.147,38.147,0,0,1,785.516,576Z" transform="translate(-1.25)"/><path class="cls-8" d="M792.531,553.911H764.8c-3.884,6.4-6.833,13.935-6.833,22.088h27.548A38.145,38.145,0,0,1,792.531,553.911Z" transform="translate(-1.25)"/><path class="cls-9" d="M800.352,545.725a80.851,80.851,0,0,0-12.725-12.34l-2.114-1.566-2.113,1.566a79.85,79.85,0,0,0-18.6,20.523h27.729A38.568,38.568,0,0,1,800.352,545.725Z" transform="translate(-1.25)"/><path d="M824.769,536.566c-.3-.015-.61-.023-.917-.023h-.023q-.448,0-.893.023a39.53,39.53,0,0,0-36.3,26.316V545.313h-2.25v26.861l-12.457-12.453-1.591,1.591,14.048,14.044V594.1L768.382,578.1l-1.591,1.592,17.6,17.6v32.509h2.25V597.283l2.513-2.513a39.5,39.5,0,0,0,33.783,20.673c.3.014.594.022.893.022h.023c.307,0,.612-.009.917-.023a39.449,39.449,0,0,0,0-78.877Zm-14.813,38.313H799.437a52.484,52.484,0,0,1,3.056-16.919h8.98A104.731,104.731,0,0,0,809.956,574.879Zm1.517,19.169h-8.98a52.478,52.478,0,0,1-3.056-16.919h10.519A104.721,104.721,0,0,0,811.473,594.048Zm-8.086-38.338c3.361-7.833,8.6-13.625,14.745-15.878-2.722,3.38-4.831,9.1-6.227,15.878Zm8.416-14.9c-4.483,3.371-8.241,8.557-10.826,14.9h-8.292A37.383,37.383,0,0,1,811.8,540.806Zm-20.48,17.154h8.81a54.633,54.633,0,0,0-2.945,16.919H786.669A36.952,36.952,0,0,1,791.323,557.96ZM786.64,594.1v-4.976q.639,1.806,1.445,3.53Zm.029-16.973h10.519a54.628,54.628,0,0,0,2.945,16.919h-8.81A36.949,36.949,0,0,1,786.669,577.129Zm6.016,19.169h8.292c2.585,6.347,6.343,11.533,10.826,14.9A37.383,37.383,0,0,1,792.685,596.3Zm10.7,0h8.517c1.4,6.782,3.5,12.5,6.227,15.878C811.99,609.923,806.748,604.132,803.388,596.3Zm19.339,16.717c-3.306-1.141-6.6-7.223-8.6-16.717h8.6Zm0-18.967h-9.04a102.069,102.069,0,0,1-1.481-16.919h10.521Zm0-19.169H812.206a102.089,102.089,0,0,1,1.481-16.919h9.04Zm0-19.169h-8.6c2-9.493,5.3-15.575,8.6-16.717Zm38.308,19.169H850.516a54.633,54.633,0,0,0-2.946-16.919h8.811A36.952,36.952,0,0,1,861.035,574.879Zm-23.287,0a104.844,104.844,0,0,0-1.517-16.919h8.979a52.456,52.456,0,0,1,3.057,16.919Zm10.519,2.25a52.451,52.451,0,0,1-3.057,16.919h-8.979a104.834,104.834,0,0,0,1.517-16.919Zm6.752-21.419h-8.292c-2.584-6.346-6.343-11.533-10.825-14.9A37.386,37.386,0,0,1,855.019,555.71Zm-10.7,0H835.8c-1.4-6.782-3.5-12.5-6.228-15.878C835.713,542.085,840.955,547.877,844.316,555.71Zm-19.339-16.717c3.306,1.142,6.6,7.224,8.6,16.717h-8.6Zm0,18.967h9.039a102.082,102.082,0,0,1,1.482,16.919H824.977Zm0,19.169H835.5a102.062,102.062,0,0,1-1.482,16.919h-9.039Zm0,35.886V596.3h8.6C831.578,605.792,828.283,611.874,824.977,613.015ZM835.8,596.3h8.517c-3.361,7.834-8.6,13.625-14.744,15.878C832.294,608.8,834.4,603.08,835.8,596.3Zm.1,14.9c4.482-3.371,8.24-8.557,10.825-14.9h8.292A37.386,37.386,0,0,1,835.9,611.2Zm20.479-17.154H847.57a54.628,54.628,0,0,0,2.946-16.919h10.519A36.949,36.949,0,0,1,856.381,594.048Z" transform="translate(-1.25)"/><polygon class="cls-5" points="458.216 136.802 458.216 153.586 458.216 159.322 469.4 159.322 469.4 153.586 469.4 136.802 458.216 136.802"/><path class="cls-5" d="M409.041,118.223H404.76l1.513-4.641v-.894l-1.513-4.641h4.281l2.053,1.828h4.64l-1.248-2.919-2.633-6.165h-8.7a2.319,2.319,0,0,0-2.186,2.509v19.608a2.423,2.423,0,0,0,2.228,2.571h8.662l2.638-6.17,1.243-2.914h-4.64Z" transform="translate(-1.25)"/><polygon class="cls-5" points="394.932 147.301 394.43 144.791 392.433 143.617 389.934 144.391 389.925 144.393 386.974 149.412 391.993 152.363 394.944 147.345 394.932 147.301"/><rect class="cls-9" x="458.216" y="153.586" width="11.184" height="5.736"/><path class="cls-9" d="M411.853,125.479h-8.662a2.423,2.423,0,0,1-2.228-2.571v-3.6h13.528Z" transform="translate(-1.25)"/><polygon class="cls-10" points="394.932 147.301 394.43 144.791 392.433 143.617 389.934 144.391 394.932 147.301"/><rect class="cls-8" x="458.216" y="147.989" width="11.184" height="5.597"/><polygon class="cls-8" points="414.484 116.395 413.241 119.309 399.713 119.309 399.713 113.132 404.129 113.138 405.023 113.138 405.023 113.582 403.51 118.223 407.791 118.223 409.844 116.395 414.484 116.395"/><polygon class="cls-8" points="389.925 144.393 388.939 146.07 393.971 148.999 394.944 147.345 394.932 147.301 389.934 144.391 389.925 144.393"/><rect class="cls-7" x="458.216" y="142.399" width="11.184" height="5.591"/><polygon class="cls-7" points="414.484 109.875 409.844 109.875 407.791 108.047 403.51 108.047 405.023 112.688 405.023 113.132 404.129 113.138 399.713 113.138 399.713 106.956 413.236 106.956 414.484 109.875"/><polygon class="cls-7" points="387.95 147.752 392.982 150.681 393.971 148.999 388.939 146.07 387.95 147.752"/><path d="M466.216,184.093h-22.5v-2.25h20.25v-6.755h2.25Zm0-71.96h-6.75v2.25h4.5v11.2h2.25Zm-74.249,2.231h4.5v-2.25h-6.749v13.474h2.25Zm20.249,67.479H391.967v-9h-2.25v11.255h22.5Zm26.877-33.755a11.188,11.188,0,1,0-11.188,11.188A11.2,11.2,0,0,0,439.093,148.088Zm-2.25,0a8.938,8.938,0,1,1-8.938-8.938A8.948,8.948,0,0,1,436.843,148.088Zm42.792,53.99v2.25H376.3v-2.25h40.42V175.119a11.188,11.188,0,0,1,22.376,0v26.959Zm-60.668,0h17.876V175.119a8.938,8.938,0,0,0-17.876,0Zm29.249-94.506h-4.5v2.25h4.5Zm0,9.016h-4.5v2.25h4.5Zm0-4.578h-4.5v2.25h4.5Zm17,49.562a2.25,2.25,0,1,0,2.214,2.25A2.232,2.232,0,0,0,465.215,161.572Zm12.338,5.455V133.611A3.553,3.553,0,0,0,474,130.062H456.3a3.553,3.553,0,0,0-3.549,3.549v33.416a3.553,3.553,0,0,0,3.549,3.549H474A3.553,3.553,0,0,0,477.553,167.027ZM474,132.312a1.3,1.3,0,0,1,1.3,1.3v33.416a1.3,1.3,0,0,1-1.3,1.3H456.3a1.3,1.3,0,0,1-1.3-1.3V133.611a1.3,1.3,0,0,1,1.3-1.3Zm-34.8-24.724h-2.25v2.25h2.25Zm0,4.5h-2.25v2.25h2.25Zm0,4.5h-2.25v2.25h2.25Zm15.774-13.412V123.1a2.328,2.328,0,0,1-2.261,2.379H411.853l2.638-6.17,1.243-2.914h-4.64l-2.053,1.828H404.76l1.513-4.641v-.894l-1.513-4.641h4.281l2.053,1.828h4.64l-1.248-2.919-2.633-6.165h40.866A2.33,2.33,0,0,1,454.98,103.176Zm-38.149,20.053,5.856-8.876h6.21c.984,0,1.3-.3,1.3-1.221,0-.872-.2-1.029-1.3-1.029h-6.221l-5.85-9.062h-1.564l3.881,9.084h-8.91l-2.047-1.828h-.321l.658,2.037v1.608l-.658,2.031h.321l2.047-1.828h8.91l-3.881,9.084Zm35.9-20.053a.175.175,0,0,0-.051-.146l-13.473,0v2.306h-2.25v-2.3l-17.453,0,4.4,6.818h5c1.62,0,3.549.568,3.549,3.279A3.224,3.224,0,0,1,428.9,116.6h-5l-4.37,6.626h17.43v-2.141h2.25v2.141h13.507c-.022,0,.017-.045.017-.129Zm-51.8,62.888-4.5,0v2.261h-2.25v-2.262l-6.75,0v2.264h-2.25v-2.265l-4.5,0v-24.15a2.847,2.847,0,0,1,2.843-2.844h1.658v-5.882a3.1,3.1,0,0,1,3.092-3.092h5.066a3.1,3.1,0,0,1,3.092,3.092v5.887h1.653a2.846,2.846,0,0,1,2.843,2.843Zm-13.5-27,6.75,0v-5.886a.843.843,0,0,0-.842-.842h-5.066a.843.843,0,0,0-.842.842Zm-4.5,2.842v15.17h15.747V141.912a.593.593,0,0,0-.593-.593h-1.711a18.544,18.544,0,0,1-.667,3.322c-.015.05-.029.1-.044.147l-2-1.176a15.9,15.9,0,0,0,.448-2.294l-10.583,0A.594.594,0,0,0,382.934,141.906Zm15.747,21.906v-4.486H382.934v4.482Z" transform="translate(-1.25)"/><path class="cls-3" d="M351.254,560.041V573.13h6.188v12.421a12.649,12.649,0,0,0,9.09-4.136l1.645,1.534a14.87,14.87,0,0,1-10.735,4.852v3.151c0,5.914,4.287,6.928,8.844,6.928h7.468v27.44l15.331-2.69V521.38c-16.311,0-30.305,9.562-35.9,24.187C351.487,549.505,351.254,555.1,351.254,560.041Zm12.252-.869-4.514-2.462,1.078-1.976,8.135,4.438-8.135,4.438-1.078-1.975Zm76.362-33.354V631.849h-11.25v-117h11.25Z" transform="translate(-1.25)"/><path class="cls-9" d="M439.868,544.1h-11.25V514.85h11.25Zm-50.783,53.78H373.754v27.44l15.331-2.69" transform="translate(-1.25)"/><path class="cls-8" d="M439.868,573.35h-11.25V544.1h11.25Zm-82.34-.22h-.086v12.421a12.649,12.649,0,0,0,9.09-4.136l1.645,1.534a14.87,14.87,0,0,1-10.735,4.852v3.151c0,5.915,4.287,6.928,8.844,6.928h22.8V573.13H357.528Z" transform="translate(-1.25)"/><path class="cls-7" d="M439.868,602.6h-11.25V573.35h11.25Zm-86.686-57.032h35.9V573.13H351.254V560.041C351.254,555.1,351.487,549.505,353.182,545.567Zm5.81,16.068,1.078,1.975,8.135-4.438-8.135-4.438-1.078,1.976,4.514,2.462Z" transform="translate(-1.25)"/><path d="M406.118,562.1v-9h-9v9Zm-6.75-2.25v-4.5h4.5v4.5Zm6.75-11.25v-9h-9v9Zm-6.75-2.25v-4.5h4.5v4.5Zm20.25,15.75v-9h-9v9Zm-6.75-2.25v-4.5h4.5v4.5Zm6.75-24.75v-9h-9v9Zm-6.75-2.25v-4.5h4.5v4.5Zm6.75,15.75v-9h-9v9Zm-6.75-2.25v-4.5h4.5v4.5Zm-6.75-11.25v-9h-9v9Zm-6.75-2.25v-4.5h4.5v4.5Zm15.75,51.469A4.782,4.782,0,1,0,419.9,589.1,4.788,4.788,0,0,0,415.118,584.318Zm0,2.25a2.532,2.532,0,1,1-2.532,2.531A2.534,2.534,0,0,1,415.118,586.568Zm-13.5,11.25A4.782,4.782,0,1,0,406.4,602.6,4.788,4.788,0,0,0,401.618,597.818Zm0,2.25a2.532,2.532,0,1,1-2.532,2.531A2.534,2.534,0,0,1,401.618,600.068Zm13.5-2.25A4.782,4.782,0,1,0,419.9,602.6,4.788,4.788,0,0,0,415.118,597.818Zm0,2.25a2.532,2.532,0,1,1-2.532,2.531A2.534,2.534,0,0,1,415.118,600.068Zm0,11.25A4.782,4.782,0,1,0,419.9,616.1,4.788,4.788,0,0,0,415.118,611.318Zm0,2.25a2.532,2.532,0,1,1-2.532,2.531A2.534,2.534,0,0,1,415.118,613.568Zm-13.5-29.25A4.782,4.782,0,1,0,406.4,589.1,4.788,4.788,0,0,0,401.618,584.318Zm0,2.25a2.532,2.532,0,1,1-2.532,2.531A2.534,2.534,0,0,1,401.618,586.568Zm0,24.75A4.782,4.782,0,1,0,406.4,616.1,4.788,4.788,0,0,0,401.618,611.318Zm0,2.25a2.532,2.532,0,1,1-2.532,2.531A2.534,2.534,0,0,1,401.618,613.568ZM442.4,530.6a2.533,2.533,0,0,0-2.531-2.531v-2.25a4.781,4.781,0,0,1,0,9.562v-2.25A2.533,2.533,0,0,0,442.4,530.6Zm-2.531,40.781v2.25a4.781,4.781,0,1,0,0-9.562v2.25a2.531,2.531,0,0,1,0,5.062Zm11.25-27.281v9h-9v-9Zm-6.75,2.25v4.5h4.5v-4.5Zm3.094,43.032a4.782,4.782,0,1,1,4.781-4.782A4.787,4.787,0,0,1,447.462,589.381Zm2.531-4.782a2.532,2.532,0,1,0-2.531,2.532A2.534,2.534,0,0,0,449.993,584.6Zm10.125-47.25v-9h9v9Zm6.75-2.25v-4.5h-4.5v4.5Zm0,51.75v9h-9v-9Zm-6.75,2.25v4.5h4.5v-4.5Zm16.064-7.018a27.547,27.547,0,0,0,27.479,26.188q.69,0,1.385-.034a27.542,27.542,0,1,0-28.864-26.154Zm8.767-18.339a25.126,25.126,0,0,1,17.5-8.278q.639-.032,1.274-.031a25.291,25.291,0,1,1-18.772,8.309ZM437.655,645.8a5.522,5.522,0,0,0,7.753,7.026l2.417,2.189,33.537-37.011-2.264-2.052,6.607-7.292a33.22,33.22,0,1,0-8.05-7.293l-6.607,7.291-2.265-2.052-33.537,37.012Zm45.235-42.122a30.978,30.978,0,1,1,22.325,7.985A30.776,30.776,0,0,1,482.89,603.681Zm-5.459,10.764-4.716-4.273,6.409-7.073q1.069,1.17,2.256,2.249t2.459,2.024ZM447.668,651.84l-.439-.4,0,0-8.372-7.587,0,.006-.434-.393,30.516-33.677,9.245,8.377Zm-8.177-4.382,4.092,3.708a3.264,3.264,0,0,1-4.092-3.708Zm37.931-107.6h13.5v4.5h-13.5v-4.5m-2.25-2.25v9h18v-9Zm-17.25,21.657h9a2.252,2.252,0,0,1,2.25,2.25v.562a2.252,2.252,0,0,1-2.25,2.25h-9a2.252,2.252,0,0,1-2.25-2.25v-.562a2.252,2.252,0,0,1,2.25-2.25m0-2.25a4.513,4.513,0,0,0-4.5,4.5v.562a4.513,4.513,0,0,0,4.5,4.5h9a4.513,4.513,0,0,0,4.5-4.5v-.562a4.513,4.513,0,0,0-4.5-4.5Zm51.572,28.866h9a2.252,2.252,0,0,1,2.25,2.25v.562a2.252,2.252,0,0,1-2.25,2.25h-9a2.252,2.252,0,0,1-2.25-2.25v-.562a2.252,2.252,0,0,1,2.25-2.25m0-2.25a4.513,4.513,0,0,0-4.5,4.5v.562a4.513,4.513,0,0,0,4.5,4.5h9a4.513,4.513,0,0,0,4.5-4.5v-.562a4.513,4.513,0,0,0-4.5-4.5Zm-69.626,30.5v-2.193c.022,0,.042.006.064.006h9a2.253,2.253,0,0,0,2.25-2.25v-.562a2.253,2.253,0,0,0-2.25-2.25h-9c-.022,0-.042.006-.064.006v-2.253c.021,0,.042,0,.064,0h9a4.513,4.513,0,0,1,4.5,4.5v.562a4.513,4.513,0,0,1-4.5,4.5h-9c-.022,0-.043,0-.064,0Zm54.054-47.459h13.5v4.5h-13.5v-4.5m-2.25-2.25v9h18v-9Zm.188,8.625v9h-9v-9Zm-6.75,2.25v4.5h4.5v-4.5ZM360.07,554.734l8.135,4.438-8.135,4.438-1.078-1.975,4.514-2.463-4.514-2.462Zm6.462,26.681,1.645,1.534a14.87,14.87,0,0,1-10.735,4.852v-2.25A12.649,12.649,0,0,0,366.532,581.415Z" transform="translate(-1.25)"/><path class="cls-4" d="M818,150.576l-.4-.34.884-7.334.164-1.354a7.587,7.587,0,0,1,7.2-6.432h4.533c3.555,0,4,3.468,3.947,4.159l-.218,1.772c-.115.924-.232,1.855-.232,1.855l-.593,4.87-.272,2.217-.087.706-.957,7.79-.921,7.5c-.013.1-.034.192-.05.288H815.655l.614-5.077h0l.325-2.692h0l0-.02h-.025l-12.844-11.038h0L806.656,144l11.623,9.752,2.557-3.053,5.228-6.247L824.34,143ZM786.083,128.55a13.973,13.973,0,0,1-.9,5.192h0c-1.1,2.776-3.023,4.519-4.844,6.279a26.905,26.905,0,0,0-1.948,2.067h-.008a13.008,13.008,0,0,0-.923,1.253,18.23,18.23,0,0,0-2.792,7.058H774.5a18.161,18.161,0,0,0-2.793-7.042,12.932,12.932,0,0,0-.94-1.269h-.009a25.665,25.665,0,0,0-1.929-2.049c-1.821-1.768-3.747-3.514-4.845-6.3h0a13.932,13.932,0,0,1-.9-5.192h2.247a9.334,9.334,0,0,1,2.709-6.543,9.254,9.254,0,0,1,13.089,0h0a9.333,9.333,0,0,1,2.713,6.544Zm-6.093.565a5.429,5.429,0,1,0-2.62,4.627A5.391,5.391,0,0,0,779.99,129.115Z" transform="translate(-1.25)"/><path class="cls-9" d="M818.643,141.548a7.587,7.587,0,0,1,7.2-6.432h4.533c3.619,0,4.018,3.6,3.945,4.2-.066.548-.448,3.586-.448,3.586h-15.4Zm-37.519-19.542a9.258,9.258,0,0,0-13.089,0,9.23,9.23,0,0,0-2.148,3.388h4.776a5.389,5.389,0,0,1,7.836,0h4.775a9.207,9.207,0,0,0-2.151-3.389Z" transform="translate(-1.25)"/><path class="cls-8" d="M765.326,128.55a9.25,9.25,0,0,1,.561-3.155h4.776a5.389,5.389,0,0,0,1.13,8.347H763.98a13.932,13.932,0,0,1-.9-5.192Zm18.51,0a9.222,9.222,0,0,0-.562-3.155H778.5a5.392,5.392,0,0,1-1.129,8.347h7.812a13.973,13.973,0,0,0,.9-5.192ZM824.34,143l1.724,1.444-5.228,6.247h12.089l.087-.706.865-7.087h-15.4l-.884,7.334.4.34Z" transform="translate(-1.25)"/><path class="cls-7" d="M763.984,133.742h7.809a5.357,5.357,0,0,0,5.577,0h7.807c-1.1,2.776-3.023,4.519-4.844,6.279a26.905,26.905,0,0,0-1.948,2.067h-7.627a25.665,25.665,0,0,0-1.929-2.049C767.008,138.271,765.082,136.525,763.984,133.742Zm39.743,13.705,12.844,11.038h15.4l.957-7.79H820.836l-2.557,3.053L806.656,144Z" transform="translate(-1.25)"/><path d="M818.213,128.342h-1.248v-4.554a6.786,6.786,0,0,1,13.572-.014h0v11.342h-2.25V123.788h0a4.534,4.534,0,1,0-9.068,0v2.3h1.131v1.125a3.405,3.405,0,0,0,3.4,3.4v2.25A5.661,5.661,0,0,1,818.213,128.342Zm-52.887.208a9.334,9.334,0,0,1,2.709-6.543,9.254,9.254,0,0,1,13.089,0h0a9.333,9.333,0,0,1,2.713,6.544h2.25a11.411,11.411,0,0,0-1.605-5.841v0l0-.008h0a11.24,11.24,0,0,0-.657-.985c-.065-.088-.127-.177-.195-.263-.1-.127-.2-.252-.31-.376q-.219-.255-.454-.5h0c-.051-.053-.1-.109-.146-.161h0a11.547,11.547,0,0,0-2.378-1.826c-.06-.035-.124-.062-.184-.095-.21-.116-.422-.227-.639-.329-.085-.04-.17-.079-.256-.117-.28-.124-.563-.242-.852-.343-.031-.011-.06-.024-.091-.034h0c-.105-.036-.212-.067-.319-.1l-.151-.046c-.086-.025-.17-.055-.257-.078-.133-.036-.269-.065-.4-.1-.11-.026-.22-.055-.332-.077-.15-.031-.3-.053-.455-.077-.1-.016-.191-.035-.287-.048-.135-.018-.271-.028-.407-.041-.373-.037-.747-.062-1.122-.062-.257,0-.513.01-.768.027H773.8l-.012,0h0c-.245.017-.489.041-.732.074h0c-.114.015-.227.038-.34.056l-.22.038c-.06.009-.12.018-.179.03h0c-.133.027-.264.061-.4.093-.113.026-.226.05-.337.08s-.222.067-.333.1c-.131.039-.263.077-.392.121-.061.021-.12.046-.18.068h0c-.28.1-.555.216-.827.338l-.205.094c-.226.107-.447.222-.666.344-.048.027-.1.049-.148.077a11.724,11.724,0,0,0-2.381,1.826c-.045.045-.084.095-.128.141h0c-.168.174-.328.352-.483.533q-.147.171-.286.347c-.09.115-.174.234-.261.351h0q-.306.42-.572.863c-.017.028-.034.055-.05.083h0l-.019.035q-.165.283-.314.576a11.4,11.4,0,0,0-1.256,5.205h2.25Zm80.6,69.168v2.25h-6.473c-3.994,0-7.82-.2-10.728-2.657-.472-.4-3.421-3.068-3.659-3.283-6.2,3.339-15.014,5.946-27.456,5.946H762.771v-2.25h11.366V182.689h-15.77v-8.761h4.811v-14.99l8.649,7.5,11.129-1,10-13.737c2.172-3.278,4.312-5,6.573-5.313h0a4.5,4.5,0,0,1,2.441-6.324L794.03,133.4l1.447-1.724L817.6,150.236l.4.34L824.34,143l1.724,1.444-7.785,9.3-13.361-11.21a2.251,2.251,0,0,0-2.852,3.482l1.661,1.427,12.844,11.038.023.02h0l-.325,2.692h0L803.313,150a4.436,4.436,0,0,0-3.48-1.378c-1.561.213-3.263,1.7-5.031,4.366l-11.177,15.357h6.581v.014l10.225-10.388,1.6,1.579-4.513,4.585,10.7-.961.2,2.241-13.344,1.2-7.2,7.318h35.054c4.526,0,7.422-3.782,8.063-7.654.016-.1.037-.192.05-.288l.921-7.5.957-7.79.087-.706.272-2.217.825-6.725.218-1.772,2.666-21.711h8.781l0,34.014c0,7.563,0,19.561-7.966,30.928l-.125.184a43.683,43.683,0,0,1-3.969,4.819,33.294,33.294,0,0,1-6.606,5.336c.053.047,2.624,2.374,3.067,2.748,2.327,1.964,5.716,2.126,9.276,2.126Zm-2.4-61.836-5.062,41.307c5.06-9.43,5.065-18.84,5.064-25.611ZM832.34,173.925h4.243l6.643-54.111h-4.242Zm-3.173,0h.9l.119-.969A10.629,10.629,0,0,1,829.167,173.928Zm-23.621,6.511h30.246l.512-4.261H805.546Zm-24.133-9.847-5.43,3.336h8.74l3.283-3.336Zm-9.182,3,8.546-5.25h.065l.355-.486-8.966.805Zm-6.8.336h4.553v-6.113l-4.553-3.948Zm24.479,6.511v-4.261h-29.29v4.261Zm33.377,11.981c-2.737-2.463-5.842-5.216-7.664-6.633a13.161,13.161,0,0,0-8.92-3.1h-3.4v-6.511H792.157v6.511h-15.77v15.034s20.026,0,20.783,0C808.951,197.778,817.345,195.457,823.284,192.42Zm2.084-1.151a31.345,31.345,0,0,0,6.716-5.31,42.817,42.817,0,0,0,2.805-3.27h-19.8A20.336,20.336,0,0,1,817,184.011C819.009,185.572,822.474,188.659,825.368,191.269Zm-50.786-56.744a5.429,5.429,0,1,1,2.788-.783A5.372,5.372,0,0,1,774.582,134.525Zm0-2.25a3.16,3.16,0,1,0-3.161-3.16A3.162,3.162,0,0,0,774.582,132.275Z" transform="translate(-1.25)"/><circle class="cls-1" cx="618.672" cy="369.111" r="172.5"/><path d="M674.149,348.576v-9.12H580.44l8.74-14.382-2.563-1.558-11.51,18.94h12.042v6.12a10.5,10.5,0,1,0,8.834,2.88h69.331a10.5,10.5,0,1,0,8.835-2.88Zm-3-6.12v6h-81v-6Zm-75,16.5a7.5,7.5,0,1,1-7.5-7.5A7.509,7.509,0,0,1,596.149,358.956Zm76.5,7.5a7.5,7.5,0,1,1,7.5-7.5A7.508,7.508,0,0,1,672.649,366.456Zm-97.418-96.169c-.064-.3-1.678-7.331-7.658-7.331H551.149v-3h16.424c6.693,0,9.835,6.27,10.578,9.641l1.81,6.029-2.874.862Z" transform="translate(-1.25)"/><polygon class="cls-5" points="573.899 270.07 582.801 333.456 672.84 333.456 687.907 279.506 573.899 270.07"/><polygon class="cls-9" points="603.899 333.456 603.899 272.532 573.899 270.07 582.801 333.456 603.899 333.456"/><polygon class="cls-8" points="603.899 272.532 603.899 333.456 633.899 333.456 633.899 274.983 603.899 272.532"/><polygon class="cls-7" points="633.899 333.456 663.899 333.456 663.899 277.433 633.899 274.983 633.899 333.456"/></g></g></svg>