<?xml version="1.0" encoding="utf-8"?>
<!-- Generator: Adobe Illustrator 26.4.1, SVG Export Plug-In . SVG Version: 6.00 Build 0)  -->
<svg version="1.1" id="Layer_1" xmlns="http://www.w3.org/2000/svg" xmlns:xlink="http://www.w3.org/1999/xlink" x="0px" y="0px"
	 viewBox="0 0 1920 1080" enable-background="new 0 0 1920 1080" xml:space="preserve">
<rect fill="none" width="1920" height="1080"/>
<circle fill-rule="evenodd" clip-rule="evenodd" fill="#FFFFFF" stroke="#008FD3" stroke-width="30" stroke-miterlimit="10" cx="916.616" cy="572.047" r="353.802"/>
<g>
	<path fill="#008FD3" d="M839.221,471.5v-34.051h12.869c1.692,0,3.269,0.146,4.729,0.438s2.718,0.779,3.773,1.46
		c1.056,0.682,1.883,1.558,2.482,2.628c0.598,1.071,0.898,2.385,0.898,3.942c0,2.366-0.577,4.178-1.73,5.436
		c-1.152,1.258-2.582,2.052-4.289,2.381v0.112c1.033,0.18,1.979,0.476,2.841,0.887c0.86,0.412,1.606,0.947,2.235,1.606
		c0.629,0.659,1.111,1.471,1.448,2.437s0.505,2.093,0.505,3.38c0,1.572-0.299,2.939-0.898,4.099
		c-0.599,1.161-1.434,2.134-2.504,2.92s-2.344,1.37-3.818,1.752s-3.088,0.573-4.84,0.573H839.221z M844.881,451.667h6.67
		c2.262,0,3.977-0.359,5.145-1.078s1.752-1.909,1.752-3.571c0-1.647-0.536-2.808-1.606-3.481c-1.071-0.674-2.804-1.011-5.2-1.011
		h-6.76V451.667z M844.881,466.536h7.457c2.455,0,4.233-0.4,5.334-1.202c1.101-0.801,1.65-2.055,1.65-3.762
		c0-1.842-0.658-3.141-1.977-3.897c-1.317-0.756-3.189-1.134-5.615-1.134h-6.85V466.536z"/>
	<path fill="#008FD3" d="M875.943,471.859c-0.988,0-1.901-0.135-2.74-0.404c-0.838-0.27-1.564-0.666-2.178-1.19
		c-0.615-0.524-1.098-1.179-1.449-1.965s-0.527-1.681-0.527-2.684c0-1.317,0.291-2.53,0.875-3.639
		c0.584-1.108,1.52-2.081,2.809-2.92c1.287-0.838,2.934-1.557,4.941-2.156c2.006-0.599,4.432-1.07,7.277-1.415v-0.719
		c0-1.228-0.322-2.119-0.967-2.673c-0.644-0.554-1.654-0.831-3.031-0.831c-1.723,0-3.266,0.345-4.627,1.033
		c-1.363,0.689-2.561,1.445-3.594,2.269l-2.764-3.526c1.318-1.198,2.973-2.235,4.965-3.111c1.99-0.876,4.26-1.314,6.805-1.314
		c1.617,0,2.988,0.191,4.111,0.573s2.028,0.951,2.717,1.707c0.689,0.756,1.188,1.685,1.494,2.785s0.461,2.355,0.461,3.762v10.085
		c0,1.468,0.052,2.677,0.156,3.627c0.105,0.951,0.285,1.733,0.539,2.347h-5.705c-0.149-0.524-0.28-1-0.393-1.426
		s-0.168-0.992-0.168-1.696c-1.258,1.288-2.613,2.19-4.066,2.707C879.433,471.601,877.785,471.859,875.943,471.859z M878.01,467.502
		c1.468,0,2.771-0.254,3.908-0.764c1.139-0.509,2.148-1.19,3.033-2.044v-5.391c-3.4,0.464-5.975,1.12-7.727,1.965
		c-1.752,0.846-2.629,1.943-2.629,3.291c0,0.974,0.307,1.707,0.922,2.201C876.131,467.255,876.962,467.502,878.01,467.502z"/>
	<path fill="#008FD3" d="M896.631,471.5v-24.415h5.66v3.908c0.463-0.524,0.988-1.048,1.572-1.572
		c0.584-0.524,1.242-0.992,1.977-1.404c0.732-0.412,1.53-0.749,2.392-1.011c0.86-0.262,1.793-0.393,2.796-0.393
		c2.246,0,4.014,0.584,5.301,1.752c1.288,1.168,1.932,2.958,1.932,5.368V471.5h-5.66v-16.149c0-1.348-0.291-2.358-0.875-3.032
		s-1.521-1.011-2.809-1.011c-1.258,0-2.414,0.285-3.47,0.854c-1.056,0.569-2.108,1.34-3.155,2.313V471.5H896.631z"/>
	<path fill="#008FD3" d="M924.324,471.5v-34.051h5.66v20.305l9.254-10.669h6.199l-7.951,8.917l8.648,15.498h-5.93l-6.312-11.32
		l-3.908,4.29v7.03H924.324z"/>
	<path fill="#008FD3" d="M950.424,442.84v-4.919h5.795v4.919H950.424z M950.469,471.5v-24.415h5.705V471.5H950.469z"/>
	<path fill="#008FD3" d="M962.777,471.5v-24.415h5.66v3.908c0.465-0.524,0.988-1.048,1.572-1.572
		c0.584-0.524,1.243-0.992,1.977-1.404c0.734-0.412,1.531-0.749,2.393-1.011c0.861-0.262,1.793-0.393,2.797-0.393
		c2.246,0,4.012,0.584,5.301,1.752c1.287,1.168,1.932,2.958,1.932,5.368V471.5h-5.66v-16.149c0-1.348-0.293-2.358-0.877-3.032
		s-1.52-1.011-2.807-1.011c-1.258,0-2.415,0.285-3.471,0.854c-1.056,0.569-2.107,1.34-3.156,2.313V471.5H962.777z"/>
	<path fill="#008FD3" d="M999.682,480.979c-2.111,0-3.912-0.146-5.402-0.438s-2.703-0.7-3.639-1.224
		c-0.936-0.524-1.625-1.153-2.066-1.887c-0.441-0.734-0.662-1.542-0.662-2.426c0-1.228,0.352-2.272,1.055-3.133
		c0.704-0.861,1.686-1.539,2.943-2.033c-1.258-0.644-1.887-1.64-1.887-2.987c0-0.913,0.321-1.748,0.965-2.504
		c0.645-0.756,1.423-1.411,2.336-1.965c-1.258-0.793-2.216-1.786-2.875-2.976c-0.658-1.19-0.988-2.542-0.988-4.054
		c0-1.258,0.24-2.415,0.719-3.47c0.479-1.056,1.153-1.977,2.021-2.763c0.869-0.786,1.939-1.4,3.213-1.842
		c1.271-0.441,2.709-0.663,4.312-0.663c1.691,0,3.155,0.247,4.391,0.741s2.271,1.108,3.111,1.842
		c0.793-0.614,1.752-1.146,2.875-1.595s2.186-0.719,3.189-0.809v4.604c-0.555,0-1.206,0.045-1.955,0.135
		c-0.748,0.09-1.52,0.262-2.312,0.517c0.584,0.914,0.875,2.014,0.875,3.302c0,1.288-0.232,2.459-0.695,3.515
		c-0.465,1.056-1.135,1.969-2.011,2.74c-0.876,0.771-1.942,1.37-3.2,1.797s-2.682,0.64-4.268,0.64c-0.705,0-1.296-0.045-1.775-0.135
		c-0.479-0.09-1.025-0.209-1.639-0.359c-0.359,0.21-0.656,0.438-0.888,0.685c-0.232,0.247-0.349,0.536-0.349,0.865
		c0,0.494,0.199,0.842,0.596,1.044s1.135,0.348,2.213,0.438l4.334,0.27c1.797,0.12,3.332,0.333,4.605,0.64
		c1.271,0.307,2.316,0.73,3.133,1.269s1.407,1.198,1.774,1.977c0.366,0.778,0.55,1.707,0.55,2.785c0,1.258-0.307,2.354-0.92,3.291
		c-0.615,0.936-1.472,1.71-2.572,2.325c-1.101,0.614-2.426,1.074-3.976,1.381C1003.264,480.825,1001.553,480.979,999.682,480.979z
		 M1000.557,476.891c2.082,0,3.721-0.255,4.92-0.764c1.197-0.509,1.797-1.206,1.797-2.089c0-0.435-0.094-0.805-0.281-1.112
		c-0.188-0.307-0.51-0.569-0.966-0.786c-0.457-0.217-1.093-0.386-1.909-0.505c-0.816-0.12-1.838-0.225-3.066-0.314l-4.223-0.27
		c-0.494,0-0.988-0.052-1.482-0.157c-0.793,0.375-1.366,0.838-1.718,1.393c-0.353,0.554-0.528,1.138-0.528,1.752
		c0,1.063,0.621,1.804,1.865,2.224C996.207,476.681,998.071,476.891,1000.557,476.891z M999.816,460.135
		c1.572,0,2.785-0.389,3.639-1.168c0.854-0.778,1.279-1.924,1.279-3.437c0-1.527-0.419-2.691-1.258-3.493
		c-0.838-0.801-2.074-1.202-3.705-1.202c-1.559,0-2.774,0.408-3.65,1.224c-0.876,0.816-1.314,1.973-1.314,3.47
		c0,1.513,0.445,2.658,1.337,3.437C997.034,459.746,998.258,460.135,999.816,460.135z"/>
</g>
<g>
	<path fill="#231F20" d="M809.639,1066.982c-2.559,0-4.729-0.605-6.51-1.817c-1.78-1.212-3.08-2.796-3.898-4.752l3.463-1.826
		c1.514,3.003,3.891,4.505,7.133,4.505c1.582,0,2.855-0.262,3.822-0.785c0.967-0.522,1.451-1.376,1.451-2.56
		c0-0.557-0.105-1.046-0.316-1.468c-0.21-0.42-0.549-0.808-1.015-1.16s-1.072-0.68-1.817-0.98c-0.745-0.302-1.652-0.617-2.722-0.947
		c-1.263-0.364-2.44-0.739-3.532-1.127c-1.092-0.386-2.048-0.864-2.867-1.433c-0.818-0.569-1.459-1.269-1.92-2.1
		c-0.46-0.83-0.69-1.859-0.69-3.088c0-1.093,0.214-2.088,0.64-2.986c0.427-0.898,1.029-1.67,1.809-2.312s1.713-1.138,2.799-1.484
		s2.283-0.521,3.592-0.521c1.274,0,2.418,0.146,3.43,0.436c1.013,0.29,1.918,0.69,2.714,1.203c0.796,0.512,1.484,1.101,2.064,1.766
		s1.069,1.38,1.468,2.142l-3.174,2.201c-0.773-1.297-1.709-2.249-2.807-2.858c-1.099-0.608-2.342-0.913-3.729-0.913
		c-1.445,0-2.561,0.251-3.346,0.751c-0.784,0.501-1.177,1.229-1.177,2.185c0,0.614,0.116,1.129,0.35,1.544
		c0.233,0.416,0.601,0.794,1.101,1.135c0.5,0.342,1.138,0.651,1.911,0.931c0.773,0.278,1.684,0.565,2.73,0.861
		c1.206,0.353,2.347,0.739,3.421,1.16c1.076,0.421,2.014,0.928,2.816,1.519c0.802,0.592,1.43,1.309,1.885,2.15
		s0.684,1.866,0.684,3.071c0,1.047-0.223,2.031-0.666,2.952c-0.443,0.922-1.078,1.727-1.902,2.415
		c-0.825,0.688-1.844,1.226-3.055,1.612C812.565,1066.789,811.186,1066.982,809.639,1066.982z"/>
	<path fill="#231F20" d="M828.682,1066.829c-1.627,0-2.924-0.47-3.891-1.408c-0.968-0.938-1.451-2.329-1.451-4.172v-13.311h4.334
		v12.286c0,2.014,0.922,3.021,2.765,3.021c0.956,0,1.835-0.222,2.637-0.665c0.802-0.444,1.601-1.029,2.397-1.758v-12.884h4.334
		v18.549h-4.334v-2.508c-0.307,0.318-0.678,0.648-1.109,0.989c-0.433,0.342-0.928,0.651-1.484,0.93
		c-0.558,0.279-1.186,0.504-1.886,0.675C830.293,1066.743,829.523,1066.829,828.682,1066.829z"/>
	<path fill="#231F20" d="M851.341,1066.88c-1.729,0-3.316-0.275-4.761-0.827c-1.445-0.552-2.588-1.26-3.43-2.125l2.354-2.61
		c0.693,0.603,1.541,1.12,2.542,1.553c1.002,0.433,2.1,0.648,3.294,0.648c1.16,0,2.067-0.162,2.722-0.486s0.98-0.873,0.98-1.646
		c0-0.376-0.11-0.691-0.332-0.947c-0.223-0.256-0.521-0.478-0.896-0.666c-0.375-0.188-0.812-0.344-1.313-0.469
		s-1.03-0.256-1.587-0.393c-0.797-0.193-1.607-0.406-2.432-0.64c-0.825-0.233-1.576-0.558-2.252-0.973
		c-0.678-0.415-1.232-0.962-1.664-1.639c-0.433-0.677-0.648-1.55-0.648-2.619c0-0.819,0.17-1.562,0.512-2.227
		c0.342-0.666,0.812-1.237,1.416-1.715c0.604-0.479,1.325-0.851,2.168-1.118c0.842-0.267,1.773-0.4,2.798-0.4
		c1.774,0,3.248,0.238,4.419,0.716c1.172,0.479,2.236,1.115,3.191,1.911l-2.047,2.782c-0.354-0.273-0.746-0.532-1.178-0.776
		c-0.433-0.245-0.882-0.461-1.348-0.648c-0.467-0.188-0.934-0.333-1.4-0.436s-0.91-0.153-1.33-0.153
		c-1.184,0-2.003,0.179-2.457,0.537c-0.455,0.358-0.684,0.805-0.684,1.34c0,0.375,0.111,0.691,0.333,0.947s0.513,0.478,0.87,0.665
		c0.359,0.188,0.782,0.345,1.271,0.47s1.018,0.25,1.587,0.375c0.785,0.183,1.599,0.384,2.44,0.605
		c0.842,0.223,1.598,0.538,2.27,0.947c0.671,0.41,1.229,0.956,1.672,1.639s0.666,1.563,0.666,2.645c0,0.979-0.202,1.829-0.605,2.551
		c-0.404,0.723-0.962,1.317-1.673,1.783c-0.711,0.467-1.538,0.816-2.483,1.05C853.383,1066.764,852.387,1066.88,851.341,1066.88z"/>
	<path fill="#231F20" d="M869.955,1066.727c-1.183,0-2.146-0.111-2.892-0.333s-1.329-0.54-1.749-0.955
		c-0.422-0.415-0.709-0.944-0.861-1.587c-0.154-0.643-0.23-1.386-0.23-2.228v-10.272h-3.209v-3.413h3.209v-6.467h4.3v6.467h4.795
		v3.413h-4.795v9.197c0,1.002,0.188,1.719,0.563,2.15c0.375,0.433,1.098,0.648,2.166,0.648c0.33,0,0.669-0.025,1.016-0.077
		c0.348-0.051,0.629-0.11,0.845-0.179v3.396c-0.125,0.022-0.31,0.052-0.554,0.086c-0.246,0.034-0.513,0.062-0.803,0.085
		s-0.592,0.04-0.904,0.051C870.539,1066.721,870.24,1066.727,869.955,1066.727z"/>
	<path fill="#231F20" d="M880.823,1066.761c-0.751,0-1.444-0.103-2.082-0.308c-0.638-0.204-1.188-0.506-1.655-0.904
		c-0.467-0.397-0.833-0.896-1.101-1.493c-0.267-0.597-0.401-1.276-0.401-2.039c0-1.001,0.223-1.922,0.666-2.765
		c0.443-0.841,1.154-1.581,2.133-2.218s2.23-1.184,3.754-1.639c1.525-0.454,3.367-0.812,5.529-1.074v-0.547
		c0-0.933-0.244-1.609-0.734-2.03c-0.488-0.421-1.257-0.631-2.303-0.631c-1.309,0-2.48,0.262-3.516,0.784
		c-1.035,0.523-1.945,1.099-2.73,1.724l-2.099-2.679c1.001-0.91,2.259-1.698,3.771-2.363c1.514-0.666,3.236-0.998,5.171-0.998
		c1.229,0,2.27,0.145,3.123,0.435c0.853,0.29,1.541,0.723,2.064,1.297s0.901,1.28,1.135,2.116s0.351,1.789,0.351,2.858v7.661
		c0,1.115,0.039,2.034,0.119,2.756c0.079,0.723,0.216,1.317,0.409,1.783h-4.335c-0.113-0.397-0.213-0.759-0.298-1.083
		s-0.128-0.754-0.128-1.289c-0.955,0.979-1.985,1.664-3.089,2.057S882.223,1066.761,880.823,1066.761z M882.393,1063.45
		c1.115,0,2.105-0.193,2.97-0.58s1.632-0.904,2.304-1.553v-4.096c-2.582,0.353-4.539,0.851-5.87,1.493s-1.997,1.476-1.997,2.5
		c0,0.739,0.233,1.297,0.7,1.672C880.965,1063.263,881.597,1063.45,882.393,1063.45z"/>
	<path fill="#231F20" d="M896.589,1044.714v-3.737h4.402v3.737H896.589z M896.623,1066.487v-18.549h4.334v18.549H896.623z"/>
	<path fill="#231F20" d="M905.904,1066.487v-18.549h4.301v2.97c0.352-0.398,0.75-0.796,1.193-1.194
		c0.444-0.398,0.945-0.754,1.502-1.066c0.558-0.313,1.164-0.569,1.818-0.769c0.653-0.198,1.361-0.298,2.124-0.298
		c1.706,0,3.048,0.443,4.026,1.33c0.979,0.888,1.469,2.247,1.469,4.079v13.497h-4.301v-12.269c0-1.024-0.222-1.792-0.666-2.304
		c-0.443-0.512-1.154-0.768-2.133-0.768c-0.955,0-1.834,0.216-2.637,0.647c-0.801,0.433-1.601,1.019-2.396,1.758v12.935H905.904z"/>
	<path fill="#231F20" d="M930.936,1066.761c-0.75,0-1.444-0.103-2.082-0.308c-0.637-0.204-1.188-0.506-1.654-0.904
		c-0.467-0.397-0.834-0.896-1.102-1.493c-0.267-0.597-0.4-1.276-0.4-2.039c0-1.001,0.223-1.922,0.666-2.765
		c0.443-0.841,1.154-1.581,2.133-2.218s2.229-1.184,3.754-1.639c1.524-0.454,3.367-0.812,5.529-1.074v-0.547
		c0-0.933-0.245-1.609-0.734-2.03s-1.258-0.631-2.304-0.631c-1.308,0-2.479,0.262-3.515,0.784c-1.035,0.523-1.945,1.099-2.73,1.724
		l-2.1-2.679c1.002-0.91,2.259-1.698,3.771-2.363c1.514-0.666,3.236-0.998,5.17-0.998c1.229,0,2.27,0.145,3.123,0.435
		s1.541,0.723,2.064,1.297s0.902,1.28,1.135,2.116c0.234,0.836,0.351,1.789,0.351,2.858v7.661c0,1.115,0.04,2.034,0.119,2.756
		c0.079,0.723,0.216,1.317,0.409,1.783h-4.334c-0.113-0.397-0.213-0.759-0.299-1.083c-0.085-0.324-0.127-0.754-0.127-1.289
		c-0.956,0.979-1.986,1.664-3.09,2.057S932.336,1066.761,930.936,1066.761z M932.506,1063.45c1.115,0,2.104-0.193,2.969-0.58
		c0.865-0.387,1.633-0.904,2.305-1.553v-4.096c-2.583,0.353-4.539,0.851-5.871,1.493c-1.33,0.643-1.996,1.476-1.996,2.5
		c0,0.739,0.232,1.297,0.699,1.672C931.078,1063.263,931.709,1063.45,932.506,1063.45z"/>
	<path fill="#231F20" d="M956.172,1066.761c-1.012,0-1.982-0.196-2.909-0.589s-1.731-0.976-2.415-1.749v2.064h-4.299v-25.869h4.299
		v9.761c0.604-0.751,1.389-1.404,2.355-1.962s2.15-0.836,3.549-0.836c1.047,0,2.02,0.198,2.918,0.597s1.676,0.998,2.33,1.801
		c0.654,0.802,1.166,1.803,1.535,3.003s0.555,2.603,0.555,4.206c0,1.615-0.19,3.021-0.572,4.215
		c-0.381,1.194-0.915,2.19-1.604,2.986c-0.688,0.797-1.521,1.391-2.5,1.783S957.355,1066.761,956.172,1066.761z M955.217,1063.348
		c1.639,0,2.812-0.5,3.523-1.502c0.711-1,1.066-2.542,1.066-4.624c0-1.979-0.393-3.47-1.178-4.471
		c-0.784-1.001-1.877-1.502-3.275-1.502c-0.877,0-1.719,0.239-2.525,0.717c-0.809,0.478-1.468,1.019-1.98,1.621v7.457
		c0.58,0.74,1.264,1.309,2.049,1.707C953.681,1063.148,954.455,1063.348,955.217,1063.348z"/>
	<path fill="#231F20" d="M967.979,1044.714v-3.737h4.402v3.737H967.979z M968.014,1066.487v-18.549h4.334v18.549H968.014z"/>
	<path fill="#231F20" d="M977.448,1066.487v-25.869h4.335v25.869H977.448z"/>
	<path fill="#231F20" d="M986.85,1044.714v-3.737h4.402v3.737H986.85z M986.883,1066.487v-18.549h4.335v18.549H986.883z"/>
	<path fill="#231F20" d="M1003.331,1066.727c-1.183,0-2.147-0.111-2.892-0.333c-0.746-0.222-1.329-0.54-1.75-0.955
		s-0.708-0.944-0.861-1.587c-0.154-0.643-0.23-1.386-0.23-2.228v-10.272h-3.208v-3.413h3.208v-6.467h4.301v6.467h4.795v3.413h-4.795
		v9.197c0,1.002,0.188,1.719,0.562,2.15c0.375,0.433,1.098,0.648,2.167,0.648c0.33,0,0.669-0.025,1.016-0.077
		c0.347-0.051,0.628-0.11,0.845-0.179v3.396c-0.125,0.022-0.311,0.052-0.555,0.086c-0.245,0.034-0.512,0.062-0.803,0.085
		c-0.289,0.022-0.592,0.04-0.904,0.051C1003.914,1066.721,1003.615,1066.727,1003.331,1066.727z"/>
	<path fill="#231F20" d="M1012.1,1073.688c-1.114,0-2.01-0.065-2.688-0.196c-0.676-0.131-1.248-0.253-1.715-0.367l0.973-3.464
		c0.262,0.08,0.666,0.165,1.212,0.256c0.546,0.092,1.194,0.137,1.945,0.137c0.763,0,1.365-0.162,1.81-0.486
		c0.443-0.324,0.818-0.861,1.125-1.612l0.513-1.365l-7.116-18.651h4.471l4.778,13.516h0.068l4.761-13.516h4.266l-7.9,20.58
		c-0.307,0.808-0.646,1.532-1.016,2.175c-0.369,0.643-0.811,1.187-1.322,1.63c-0.512,0.444-1.106,0.782-1.783,1.016
		S1013.01,1073.688,1012.1,1073.688z"/>
</g>
<g>
	<path fill="#231F20" d="M827.905,64.08V38.211h5.768l6.911,20.528h0.085l6.706-20.528h5.87V64.08h-4.231V44.798h-0.068
		c-0.182,0.876-0.41,1.746-0.683,2.61c-0.272,0.865-0.558,1.752-0.853,2.662l-5.035,14.01h-3.873l-5-14.01
		c-0.17-0.466-0.318-0.898-0.443-1.297c-0.125-0.397-0.254-0.802-0.384-1.211c-0.131-0.41-0.253-0.845-0.367-1.306
		s-0.239-1.01-0.376-1.646h-0.084v19.47H827.905z"/>
	<path fill="#231F20" d="M858.74,42.307v-3.737h4.402v3.737H858.74z M858.773,64.08V45.531h4.335V64.08H858.773z"/>
	<path fill="#231F20" d="M875.088,71.281c-1.604,0-2.973-0.111-4.104-0.333s-2.054-0.532-2.765-0.93
		c-0.711-0.398-1.234-0.876-1.569-1.434c-0.336-0.558-0.503-1.172-0.503-1.843c0-0.933,0.267-1.727,0.801-2.381
		c0.535-0.653,1.28-1.169,2.236-1.544c-0.956-0.489-1.434-1.246-1.434-2.27c0-0.693,0.244-1.328,0.733-1.902
		s1.081-1.072,1.774-1.493c-0.955-0.604-1.684-1.356-2.184-2.262c-0.501-0.904-0.751-1.931-0.751-3.08
		c0-0.955,0.182-1.834,0.546-2.636s0.876-1.502,1.535-2.099c0.66-0.598,1.474-1.064,2.441-1.399
		c0.967-0.336,2.059-0.504,3.275-0.504c1.285,0,2.398,0.188,3.336,0.563c0.939,0.375,1.727,0.842,2.363,1.399
		c0.604-0.467,1.332-0.87,2.185-1.212c0.854-0.341,1.661-0.546,2.423-0.614v3.498c-0.42,0-0.916,0.034-1.484,0.103
		s-1.154,0.199-1.758,0.393c0.444,0.694,0.666,1.53,0.666,2.508c0,0.979-0.177,1.869-0.529,2.671s-0.861,1.496-1.527,2.082
		c-0.665,0.586-1.476,1.041-2.432,1.365c-0.955,0.324-2.036,0.486-3.242,0.486c-0.535,0-0.984-0.034-1.348-0.103
		c-0.364-0.068-0.779-0.159-1.246-0.273c-0.272,0.16-0.498,0.333-0.674,0.521c-0.176,0.188-0.264,0.407-0.264,0.657
		c0,0.375,0.15,0.64,0.451,0.794c0.302,0.153,0.862,0.264,1.682,0.332l3.293,0.205c1.365,0.091,2.531,0.253,3.498,0.486
		s1.76,0.555,2.381,0.964c0.619,0.41,1.068,0.91,1.348,1.502c0.279,0.591,0.418,1.297,0.418,2.116c0,0.955-0.233,1.788-0.699,2.5
		c-0.467,0.71-1.118,1.299-1.954,1.766s-1.843,0.816-3.021,1.05C877.809,71.164,876.51,71.281,875.088,71.281z M875.753,68.176
		c1.581,0,2.827-0.194,3.737-0.58c0.91-0.388,1.365-0.916,1.365-1.587c0-0.33-0.072-0.612-0.214-0.845
		c-0.142-0.233-0.387-0.433-0.733-0.598c-0.348-0.165-0.83-0.293-1.451-0.384c-0.619-0.092-1.396-0.171-2.328-0.239l-3.209-0.204
		c-0.375,0-0.75-0.04-1.126-0.12c-0.603,0.285-1.038,0.637-1.306,1.059c-0.268,0.42-0.4,0.864-0.4,1.331
		c0,0.808,0.472,1.37,1.416,1.688S873.864,68.176,875.753,68.176z M875.189,55.445c1.195,0,2.116-0.295,2.765-0.887
		s0.973-1.462,0.973-2.611c0-1.16-0.319-2.045-0.956-2.653s-1.575-0.913-2.814-0.913c-1.184,0-2.107,0.311-2.773,0.931
		s-0.998,1.499-0.998,2.636c0,1.149,0.338,2.02,1.016,2.611C873.076,55.15,874.006,55.445,875.189,55.445z"/>
	<path fill="#231F20" d="M888.602,64.08V45.531h4.301v3.038h0.068c0.591-0.934,1.41-1.732,2.457-2.398
		c1.047-0.665,2.451-0.998,4.215-0.998h0.289l-0.136,3.942c-0.126-0.023-0.321-0.04-0.589-0.052
		c-0.268-0.011-0.458-0.017-0.572-0.017c-1.398,0-2.553,0.299-3.463,0.896c-0.91,0.598-1.667,1.396-2.27,2.397v11.74H888.602z"/>
	<path fill="#231F20" d="M907.064,64.354c-0.75,0-1.444-0.103-2.082-0.308c-0.637-0.205-1.188-0.506-1.654-0.904
		s-0.834-0.896-1.102-1.493c-0.267-0.598-0.4-1.277-0.4-2.039c0-1.001,0.223-1.923,0.666-2.765s1.154-1.581,2.133-2.218
		c0.979-0.638,2.229-1.184,3.754-1.639s3.367-0.813,5.529-1.075v-0.546c0-0.933-0.245-1.609-0.734-2.03s-1.258-0.632-2.304-0.632
		c-1.308,0-2.479,0.262-3.515,0.785s-1.945,1.098-2.73,1.724l-2.1-2.679c1.002-0.91,2.259-1.698,3.771-2.364
		c1.514-0.665,3.236-0.998,5.17-0.998c1.229,0,2.27,0.146,3.123,0.436s1.541,0.723,2.064,1.297s0.902,1.279,1.135,2.116
		c0.234,0.836,0.351,1.789,0.351,2.857v7.662c0,1.115,0.04,2.033,0.119,2.756s0.216,1.316,0.409,1.783h-4.334
		c-0.113-0.398-0.213-0.76-0.299-1.084c-0.085-0.324-0.127-0.753-0.127-1.288c-0.956,0.979-1.986,1.664-3.09,2.057
		S908.465,64.354,907.064,64.354z M908.635,61.043c1.115,0,2.104-0.193,2.969-0.58c0.865-0.387,1.633-0.904,2.305-1.553v-4.096
		c-2.583,0.353-4.539,0.851-5.871,1.493c-1.33,0.643-1.996,1.476-1.996,2.5c0,0.739,0.232,1.297,0.699,1.672
		S907.838,61.043,908.635,61.043z"/>
	<path fill="#231F20" d="M929.947,64.319c-1.183,0-2.146-0.111-2.892-0.333s-1.329-0.54-1.749-0.956
		c-0.422-0.415-0.709-0.943-0.861-1.587c-0.154-0.643-0.23-1.385-0.23-2.227V48.944h-3.209v-3.413h3.209v-6.467h4.3v6.467h4.795
		v3.413h-4.795v9.197c0,1.001,0.188,1.718,0.563,2.15c0.375,0.433,1.098,0.648,2.166,0.648c0.33,0,0.669-0.025,1.016-0.077
		c0.348-0.051,0.629-0.11,0.845-0.179v3.396c-0.125,0.022-0.31,0.051-0.554,0.085c-0.246,0.034-0.513,0.062-0.803,0.086
		c-0.29,0.022-0.592,0.039-0.904,0.051S930.232,64.319,929.947,64.319z"/>
	<path fill="#231F20" d="M936.979,42.307v-3.737h4.402v3.737H936.979z M937.012,64.08V45.531h4.335V64.08H937.012z"/>
	<path fill="#231F20" d="M954.332,64.473c-1.115,0-2.213-0.188-3.293-0.563c-1.081-0.375-2.048-0.952-2.9-1.731
		c-0.854-0.779-1.542-1.775-2.065-2.986c-0.523-1.212-0.784-2.671-0.784-4.377c0-1.695,0.256-3.154,0.768-4.377
		s1.191-2.224,2.039-3.003s1.814-1.352,2.9-1.716c1.086-0.363,2.199-0.546,3.336-0.546c1.127,0,2.23,0.183,3.311,0.546
		c1.081,0.364,2.048,0.937,2.901,1.716c0.853,0.779,1.541,1.78,2.064,3.003c0.522,1.223,0.785,2.682,0.785,4.377
		c0,1.706-0.263,3.165-0.785,4.377c-0.523,1.211-1.212,2.207-2.064,2.986c-0.854,0.779-1.82,1.356-2.901,1.731
		C956.562,64.285,955.459,64.473,954.332,64.473z M954.332,60.872c1.57,0,2.75-0.531,3.541-1.596
		c0.791-1.063,1.186-2.551,1.186-4.462c0-0.854-0.094-1.649-0.281-2.389c-0.188-0.74-0.475-1.371-0.861-1.895
		s-0.877-0.936-1.468-1.237c-0.591-0.301-1.297-0.452-2.116-0.452c-1.559,0-2.732,0.523-3.523,1.57s-1.186,2.514-1.186,4.402
		c0,0.887,0.094,1.697,0.281,2.432c0.188,0.733,0.472,1.368,0.854,1.902c0.381,0.535,0.87,0.956,1.467,1.263
		C952.822,60.719,953.524,60.872,954.332,60.872z"/>
	<path fill="#231F20" d="M967.198,64.08V45.531h4.3v2.97c0.354-0.398,0.752-0.797,1.195-1.195c0.443-0.397,0.943-0.753,1.502-1.066
		c0.557-0.312,1.162-0.568,1.816-0.768s1.362-0.299,2.125-0.299c1.706,0,3.049,0.444,4.027,1.331
		c0.979,0.888,1.467,2.247,1.467,4.078V64.08h-4.3v-12.27c0-1.023-0.222-1.791-0.665-2.303c-0.444-0.513-1.155-0.769-2.133-0.769
		c-0.957,0-1.835,0.217-2.637,0.648c-0.803,0.433-1.602,1.019-2.398,1.758V64.08H967.198z"/>
	<path fill="#231F20" d="M1004.211,64.319c-1.184,0-2.148-0.111-2.893-0.333c-0.746-0.222-1.328-0.54-1.749-0.956
		c-0.421-0.415-0.708-0.943-0.862-1.587c-0.153-0.643-0.23-1.385-0.23-2.227V48.944h-3.207v-3.413h3.207v-6.467h4.301v6.467h4.795
		v3.413h-4.795v9.197c0,1.001,0.188,1.718,0.562,2.15c0.376,0.433,1.098,0.648,2.168,0.648c0.33,0,0.668-0.025,1.016-0.077
		c0.346-0.051,0.628-0.11,0.844-0.179v3.396c-0.125,0.022-0.311,0.051-0.555,0.085s-0.512,0.062-0.802,0.086
		c-0.29,0.022-0.592,0.039-0.904,0.051C1004.793,64.313,1004.494,64.319,1004.211,64.319z"/>
	<path fill="#231F20" d="M1019.09,64.473c-1.115,0-2.213-0.188-3.293-0.563c-1.081-0.375-2.048-0.952-2.9-1.731
		c-0.854-0.779-1.542-1.775-2.065-2.986c-0.523-1.212-0.784-2.671-0.784-4.377c0-1.695,0.256-3.154,0.768-4.377
		s1.191-2.224,2.039-3.003s1.814-1.352,2.9-1.716c1.086-0.363,2.199-0.546,3.336-0.546c1.127,0,2.23,0.183,3.311,0.546
		c1.081,0.364,2.048,0.937,2.901,1.716c0.853,0.779,1.541,1.78,2.064,3.003c0.522,1.223,0.785,2.682,0.785,4.377
		c0,1.706-0.263,3.165-0.785,4.377c-0.523,1.211-1.212,2.207-2.064,2.986c-0.854,0.779-1.82,1.356-2.901,1.731
		C1021.32,64.285,1020.217,64.473,1019.09,64.473z M1019.09,60.872c1.57,0,2.75-0.531,3.541-1.596
		c0.791-1.063,1.186-2.551,1.186-4.462c0-0.854-0.094-1.649-0.281-2.389c-0.188-0.74-0.475-1.371-0.861-1.895
		s-0.877-0.936-1.468-1.237c-0.591-0.301-1.297-0.452-2.116-0.452c-1.559,0-2.732,0.523-3.523,1.57s-1.186,2.514-1.186,4.402
		c0,0.887,0.094,1.697,0.281,2.432c0.188,0.733,0.472,1.368,0.854,1.902c0.381,0.535,0.87,0.956,1.467,1.263
		C1017.58,60.719,1018.282,60.872,1019.09,60.872z"/>
	<path fill="#231F20" d="M859.133,106.256c-1.184,0-2.148-0.111-2.893-0.333c-0.746-0.222-1.328-0.54-1.749-0.956
		c-0.421-0.415-0.708-0.943-0.862-1.587c-0.153-0.643-0.23-1.385-0.23-2.227V90.881h-3.207v-3.413h3.207v-6.467h4.301v6.467h4.795
		v3.413h-4.795v9.197c0,1.001,0.188,1.718,0.562,2.15c0.376,0.433,1.098,0.648,2.168,0.648c0.33,0,0.668-0.025,1.016-0.077
		c0.346-0.051,0.628-0.11,0.844-0.179v3.396c-0.125,0.022-0.311,0.051-0.555,0.085s-0.512,0.062-0.802,0.086
		c-0.29,0.022-0.592,0.039-0.904,0.051C859.715,106.25,859.416,106.256,859.133,106.256z"/>
	<path fill="#231F20" d="M866.01,106.017V80.147h4.334v9.829c0.307-0.308,0.676-0.629,1.109-0.964
		c0.432-0.336,0.926-0.643,1.484-0.922c0.557-0.278,1.186-0.512,1.885-0.699c0.7-0.188,1.471-0.282,2.312-0.282
		c1.627,0,2.924,0.473,3.891,1.417s1.451,2.337,1.451,4.181v13.31h-4.335V93.781c0-2.002-0.921-3.003-2.765-3.003
		c-0.955,0-1.834,0.222-2.637,0.666c-0.801,0.443-1.601,1.023-2.396,1.74v12.832H866.01z"/>
	<path fill="#231F20" d="M894.984,106.409c-1.16,0-2.278-0.183-3.354-0.546c-1.075-0.364-2.025-0.936-2.85-1.715
		c-0.825-0.779-1.488-1.78-1.988-3.004c-0.5-1.223-0.75-2.688-0.75-4.394c0-1.764,0.277-3.257,0.836-4.479
		c0.557-1.223,1.268-2.221,2.133-2.995c0.864-0.773,1.82-1.328,2.867-1.663c1.046-0.336,2.047-0.504,3.002-0.504
		c1.047,0,2.06,0.168,3.038,0.504c0.978,0.335,1.846,0.896,2.603,1.681c0.756,0.785,1.361,1.817,1.816,3.097
		c0.455,1.28,0.684,2.864,0.684,4.753v1.007h-12.68c0.092,1.684,0.598,2.909,1.52,3.677c0.922,0.769,2.07,1.152,3.447,1.152
		c1.205,0,2.197-0.193,2.977-0.58s1.521-0.916,2.228-1.587l2.27,2.235c-0.979,1.069-2.103,1.896-3.37,2.482
		C898.144,106.116,896.668,106.409,894.984,106.409z M899.079,94.942c-0.262-2.89-1.672-4.335-4.231-4.335
		c-0.535,0-1.041,0.074-1.52,0.223c-0.477,0.147-0.921,0.397-1.33,0.75c-0.41,0.354-0.754,0.803-1.033,1.349
		c-0.278,0.546-0.463,1.217-0.555,2.014H899.079z"/>
	<path fill="#231F20" d="M923.191,106.409c-1.07,0-2.125-0.188-3.166-0.563c-1.041-0.375-1.969-0.952-2.781-1.731
		c-0.813-0.779-1.471-1.775-1.971-2.986c-0.501-1.212-0.751-2.671-0.751-4.377c0-1.764,0.267-3.257,0.802-4.479
		s1.234-2.221,2.1-2.995c0.863-0.773,1.825-1.328,2.883-1.663c1.059-0.336,2.1-0.504,3.123-0.504c1.138,0,2.133,0.146,2.986,0.436
		s1.576,0.686,2.167,1.186c0.591,0.501,1.093,1.078,1.502,1.732s0.757,1.34,1.04,2.056l-3.634,1.297
		c-0.729-2.07-2.104-3.105-4.13-3.105c-0.604,0-1.178,0.105-1.723,0.315c-0.547,0.211-1.024,0.555-1.434,1.033
		c-0.41,0.478-0.737,1.101-0.981,1.868c-0.245,0.768-0.367,1.709-0.367,2.824c0,1.979,0.384,3.495,1.151,4.548
		c0.769,1.052,1.863,1.578,3.285,1.578c0.979,0,1.817-0.211,2.518-0.632c0.699-0.42,1.305-1.285,1.816-2.594l3.566,1.297
		c-0.33,0.751-0.723,1.457-1.177,2.116c-0.455,0.66-1.001,1.234-1.638,1.724c-0.638,0.489-1.383,0.882-2.236,1.178
		C925.289,106.261,924.306,106.409,923.191,106.409z"/>
	<path fill="#231F20" d="M934.795,106.017V80.147h4.334v25.869H934.795z"/>
	<path fill="#231F20" d="M952.115,106.409c-1.115,0-2.213-0.188-3.294-0.563c-1.081-0.375-2.048-0.952-2.901-1.731
		c-0.853-0.779-1.541-1.775-2.064-2.986c-0.523-1.212-0.785-2.671-0.785-4.377c0-1.695,0.256-3.154,0.768-4.377
		c0.513-1.223,1.192-2.224,2.04-3.003c0.847-0.779,1.813-1.352,2.901-1.716c1.086-0.363,2.197-0.546,3.336-0.546
		c1.125,0,2.229,0.183,3.311,0.546c1.08,0.364,2.047,0.937,2.9,1.716s1.541,1.78,2.064,3.003s0.785,2.682,0.785,4.377
		c0,1.706-0.262,3.165-0.785,4.377c-0.523,1.211-1.211,2.207-2.064,2.986s-1.82,1.356-2.9,1.731
		C954.344,106.222,953.24,106.409,952.115,106.409z M952.115,102.809c1.569,0,2.75-0.531,3.54-1.596
		c0.79-1.063,1.187-2.551,1.187-4.462c0-0.854-0.094-1.649-0.281-2.389c-0.188-0.74-0.477-1.371-0.862-1.895
		c-0.388-0.523-0.876-0.936-1.468-1.237c-0.592-0.301-1.297-0.452-2.115-0.452c-1.559,0-2.734,0.523-3.524,1.57
		s-1.187,2.514-1.187,4.402c0,0.887,0.095,1.697,0.282,2.432c0.188,0.733,0.472,1.368,0.853,1.902
		c0.382,0.535,0.871,0.956,1.469,1.263C950.604,102.655,951.307,102.809,952.115,102.809z"/>
	<path fill="#231F20" d="M970.083,106.357c-1.627,0-2.924-0.469-3.891-1.407c-0.968-0.938-1.45-2.329-1.45-4.172V87.468h4.334
		v12.286c0,2.014,0.922,3.021,2.764,3.021c0.956,0,1.835-0.222,2.637-0.665c0.803-0.444,1.602-1.03,2.398-1.758V87.468h4.334v18.549
		h-4.334v-2.509c-0.308,0.319-0.678,0.648-1.109,0.99c-0.434,0.341-0.928,0.651-1.484,0.93c-0.559,0.279-1.187,0.504-1.887,0.674
		C971.695,106.272,970.925,106.357,970.083,106.357z"/>
	<path fill="#231F20" d="M992.352,106.29c-1.047,0-2.02-0.191-2.918-0.572s-1.676-0.967-2.329-1.758
		c-0.654-0.79-1.167-1.78-1.536-2.969s-0.555-2.591-0.555-4.206c0-1.604,0.193-3.012,0.58-4.224s0.922-2.218,1.604-3.021
		c0.683-0.802,1.513-1.407,2.491-1.817c0.979-0.409,2.064-0.614,3.26-0.614c1,0,1.967,0.199,2.9,0.598
		c0.933,0.398,1.734,0.979,2.406,1.74v-9.3h4.3v21.33c0,1.115,0.04,2.033,0.12,2.756c0.079,0.723,0.227,1.316,0.443,1.783h-4.438
		c-0.125-0.262-0.227-0.629-0.307-1.101s-0.119-0.941-0.119-1.408c-0.672,0.785-1.474,1.445-2.406,1.979
		C994.916,106.022,993.751,106.29,992.352,106.29z M993.751,102.774c0.888,0,1.731-0.239,2.534-0.717
		c0.802-0.478,1.459-1.023,1.971-1.638v-7.44c-0.58-0.739-1.26-1.308-2.039-1.706s-1.557-0.598-2.33-0.598
		c-1.627,0-2.795,0.518-3.506,1.553c-0.711,1.036-1.066,2.589-1.066,4.659c0,1.99,0.389,3.47,1.168,4.437
		S992.352,102.774,993.751,102.774z"/>
</g>
<g>
	<path fill="#231F20" d="M253.732,559.543c-1.66,0-3.188-0.288-4.582-0.862c-1.393-0.574-2.59-1.425-3.592-2.551
		c-1-1.126-1.783-2.528-2.346-4.206c-0.563-1.678-0.845-3.638-0.845-5.879c0-2.161,0.287-4.075,0.862-5.742
		c0.574-1.666,1.367-3.06,2.38-4.181c1.013-1.12,2.212-1.971,3.601-2.551c1.388-0.58,2.895-0.87,4.521-0.87
		c1.49,0,2.801,0.196,3.934,0.589c1.132,0.393,2.099,0.944,2.9,1.655c0.803,0.711,1.465,1.556,1.988,2.533
		c0.523,0.979,0.928,2.065,1.212,3.26l-4.164,1.178c-0.262-0.854-0.549-1.602-0.861-2.244c-0.313-0.643-0.702-1.181-1.169-1.613
		c-0.467-0.432-1.013-0.759-1.639-0.98c-0.625-0.222-1.371-0.333-2.234-0.333c-2.196,0-3.9,0.805-5.111,2.415
		c-1.211,1.609-1.817,3.894-1.817,6.851c0,3.095,0.617,5.458,1.852,7.09c1.234,1.633,2.949,2.449,5.146,2.449
		c1.672,0,3.002-0.436,3.992-1.306s1.729-2.283,2.219-4.24l4.163,0.938c-0.318,1.286-0.759,2.457-1.322,3.516
		c-0.563,1.058-1.269,1.959-2.116,2.704s-1.849,1.328-3.003,1.749C256.545,559.332,255.223,559.543,253.732,559.543z"/>
	<path fill="#231F20" d="M275.84,559.44c-1.115,0-2.213-0.188-3.293-0.563c-1.081-0.375-2.048-0.952-2.9-1.731
		c-0.854-0.779-1.542-1.775-2.065-2.986c-0.523-1.212-0.784-2.671-0.784-4.377c0-1.695,0.256-3.154,0.768-4.377
		s1.191-2.224,2.039-3.003s1.814-1.352,2.9-1.716c1.086-0.363,2.199-0.546,3.336-0.546c1.127,0,2.23,0.183,3.311,0.546
		c1.081,0.364,2.048,0.937,2.901,1.716c0.853,0.779,1.541,1.78,2.064,3.003c0.522,1.223,0.785,2.682,0.785,4.377
		c0,1.706-0.263,3.165-0.785,4.377c-0.523,1.211-1.212,2.207-2.064,2.986c-0.854,0.779-1.82,1.356-2.901,1.731
		C278.07,559.253,276.967,559.44,275.84,559.44z M275.84,555.84c1.57,0,2.75-0.531,3.541-1.596c0.791-1.063,1.186-2.551,1.186-4.462
		c0-0.854-0.094-1.649-0.281-2.389c-0.188-0.74-0.475-1.371-0.861-1.895s-0.877-0.936-1.468-1.237
		c-0.591-0.301-1.297-0.452-2.116-0.452c-1.559,0-2.732,0.523-3.523,1.57s-1.186,2.514-1.186,4.402c0,0.887,0.094,1.697,0.281,2.432
		c0.188,0.733,0.472,1.368,0.854,1.902c0.381,0.535,0.87,0.956,1.467,1.263C274.33,555.687,275.032,555.84,275.84,555.84z"/>
	<path fill="#231F20" d="M288.357,559.048v-18.549h4.301v2.543c0.728-0.796,1.615-1.479,2.662-2.048
		c1.046-0.568,2.28-0.854,3.703-0.854c0.773,0,1.438,0.077,1.996,0.23c0.557,0.153,1.032,0.358,1.424,0.614
		c0.393,0.256,0.721,0.575,0.982,0.956s0.482,0.793,0.665,1.237c0.739-0.808,1.652-1.517,2.739-2.125
		c1.086-0.608,2.34-0.913,3.762-0.913c1.889,0,3.262,0.512,4.121,1.536c0.859,1.023,1.289,2.378,1.289,4.062v13.31h-4.301v-12.235
		c0-1.046-0.18-1.809-0.537-2.286c-0.358-0.478-1.05-0.717-2.074-0.717c-0.887,0-1.697,0.222-2.432,0.666
		c-0.732,0.443-1.51,1.023-2.328,1.74v12.832h-4.301v-12.235c0-1.046-0.18-1.809-0.537-2.286c-0.358-0.478-1.05-0.717-2.074-0.717
		c-0.863,0-1.669,0.222-2.414,0.666c-0.745,0.443-1.527,1.023-2.346,1.74v12.832H288.357z"/>
	<path fill="#231F20" d="M320.328,566.044v-25.545h4.301v2.44c0.603-0.751,1.387-1.405,2.354-1.963
		c0.967-0.557,2.149-0.836,3.55-0.836c1.046,0,2.019,0.199,2.918,0.598c0.898,0.398,1.674,0.998,2.328,1.8
		c0.654,0.803,1.166,1.804,1.536,3.004s0.555,2.602,0.555,4.206c0,1.615-0.19,3.021-0.571,4.215s-0.916,2.189-1.604,2.986
		c-0.688,0.796-1.521,1.391-2.499,1.783c-0.979,0.393-2.06,0.589-3.242,0.589c-1.014,0-1.982-0.196-2.91-0.589
		s-1.732-0.976-2.414-1.749v9.061H320.328z M328.997,555.908c1.638,0,2.812-0.501,3.523-1.502s1.066-2.542,1.066-4.624
		c0-1.979-0.392-3.47-1.177-4.471s-1.877-1.502-3.277-1.502c-0.875,0-1.717,0.239-2.525,0.717c-0.807,0.478-1.467,1.019-1.979,1.621
		v7.457c0.58,0.739,1.262,1.309,2.047,1.706C327.461,555.709,328.234,555.908,328.997,555.908z"/>
	<path fill="#231F20" d="M349.262,559.44c-1.16,0-2.278-0.183-3.354-0.546c-1.075-0.364-2.025-0.936-2.85-1.715
		c-0.825-0.779-1.488-1.78-1.988-3.004c-0.5-1.223-0.75-2.688-0.75-4.394c0-1.764,0.277-3.257,0.836-4.479
		c0.557-1.223,1.268-2.221,2.133-2.995c0.864-0.773,1.82-1.328,2.867-1.663c1.046-0.336,2.047-0.504,3.002-0.504
		c1.047,0,2.06,0.168,3.038,0.504c0.978,0.335,1.846,0.896,2.603,1.681c0.756,0.785,1.361,1.817,1.816,3.097
		c0.455,1.28,0.684,2.864,0.684,4.753v1.007h-12.68c0.092,1.684,0.598,2.909,1.52,3.677c0.922,0.769,2.07,1.152,3.447,1.152
		c1.205,0,2.197-0.193,2.977-0.58s1.521-0.916,2.228-1.587l2.27,2.235c-0.979,1.069-2.103,1.896-3.37,2.482
		C352.421,559.147,350.945,559.44,349.262,559.44z M353.356,547.974c-0.262-2.89-1.672-4.335-4.231-4.335
		c-0.535,0-1.041,0.074-1.52,0.223c-0.477,0.147-0.921,0.397-1.33,0.75c-0.41,0.354-0.754,0.803-1.033,1.349
		c-0.278,0.546-0.463,1.217-0.555,2.014H353.356z"/>
	<path fill="#231F20" d="M367.956,559.287c-1.183,0-2.147-0.111-2.892-0.333c-0.746-0.222-1.329-0.54-1.75-0.956
		c-0.421-0.415-0.708-0.943-0.861-1.587c-0.154-0.643-0.23-1.385-0.23-2.227v-10.272h-3.208v-3.413h3.208v-6.467h4.301v6.467h4.795
		v3.413h-4.795v9.197c0,1.001,0.188,1.718,0.562,2.15s1.098,0.648,2.167,0.648c0.33,0,0.669-0.025,1.016-0.077
		c0.347-0.051,0.628-0.11,0.845-0.179v3.396c-0.125,0.022-0.311,0.051-0.555,0.085c-0.245,0.034-0.512,0.062-0.803,0.086
		c-0.289,0.022-0.592,0.039-0.904,0.051S368.24,559.287,367.956,559.287z"/>
	<path fill="#231F20" d="M374.672,537.274v-3.737h4.402v3.737H374.672z M374.706,559.048v-18.549h4.335v18.549H374.706z"/>
	<path fill="#231F20" d="M390.91,559.287c-1.184,0-2.148-0.111-2.893-0.333c-0.746-0.222-1.328-0.54-1.749-0.956
		c-0.421-0.415-0.708-0.943-0.862-1.587c-0.153-0.643-0.23-1.385-0.23-2.227v-10.272h-3.207v-3.413h3.207v-6.467h4.301v6.467h4.795
		v3.413h-4.795v9.197c0,1.001,0.188,1.718,0.562,2.15c0.376,0.433,1.098,0.648,2.168,0.648c0.33,0,0.668-0.025,1.016-0.077
		c0.346-0.051,0.628-0.11,0.844-0.179v3.396c-0.125,0.022-0.311,0.051-0.555,0.085s-0.512,0.062-0.802,0.086
		c-0.29,0.022-0.592,0.039-0.904,0.051C391.492,559.281,391.193,559.287,390.91,559.287z"/>
	<path fill="#231F20" d="M397.625,537.274v-3.737h4.402v3.737H397.625z M397.66,559.048v-18.549h4.334v18.549H397.66z"/>
	<path fill="#231F20" d="M414.666,559.44c-1.115,0-2.213-0.188-3.294-0.563c-1.081-0.375-2.048-0.952-2.901-1.731
		c-0.853-0.779-1.541-1.775-2.064-2.986c-0.523-1.212-0.785-2.671-0.785-4.377c0-1.695,0.256-3.154,0.768-4.377
		c0.513-1.223,1.192-2.224,2.04-3.003c0.847-0.779,1.813-1.352,2.901-1.716c1.086-0.363,2.197-0.546,3.336-0.546
		c1.125,0,2.229,0.183,3.311,0.546c1.08,0.364,2.047,0.937,2.9,1.716s1.541,1.78,2.064,3.003s0.785,2.682,0.785,4.377
		c0,1.706-0.262,3.165-0.785,4.377c-0.523,1.211-1.211,2.207-2.064,2.986s-1.82,1.356-2.9,1.731
		C416.895,559.253,415.791,559.44,414.666,559.44z M414.666,555.84c1.569,0,2.75-0.531,3.54-1.596
		c0.79-1.063,1.187-2.551,1.187-4.462c0-0.854-0.094-1.649-0.281-2.389c-0.188-0.74-0.477-1.371-0.862-1.895
		c-0.388-0.523-0.876-0.936-1.468-1.237c-0.592-0.301-1.297-0.452-2.115-0.452c-1.559,0-2.734,0.523-3.524,1.57
		s-1.187,2.514-1.187,4.402c0,0.887,0.095,1.697,0.282,2.432c0.188,0.733,0.472,1.368,0.853,1.902
		c0.382,0.535,0.871,0.956,1.469,1.263C413.155,555.687,413.857,555.84,414.666,555.84z"/>
	<path fill="#231F20" d="M427.217,559.048v-18.549h4.301v2.97c0.352-0.398,0.75-0.797,1.193-1.195
		c0.444-0.397,0.945-0.753,1.502-1.066c0.558-0.312,1.164-0.568,1.818-0.768c0.653-0.199,1.361-0.299,2.124-0.299
		c1.706,0,3.048,0.444,4.026,1.331c0.979,0.888,1.469,2.247,1.469,4.078v13.498h-4.301v-12.27c0-1.023-0.222-1.791-0.666-2.303
		c-0.443-0.513-1.154-0.769-2.133-0.769c-0.955,0-1.834,0.217-2.637,0.648c-0.801,0.433-1.601,1.019-2.396,1.758v12.935H427.217z"/>
	<path fill="#231F20" d="M271.084,600.984v-15.136h-3.226v-3.413h3.226v-1.894c0-0.773,0.09-1.496,0.272-2.167
		c0.182-0.672,0.501-1.261,0.956-1.767c0.454-0.506,1.066-0.898,1.834-1.178c0.768-0.278,1.749-0.418,2.943-0.418
		c0.205,0,0.436,0.006,0.691,0.018c0.256,0.011,0.506,0.028,0.75,0.051c0.245,0.023,0.473,0.049,0.684,0.077
		c0.21,0.028,0.35,0.042,0.418,0.042v3.311c-0.137-0.045-0.35-0.079-0.641-0.103c-0.29-0.022-0.566-0.033-0.827-0.033
		c-0.398,0-0.766,0.033-1.101,0.102c-0.336,0.068-0.626,0.191-0.871,0.367c-0.244,0.177-0.443,0.421-0.597,0.733
		c-0.153,0.313-0.23,0.715-0.23,1.203v1.655h4.062v3.413h-4.062v15.136H271.084z"/>
	<path fill="#231F20" d="M290.223,601.377c-1.115,0-2.213-0.188-3.294-0.563c-1.081-0.375-2.048-0.952-2.901-1.731
		c-0.853-0.779-1.541-1.775-2.064-2.986c-0.523-1.212-0.785-2.671-0.785-4.377c0-1.695,0.256-3.154,0.768-4.377
		c0.513-1.223,1.192-2.224,2.04-3.003c0.847-0.779,1.813-1.352,2.901-1.716c1.086-0.363,2.197-0.546,3.336-0.546
		c1.125,0,2.229,0.183,3.311,0.546c1.08,0.364,2.047,0.937,2.9,1.716s1.541,1.78,2.064,3.003s0.785,2.682,0.785,4.377
		c0,1.706-0.262,3.165-0.785,4.377c-0.523,1.211-1.211,2.207-2.064,2.986s-1.82,1.356-2.9,1.731
		C292.451,601.189,291.348,601.377,290.223,601.377z M290.223,597.776c1.569,0,2.75-0.531,3.54-1.596
		c0.79-1.063,1.187-2.551,1.187-4.462c0-0.854-0.094-1.649-0.281-2.389c-0.188-0.74-0.477-1.371-0.862-1.895
		c-0.388-0.523-0.876-0.936-1.468-1.237c-0.592-0.301-1.297-0.452-2.115-0.452c-1.559,0-2.734,0.523-3.524,1.57
		s-1.187,2.514-1.187,4.402c0,0.887,0.095,1.697,0.282,2.432c0.188,0.733,0.472,1.368,0.853,1.902
		c0.382,0.535,0.871,0.956,1.469,1.263C288.712,597.623,289.414,597.776,290.223,597.776z"/>
	<path fill="#231F20" d="M302.74,600.984v-18.549h4.299v3.038h0.068c0.592-0.934,1.411-1.732,2.457-2.398
		c1.047-0.665,2.452-0.998,4.215-0.998h0.291l-0.137,3.942c-0.125-0.023-0.322-0.04-0.589-0.052
		c-0.267-0.011-0.458-0.017-0.571-0.017c-1.399,0-2.555,0.299-3.465,0.896c-0.91,0.598-1.666,1.396-2.27,2.397v11.74H302.74z"/>
	<path fill="#231F20" d="M332.484,601.224c-1.184,0-2.148-0.111-2.893-0.333c-0.746-0.222-1.328-0.54-1.749-0.956
		c-0.421-0.415-0.708-0.943-0.862-1.587c-0.153-0.643-0.23-1.385-0.23-2.227v-10.272h-3.207v-3.413h3.207v-6.467h4.301v6.467h4.795
		v3.413h-4.795v9.197c0,1.001,0.188,1.718,0.562,2.15c0.376,0.433,1.098,0.648,2.168,0.648c0.33,0,0.668-0.025,1.016-0.077
		c0.346-0.051,0.628-0.11,0.844-0.179v3.396c-0.125,0.022-0.311,0.051-0.555,0.085s-0.512,0.062-0.802,0.086
		c-0.29,0.022-0.592,0.039-0.904,0.051C333.066,601.218,332.768,601.224,332.484,601.224z"/>
	<path fill="#231F20" d="M343.107,601.258c-0.751,0-1.445-0.103-2.082-0.308s-1.188-0.506-1.654-0.904
		c-0.467-0.398-0.834-0.896-1.102-1.493s-0.4-1.277-0.4-2.039c0-1.001,0.222-1.923,0.665-2.765c0.444-0.842,1.155-1.581,2.134-2.218
		c0.978-0.638,2.229-1.184,3.754-1.639c1.523-0.455,3.367-0.813,5.528-1.075v-0.546c0-0.933-0.245-1.609-0.733-2.03
		c-0.49-0.421-1.258-0.632-2.305-0.632c-1.308,0-2.479,0.262-3.515,0.785s-1.945,1.098-2.729,1.724l-2.1-2.679
		c1.001-0.91,2.258-1.698,3.771-2.364c1.513-0.665,3.236-0.998,5.17-0.998c1.229,0,2.27,0.146,3.123,0.436s1.541,0.723,2.064,1.297
		s0.901,1.279,1.135,2.116c0.233,0.836,0.35,1.789,0.35,2.857v7.662c0,1.115,0.04,2.033,0.119,2.756
		c0.08,0.723,0.217,1.316,0.41,1.783h-4.334c-0.114-0.398-0.213-0.76-0.299-1.084s-0.128-0.753-0.128-1.288
		c-0.956,0.979-1.985,1.664-3.089,2.057S344.507,601.258,343.107,601.258z M344.678,597.947c1.114,0,2.104-0.193,2.969-0.58
		c0.864-0.387,1.633-0.904,2.304-1.553v-4.096c-2.583,0.353-4.539,0.851-5.87,1.493s-1.996,1.476-1.996,2.5
		c0,0.739,0.232,1.297,0.699,1.672S343.881,597.947,344.678,597.947z"/>
	<path fill="#231F20" d="M358.662,600.984v-25.869h4.335v25.869H358.662z"/>
	<path fill="#231F20" d="M375.566,601.377c-1.16,0-2.278-0.183-3.354-0.546c-1.075-0.364-2.025-0.936-2.85-1.715
		c-0.825-0.779-1.488-1.78-1.988-3.004c-0.5-1.223-0.75-2.688-0.75-4.394c0-1.764,0.277-3.257,0.836-4.479
		c0.557-1.223,1.268-2.221,2.133-2.995c0.864-0.773,1.82-1.328,2.867-1.663c1.046-0.336,2.047-0.504,3.002-0.504
		c1.047,0,2.06,0.168,3.038,0.504c0.978,0.335,1.846,0.896,2.603,1.681c0.756,0.785,1.361,1.817,1.816,3.097
		c0.455,1.28,0.684,2.864,0.684,4.753v1.007h-12.68c0.092,1.684,0.598,2.909,1.52,3.677c0.922,0.769,2.07,1.152,3.447,1.152
		c1.205,0,2.197-0.193,2.977-0.58s1.521-0.916,2.228-1.587l2.27,2.235c-0.979,1.069-2.103,1.896-3.37,2.482
		C378.726,601.084,377.25,601.377,375.566,601.377z M379.661,589.91c-0.262-2.89-1.672-4.335-4.231-4.335
		c-0.535,0-1.041,0.074-1.52,0.223c-0.477,0.147-0.921,0.397-1.33,0.75c-0.41,0.354-0.754,0.803-1.033,1.349
		c-0.278,0.546-0.463,1.217-0.555,2.014H379.661z"/>
	<path fill="#231F20" d="M387.094,600.984v-18.549h4.301v2.97c0.352-0.398,0.75-0.797,1.193-1.195
		c0.444-0.397,0.945-0.753,1.502-1.066c0.558-0.312,1.164-0.568,1.818-0.768c0.653-0.199,1.361-0.299,2.124-0.299
		c1.706,0,3.048,0.444,4.026,1.331c0.979,0.888,1.469,2.247,1.469,4.078v13.498h-4.301v-12.27c0-1.023-0.222-1.791-0.666-2.303
		c-0.443-0.513-1.154-0.769-2.133-0.769c-0.955,0-1.834,0.217-2.637,0.648c-0.801,0.433-1.601,1.019-2.396,1.758v12.935H387.094z"/>
	<path fill="#231F20" d="M415.021,601.224c-1.183,0-2.147-0.111-2.892-0.333c-0.746-0.222-1.329-0.54-1.75-0.956
		c-0.421-0.415-0.708-0.943-0.861-1.587c-0.154-0.643-0.23-1.385-0.23-2.227v-10.272h-3.208v-3.413h3.208v-6.467h4.301v6.467h4.795
		v3.413h-4.795v9.197c0,1.001,0.188,1.718,0.562,2.15s1.098,0.648,2.167,0.648c0.33,0,0.669-0.025,1.016-0.077
		c0.347-0.051,0.628-0.11,0.845-0.179v3.396c-0.125,0.022-0.311,0.051-0.555,0.085c-0.245,0.034-0.512,0.062-0.803,0.086
		c-0.289,0.022-0.592,0.039-0.904,0.051S415.305,601.224,415.021,601.224z"/>
</g>
<g>
	<path fill="#231F20" d="M1400.439,538.574c-1.661,0-3.188-0.287-4.582-0.861c-1.394-0.575-2.591-1.425-3.592-2.551
		c-1.001-1.126-1.783-2.528-2.346-4.206c-0.564-1.678-0.846-3.638-0.846-5.879c0-2.161,0.287-4.075,0.862-5.742
		c0.574-1.667,1.368-3.06,2.38-4.181c1.013-1.12,2.213-1.971,3.602-2.551c1.387-0.58,2.895-0.87,4.521-0.87
		c1.49,0,2.801,0.196,3.934,0.588c1.131,0.393,2.098,0.944,2.9,1.655c0.802,0.711,1.465,1.556,1.988,2.534s0.927,2.064,1.211,3.259
		l-4.164,1.177c-0.262-0.853-0.549-1.601-0.861-2.244s-0.702-1.18-1.168-1.613c-0.467-0.432-1.014-0.759-1.639-0.981
		c-0.626-0.222-1.371-0.333-2.235-0.333c-2.196,0-3.899,0.805-5.11,2.415c-1.212,1.61-1.818,3.894-1.818,6.851
		c0,3.095,0.617,5.458,1.852,7.09s2.949,2.449,5.146,2.449c1.672,0,3.003-0.435,3.993-1.306c0.989-0.87,1.729-2.284,2.218-4.24
		l4.163,0.938c-0.318,1.286-0.759,2.457-1.322,3.515c-0.562,1.058-1.268,1.96-2.115,2.705c-0.848,0.746-1.85,1.329-3.004,1.749
		C1403.252,538.364,1401.93,538.574,1400.439,538.574z"/>
	<path fill="#231F20" d="M1414.373,538.08V512.21h16.279v4.062h-11.91v6.928h8.635v3.874h-8.635v11.006H1414.373z"/>
	<path fill="#231F20" d="M1444.008,538.574c-1.65,0-3.186-0.293-4.607-0.878c-1.423-0.586-2.656-1.442-3.703-2.568
		c-1.047-1.126-1.875-2.528-2.483-4.206s-0.913-3.604-0.913-5.776c0-2.161,0.305-4.081,0.913-5.759
		c0.608-1.678,1.437-3.083,2.483-4.215c1.047-1.132,2.28-1.988,3.703-2.568c1.422-0.58,2.957-0.87,4.607-0.87
		c1.638,0,3.168,0.29,4.59,0.87s2.656,1.436,3.703,2.568c1.046,1.132,1.865,2.537,2.457,4.215c0.591,1.678,0.887,3.598,0.887,5.759
		c0,2.173-0.296,4.098-0.887,5.776c-0.592,1.678-1.411,3.08-2.457,4.206c-1.047,1.126-2.281,1.982-3.703,2.568
		C1447.176,538.281,1445.646,538.574,1444.008,538.574z M1444.008,534.616c1.08,0,2.066-0.208,2.96-0.623
		c0.894-0.415,1.655-1.026,2.286-1.834c0.632-0.808,1.121-1.8,1.468-2.978s0.521-2.522,0.521-4.036c0-1.513-0.174-2.858-0.521-4.036
		s-0.836-2.161-1.468-2.952c-0.631-0.791-1.393-1.391-2.286-1.8c-0.894-0.409-1.88-0.614-2.96-0.614
		c-2.208,0-3.977,0.805-5.308,2.415c-1.331,1.61-1.997,3.939-1.997,6.988c0,3.061,0.666,5.404,1.997,7.03
		C1440.031,533.802,1441.8,534.616,1444.008,534.616z"/>
	<path fill="#231F20" d="M1470.545,538.353c-0.75,0-1.444-0.103-2.082-0.307c-0.637-0.205-1.188-0.506-1.654-0.904
		c-0.467-0.398-0.834-0.896-1.102-1.493c-0.267-0.597-0.4-1.277-0.4-2.039c0-1.001,0.223-1.922,0.666-2.765
		c0.443-0.841,1.154-1.581,2.133-2.218c0.979-0.637,2.229-1.183,3.754-1.638c1.524-0.455,3.367-0.813,5.529-1.075v-0.546
		c0-0.933-0.245-1.609-0.734-2.03s-1.258-0.631-2.304-0.631c-1.308,0-2.479,0.262-3.515,0.785c-1.035,0.523-1.945,1.098-2.73,1.724
		l-2.1-2.679c1.002-0.91,2.259-1.698,3.771-2.363c1.514-0.666,3.236-0.998,5.17-0.998c1.229,0,2.27,0.145,3.123,0.435
		s1.541,0.722,2.064,1.297c0.523,0.574,0.902,1.28,1.135,2.116c0.234,0.836,0.351,1.789,0.351,2.858v7.662
		c0,1.115,0.04,2.034,0.119,2.756c0.079,0.723,0.216,1.317,0.409,1.783h-4.334c-0.113-0.398-0.213-0.759-0.299-1.083
		c-0.085-0.324-0.127-0.753-0.127-1.289c-0.956,0.979-1.986,1.664-3.09,2.056C1473.195,538.156,1471.945,538.353,1470.545,538.353z
		 M1472.115,535.042c1.115,0,2.104-0.193,2.969-0.58c0.865-0.387,1.633-0.904,2.305-1.553v-4.095
		c-2.583,0.353-4.539,0.851-5.871,1.493c-1.33,0.643-1.996,1.476-1.996,2.5c0,0.74,0.232,1.297,0.699,1.672
		S1471.318,535.042,1472.115,535.042z"/>
	<path fill="#231F20" d="M1492.006,538.472c-1.73,0-3.316-0.276-4.762-0.828s-2.588-1.26-3.43-2.125l2.355-2.611
		c0.693,0.603,1.541,1.121,2.542,1.553c1.001,0.433,2.099,0.648,3.294,0.648c1.16,0,2.066-0.162,2.721-0.486
		s0.981-0.873,0.981-1.646c0-0.375-0.11-0.691-0.333-0.947c-0.222-0.256-0.52-0.478-0.896-0.666
		c-0.376-0.188-0.813-0.344-1.313-0.469c-0.502-0.125-1.03-0.256-1.588-0.393c-0.796-0.193-1.606-0.406-2.432-0.64
		c-0.824-0.233-1.575-0.557-2.252-0.973c-0.678-0.415-1.231-0.961-1.664-1.638c-0.432-0.677-0.648-1.55-0.648-2.619
		c0-0.819,0.171-1.562,0.512-2.227c0.342-0.666,0.813-1.237,1.417-1.715c0.603-0.478,1.325-0.851,2.167-1.118
		s1.774-0.401,2.799-0.401c1.774,0,3.248,0.239,4.419,0.716c1.172,0.478,2.235,1.115,3.191,1.911l-2.048,2.782
		c-0.353-0.273-0.745-0.532-1.178-0.776c-0.432-0.245-0.881-0.461-1.348-0.648c-0.467-0.188-0.934-0.333-1.399-0.435
		c-0.467-0.103-0.91-0.154-1.331-0.154c-1.184,0-2.002,0.179-2.457,0.538s-0.683,0.805-0.683,1.339c0,0.375,0.11,0.691,0.333,0.947
		c0.222,0.256,0.512,0.478,0.87,0.666c0.358,0.188,0.782,0.344,1.271,0.469c0.49,0.125,1.019,0.25,1.588,0.375
		c0.785,0.182,1.598,0.384,2.439,0.605c0.842,0.222,1.599,0.538,2.27,0.947c0.672,0.41,1.229,0.956,1.673,1.638
		c0.443,0.683,0.665,1.564,0.665,2.645c0,0.979-0.201,1.829-0.605,2.551c-0.404,0.723-0.961,1.317-1.672,1.783
		c-0.711,0.467-1.539,0.816-2.483,1.049C1494.047,538.355,1493.052,538.472,1492.006,538.472z"/>
	<path fill="#231F20" d="M1514.295,538.353c-0.752,0-1.445-0.103-2.082-0.307c-0.638-0.205-1.189-0.506-1.655-0.904
		c-0.467-0.398-0.833-0.896-1.101-1.493s-0.401-1.277-0.401-2.039c0-1.001,0.222-1.922,0.665-2.765
		c0.444-0.841,1.155-1.581,2.134-2.218c0.978-0.637,2.229-1.183,3.754-1.638c1.524-0.455,3.367-0.813,5.528-1.075v-0.546
		c0-0.933-0.244-1.609-0.733-2.03s-1.257-0.631-2.304-0.631c-1.309,0-2.48,0.262-3.516,0.785c-1.035,0.523-1.945,1.098-2.729,1.724
		l-2.099-2.679c1-0.91,2.258-1.698,3.771-2.363s3.236-0.998,5.171-0.998c1.229,0,2.27,0.145,3.123,0.435
		c0.853,0.29,1.541,0.722,2.064,1.297c0.523,0.574,0.9,1.28,1.135,2.116c0.232,0.836,0.35,1.789,0.35,2.858v7.662
		c0,1.115,0.039,2.034,0.119,2.756c0.08,0.723,0.217,1.317,0.41,1.783h-4.335c-0.114-0.398-0.213-0.759-0.298-1.083
		c-0.086-0.324-0.129-0.753-0.129-1.289c-0.955,0.979-1.984,1.664-3.088,2.056C1516.945,538.156,1515.693,538.353,1514.295,538.353z
		 M1515.864,535.042c1.114,0,2.104-0.193,2.97-0.58c0.863-0.387,1.632-0.904,2.303-1.553v-4.095
		c-2.582,0.353-4.539,0.851-5.869,1.493c-1.332,0.643-1.997,1.476-1.997,2.5c0,0.74,0.233,1.297,0.7,1.672
		C1514.437,534.854,1515.068,535.042,1515.864,535.042z"/>
	<path fill="#231F20" d="M1396.066,580.409c-1.73,0-3.316-0.276-4.762-0.828s-2.588-1.26-3.43-2.124l2.355-2.611
		c0.693,0.604,1.541,1.121,2.542,1.553c1.001,0.433,2.099,0.648,3.294,0.648c1.16,0,2.066-0.162,2.721-0.486
		s0.981-0.873,0.981-1.646c0-0.375-0.11-0.691-0.333-0.947c-0.222-0.256-0.52-0.478-0.896-0.665s-0.813-0.344-1.313-0.47
		c-0.502-0.125-1.03-0.256-1.588-0.393c-0.796-0.192-1.606-0.406-2.432-0.64c-0.824-0.232-1.575-0.557-2.252-0.973
		c-0.678-0.415-1.231-0.961-1.664-1.638c-0.432-0.677-0.648-1.55-0.648-2.619c0-0.819,0.171-1.562,0.512-2.228
		c0.342-0.665,0.813-1.237,1.417-1.715c0.603-0.478,1.325-0.851,2.167-1.117c0.842-0.268,1.774-0.401,2.799-0.401
		c1.774,0,3.248,0.239,4.419,0.717c1.172,0.478,2.235,1.115,3.191,1.911l-2.048,2.781c-0.353-0.272-0.745-0.531-1.178-0.776
		c-0.432-0.244-0.881-0.461-1.348-0.648s-0.934-0.333-1.399-0.435c-0.467-0.103-0.91-0.154-1.331-0.154
		c-1.184,0-2.002,0.18-2.457,0.538s-0.683,0.805-0.683,1.339c0,0.376,0.11,0.691,0.333,0.947c0.222,0.256,0.512,0.478,0.87,0.666
		c0.358,0.188,0.782,0.344,1.271,0.469c0.49,0.125,1.019,0.251,1.588,0.376c0.785,0.182,1.598,0.384,2.439,0.605
		s1.599,0.537,2.27,0.947c0.672,0.409,1.229,0.955,1.673,1.638c0.443,0.683,0.665,1.564,0.665,2.646
		c0,0.979-0.201,1.828-0.605,2.551s-0.961,1.316-1.672,1.783s-1.539,0.816-2.483,1.049
		C1398.107,580.292,1397.112,580.409,1396.066,580.409z"/>
	<path fill="#231F20" d="M1413.736,580.255c-1.183,0-2.146-0.11-2.892-0.332c-0.745-0.223-1.329-0.541-1.749-0.956
		c-0.422-0.415-0.709-0.944-0.861-1.587c-0.154-0.643-0.23-1.385-0.23-2.227v-10.272h-3.209v-3.413h3.209V555h4.3v6.468h4.795v3.413
		h-4.795v9.197c0,1.001,0.188,1.718,0.563,2.15c0.375,0.432,1.098,0.648,2.166,0.648c0.33,0,0.669-0.026,1.016-0.077
		c0.348-0.051,0.629-0.111,0.845-0.179v3.396c-0.125,0.022-0.31,0.051-0.554,0.085c-0.246,0.034-0.513,0.062-0.803,0.085
		c-0.29,0.023-0.592,0.04-0.904,0.052C1414.32,580.249,1414.021,580.255,1413.736,580.255z"/>
	<path fill="#231F20" d="M1419.601,580.017v-18.549h4.3v3.037h0.068c0.592-0.933,1.41-1.731,2.457-2.397
		c1.047-0.665,2.451-0.998,4.215-0.998h0.29l-0.136,3.941c-0.126-0.022-0.322-0.039-0.59-0.051
		c-0.267-0.011-0.457-0.017-0.571-0.017c-1.399,0-2.554,0.298-3.464,0.896c-0.91,0.597-1.666,1.396-2.27,2.397v11.74H1419.601z"/>
	<path fill="#231F20" d="M1437.05,580.289c-0.751,0-1.444-0.103-2.082-0.307c-0.638-0.205-1.188-0.506-1.655-0.904
		s-0.833-0.896-1.101-1.493c-0.267-0.598-0.401-1.277-0.401-2.039c0-1.001,0.223-1.923,0.666-2.765s1.154-1.581,2.133-2.219
		c0.979-0.637,2.23-1.183,3.754-1.638c1.525-0.455,3.367-0.813,5.529-1.075v-0.546c0-0.933-0.244-1.609-0.734-2.03
		c-0.488-0.421-1.257-0.632-2.303-0.632c-1.309,0-2.48,0.262-3.516,0.785s-1.945,1.098-2.73,1.724l-2.099-2.68
		c1.001-0.91,2.259-1.697,3.771-2.363c1.514-0.665,3.236-0.998,5.171-0.998c1.229,0,2.27,0.146,3.123,0.436
		c0.853,0.29,1.541,0.722,2.064,1.297c0.523,0.574,0.901,1.279,1.135,2.115c0.233,0.837,0.351,1.789,0.351,2.858v7.662
		c0,1.115,0.039,2.033,0.119,2.756c0.079,0.723,0.216,1.316,0.409,1.783h-4.335c-0.113-0.398-0.213-0.76-0.298-1.084
		s-0.128-0.753-0.128-1.288c-0.955,0.979-1.985,1.664-3.089,2.056C1439.7,580.093,1438.449,580.289,1437.05,580.289z
		 M1438.619,576.979c1.115,0,2.105-0.192,2.97-0.58c0.864-0.387,1.632-0.904,2.304-1.553v-4.095
		c-2.582,0.353-4.539,0.851-5.87,1.493s-1.997,1.476-1.997,2.499c0,0.74,0.233,1.297,0.7,1.673
		C1437.191,576.791,1437.823,576.979,1438.619,576.979z"/>
	<path fill="#231F20" d="M1458.92,580.255c-1.184,0-2.148-0.11-2.893-0.332c-0.746-0.223-1.328-0.541-1.749-0.956
		s-0.708-0.944-0.862-1.587c-0.153-0.643-0.23-1.385-0.23-2.227v-10.272h-3.207v-3.413h3.207V555h4.301v6.468h4.795v3.413h-4.795
		v9.197c0,1.001,0.188,1.718,0.562,2.15c0.376,0.432,1.098,0.648,2.168,0.648c0.33,0,0.668-0.026,1.016-0.077
		c0.346-0.051,0.628-0.111,0.844-0.179v3.396c-0.125,0.022-0.311,0.051-0.555,0.085s-0.512,0.062-0.802,0.085
		c-0.29,0.023-0.592,0.04-0.904,0.052C1459.502,580.249,1459.203,580.255,1458.92,580.255z"/>
	<path fill="#231F20" d="M1472.684,580.409c-1.16,0-2.278-0.183-3.354-0.547c-1.075-0.363-2.025-0.936-2.85-1.715
		c-0.825-0.778-1.488-1.78-1.988-3.003s-0.75-2.688-0.75-4.394c0-1.764,0.277-3.257,0.836-4.479
		c0.557-1.223,1.268-2.222,2.133-2.995c0.864-0.773,1.82-1.328,2.867-1.664c1.046-0.335,2.047-0.503,3.002-0.503
		c1.047,0,2.06,0.168,3.038,0.503c0.978,0.336,1.846,0.896,2.603,1.682c0.756,0.784,1.361,1.817,1.816,3.097
		c0.455,1.28,0.684,2.864,0.684,4.752v1.007h-12.68c0.092,1.685,0.598,2.91,1.52,3.678s2.07,1.151,3.447,1.151
		c1.205,0,2.197-0.192,2.977-0.58c0.779-0.387,1.521-0.915,2.228-1.587l2.27,2.235c-0.979,1.069-2.103,1.897-3.37,2.483
		C1475.843,580.116,1474.367,580.409,1472.684,580.409z M1476.778,568.941c-0.262-2.889-1.672-4.334-4.231-4.334
		c-0.535,0-1.041,0.074-1.52,0.222c-0.477,0.148-0.921,0.398-1.33,0.751c-0.41,0.353-0.754,0.802-1.033,1.349
		c-0.278,0.546-0.463,1.217-0.555,2.013H1476.778z"/>
	<path fill="#231F20" d="M1490.475,587.218c-1.604,0-2.973-0.111-4.104-0.333s-2.054-0.532-2.765-0.93
		c-0.711-0.398-1.234-0.877-1.569-1.434c-0.336-0.558-0.503-1.172-0.503-1.843c0-0.934,0.267-1.727,0.801-2.381
		c0.535-0.654,1.28-1.169,2.236-1.544c-0.956-0.489-1.434-1.246-1.434-2.27c0-0.694,0.244-1.328,0.733-1.903
		c0.489-0.574,1.081-1.071,1.774-1.493c-0.955-0.603-1.684-1.356-2.184-2.261c-0.501-0.904-0.751-1.931-0.751-3.08
		c0-0.955,0.182-1.834,0.546-2.636c0.364-0.803,0.876-1.502,1.535-2.1c0.66-0.597,1.474-1.063,2.441-1.399
		c0.967-0.335,2.059-0.503,3.275-0.503c1.285,0,2.398,0.188,3.336,0.563c0.939,0.375,1.727,0.842,2.363,1.398
		c0.604-0.466,1.332-0.87,2.185-1.211c0.854-0.342,1.661-0.546,2.423-0.614v3.498c-0.42,0-0.916,0.034-1.484,0.103
		s-1.154,0.199-1.758,0.393c0.444,0.693,0.666,1.53,0.666,2.508c0,0.979-0.177,1.869-0.529,2.671s-0.861,1.496-1.527,2.082
		c-0.665,0.586-1.476,1.041-2.432,1.365c-0.955,0.324-2.036,0.486-3.242,0.486c-0.535,0-0.984-0.034-1.348-0.103
		c-0.364-0.068-0.779-0.159-1.246-0.273c-0.272,0.159-0.498,0.333-0.674,0.521s-0.264,0.407-0.264,0.657
		c0,0.375,0.15,0.64,0.451,0.793c0.302,0.154,0.862,0.265,1.682,0.333l3.293,0.205c1.365,0.091,2.531,0.253,3.498,0.486
		s1.76,0.555,2.381,0.964c0.619,0.409,1.068,0.91,1.348,1.502c0.279,0.591,0.418,1.297,0.418,2.115c0,0.956-0.233,1.789-0.699,2.5
		c-0.467,0.711-1.118,1.3-1.954,1.767c-0.836,0.466-1.843,0.815-3.021,1.049S1491.896,587.218,1490.475,587.218z M1491.14,584.111
		c1.581,0,2.827-0.193,3.737-0.58s1.365-0.916,1.365-1.587c0-0.33-0.072-0.611-0.214-0.845s-0.387-0.433-0.733-0.597
		c-0.348-0.165-0.83-0.293-1.451-0.384c-0.619-0.092-1.396-0.171-2.328-0.239l-3.209-0.205c-0.375,0-0.75-0.039-1.126-0.119
		c-0.603,0.284-1.038,0.637-1.306,1.058s-0.4,0.864-0.4,1.331c0,0.808,0.472,1.371,1.416,1.689S1489.251,584.111,1491.14,584.111z
		 M1490.576,571.382c1.195,0,2.116-0.296,2.765-0.888c0.648-0.591,0.973-1.461,0.973-2.61c0-1.16-0.319-2.045-0.956-2.653
		s-1.575-0.913-2.814-0.913c-1.184,0-2.107,0.311-2.773,0.93c-0.666,0.62-0.998,1.499-0.998,2.637c0,1.149,0.338,2.02,1.016,2.61
		C1488.463,571.086,1489.393,571.382,1490.576,571.382z"/>
	<path fill="#231F20" d="M1503.129,558.242v-3.736h4.402v3.736H1503.129z M1503.163,580.017v-18.549h4.335v18.549H1503.163z"/>
	<path fill="#231F20" d="M1519.094,580.409c-1.068,0-2.124-0.188-3.165-0.563s-1.968-0.953-2.781-1.732
		c-0.813-0.778-1.471-1.774-1.972-2.985c-0.5-1.212-0.75-2.671-0.75-4.377c0-1.764,0.268-3.257,0.802-4.479s1.234-2.222,2.099-2.995
		c0.865-0.773,1.826-1.328,2.885-1.664c1.058-0.335,2.098-0.503,3.122-0.503c1.138,0,2.134,0.146,2.986,0.436
		s1.575,0.686,2.167,1.186c0.592,0.501,1.092,1.078,1.502,1.732c0.409,0.654,0.756,1.339,1.041,2.056l-3.635,1.297
		c-0.729-2.07-2.105-3.105-4.13-3.105c-0.603,0-1.177,0.105-1.724,0.315c-0.546,0.211-1.023,0.555-1.434,1.032
		c-0.409,0.479-0.736,1.101-0.98,1.869c-0.245,0.768-0.367,1.709-0.367,2.824c0,1.979,0.385,3.495,1.152,4.547
		c0.768,1.053,1.862,1.579,3.285,1.579c0.978,0,1.816-0.211,2.516-0.632c0.7-0.421,1.307-1.285,1.818-2.594l3.566,1.297
		c-0.33,0.751-0.723,1.456-1.178,2.116s-1.002,1.234-1.639,1.724s-1.382,0.882-2.234,1.177
		C1521.193,580.261,1520.209,580.409,1519.094,580.409z"/>
	<path fill="#231F20" d="M1393.139,621.987l-6.723-18.583h4.521l4.539,13.686h0.068l4.505-13.686h4.163l-6.705,18.583H1393.139z"/>
	<path fill="#231F20" d="M1406.066,600.179v-3.736h4.402v3.736H1406.066z M1406.101,621.953v-18.549h4.335v18.549H1406.101z"/>
	<path fill="#231F20" d="M1421.196,622.346c-1.729,0-3.316-0.276-4.761-0.828c-1.445-0.552-2.588-1.26-3.43-2.124l2.354-2.611
		c0.693,0.604,1.541,1.121,2.542,1.553c1.002,0.433,2.1,0.648,3.294,0.648c1.16,0,2.067-0.162,2.722-0.486s0.98-0.873,0.98-1.646
		c0-0.375-0.11-0.691-0.332-0.947c-0.223-0.256-0.521-0.478-0.896-0.665c-0.375-0.188-0.812-0.344-1.313-0.47
		c-0.501-0.125-1.03-0.256-1.587-0.393c-0.797-0.192-1.607-0.406-2.432-0.64c-0.825-0.232-1.576-0.557-2.252-0.973
		c-0.678-0.415-1.232-0.961-1.664-1.638c-0.433-0.677-0.648-1.55-0.648-2.619c0-0.819,0.17-1.562,0.512-2.228
		c0.342-0.665,0.812-1.237,1.416-1.715s1.325-0.851,2.168-1.117c0.842-0.268,1.773-0.401,2.798-0.401
		c1.774,0,3.248,0.239,4.419,0.717c1.172,0.478,2.236,1.115,3.191,1.911l-2.047,2.781c-0.354-0.272-0.746-0.531-1.178-0.776
		c-0.433-0.244-0.882-0.461-1.348-0.648c-0.467-0.188-0.934-0.333-1.4-0.435c-0.467-0.103-0.91-0.154-1.33-0.154
		c-1.184,0-2.003,0.18-2.457,0.538c-0.455,0.358-0.684,0.805-0.684,1.339c0,0.376,0.111,0.691,0.333,0.947s0.513,0.478,0.87,0.666
		c0.359,0.188,0.782,0.344,1.271,0.469s1.018,0.251,1.587,0.376c0.785,0.182,1.599,0.384,2.44,0.605s1.598,0.537,2.27,0.947
		c0.671,0.409,1.229,0.955,1.672,1.638s0.666,1.564,0.666,2.646c0,0.979-0.202,1.828-0.605,2.551
		c-0.404,0.723-0.962,1.316-1.673,1.783s-1.538,0.816-2.483,1.049C1423.238,622.229,1422.242,622.346,1421.196,622.346z"/>
	<path fill="#231F20" d="M1431.82,600.179v-3.736h4.402v3.736H1431.82z M1431.854,621.953v-18.549h4.335v18.549H1431.854z"/>
	<path fill="#231F20" d="M1448.161,622.346c-1.115,0-2.213-0.188-3.294-0.563c-1.08-0.375-2.047-0.953-2.9-1.732
		c-0.854-0.778-1.541-1.774-2.064-2.985c-0.523-1.212-0.785-2.671-0.785-4.377c0-1.695,0.256-3.154,0.768-4.377
		s1.191-2.225,2.039-3.004s1.814-1.351,2.901-1.715c1.086-0.363,2.198-0.546,3.336-0.546c1.126,0,2.229,0.183,3.311,0.546
		c1.081,0.364,2.048,0.936,2.901,1.715c0.853,0.779,1.541,1.781,2.064,3.004c0.522,1.223,0.785,2.682,0.785,4.377
		c0,1.706-0.263,3.165-0.785,4.377c-0.523,1.211-1.212,2.207-2.064,2.985c-0.854,0.779-1.82,1.357-2.901,1.732
		S1449.287,622.346,1448.161,622.346z M1448.161,618.745c1.569,0,2.75-0.532,3.54-1.596c0.791-1.063,1.187-2.551,1.187-4.462
		c0-0.854-0.094-1.649-0.281-2.39c-0.188-0.739-0.476-1.37-0.862-1.894s-0.876-0.936-1.467-1.237
		c-0.592-0.302-1.297-0.452-2.116-0.452c-1.559,0-2.733,0.523-3.524,1.569c-0.79,1.047-1.186,2.515-1.186,4.403
		c0,0.887,0.094,1.697,0.281,2.432c0.188,0.733,0.473,1.367,0.854,1.902s0.871,0.955,1.468,1.263
		C1446.65,618.591,1447.354,618.745,1448.161,618.745z"/>
	<path fill="#231F20" d="M1460.014,621.953v-18.549h4.3v2.969c0.353-0.397,0.751-0.796,1.194-1.194
		c0.443-0.397,0.944-0.753,1.502-1.066c0.557-0.312,1.163-0.568,1.817-0.768c0.653-0.199,1.362-0.299,2.124-0.299
		c1.707,0,3.049,0.443,4.027,1.331s1.468,2.247,1.468,4.078v13.498h-4.3v-12.27c0-1.023-0.223-1.791-0.666-2.304
		c-0.443-0.512-1.154-0.768-2.133-0.768c-0.956,0-1.834,0.216-2.637,0.648c-0.802,0.433-1.602,1.019-2.397,1.758v12.935H1460.014z"
		/>
	<path fill="#231F20" d="M1484.102,622.226c-0.752,0-1.445-0.103-2.082-0.307c-0.638-0.205-1.189-0.506-1.655-0.904
		c-0.467-0.398-0.833-0.896-1.101-1.493c-0.268-0.598-0.401-1.277-0.401-2.039c0-1.001,0.222-1.923,0.665-2.765
		c0.444-0.842,1.155-1.581,2.134-2.219c0.978-0.637,2.229-1.183,3.754-1.638s3.367-0.813,5.528-1.075v-0.546
		c0-0.933-0.244-1.609-0.733-2.03s-1.257-0.632-2.304-0.632c-1.309,0-2.48,0.262-3.516,0.785s-1.945,1.098-2.729,1.724l-2.099-2.68
		c1-0.91,2.258-1.697,3.771-2.363c1.513-0.665,3.236-0.998,5.171-0.998c1.229,0,2.27,0.146,3.123,0.436
		c0.853,0.29,1.541,0.722,2.064,1.297c0.523,0.574,0.9,1.279,1.135,2.115c0.232,0.837,0.35,1.789,0.35,2.858v7.662
		c0,1.115,0.039,2.033,0.119,2.756s0.217,1.316,0.41,1.783h-4.335c-0.114-0.398-0.213-0.76-0.298-1.084
		c-0.086-0.324-0.129-0.753-0.129-1.288c-0.955,0.979-1.984,1.664-3.088,2.056C1486.752,622.029,1485.5,622.226,1484.102,622.226z
		 M1485.671,618.915c1.114,0,2.104-0.192,2.97-0.58c0.863-0.387,1.632-0.904,2.303-1.553v-4.095
		c-2.582,0.353-4.539,0.851-5.869,1.493c-1.332,0.643-1.997,1.476-1.997,2.499c0,0.74,0.233,1.297,0.7,1.673
		C1484.243,618.728,1484.875,618.915,1485.671,618.915z"/>
	<path fill="#231F20" d="M1498.77,621.953v-18.549h4.301v3.037h0.068c0.591-0.933,1.41-1.731,2.457-2.397
		c1.047-0.665,2.451-0.998,4.215-0.998h0.289l-0.136,3.941c-0.126-0.022-0.321-0.039-0.589-0.051
		c-0.268-0.011-0.458-0.017-0.572-0.017c-1.398,0-2.553,0.298-3.463,0.896c-0.91,0.597-1.667,1.396-2.27,2.397v11.74H1498.77z"/>
	<path fill="#231F20" d="M1514.12,629.154c-1.114,0-2.011-0.066-2.688-0.196c-0.677-0.131-1.249-0.254-1.715-0.367l0.973-3.464
		c0.262,0.079,0.665,0.165,1.212,0.256c0.546,0.091,1.194,0.137,1.945,0.137c0.762,0,1.365-0.162,1.809-0.486
		s0.818-0.862,1.126-1.613l0.513-1.364l-7.116-18.651h4.471l4.778,13.515h0.068l4.76-13.515h4.267l-7.901,20.579
		c-0.307,0.808-0.645,1.533-1.015,2.176s-0.811,1.186-1.322,1.63c-0.513,0.443-1.106,0.781-1.783,1.015
		S1515.03,629.154,1514.12,629.154z"/>
</g>
<g>
	<path d="M1045.788,592.438l-36.171-8.326c-0.634-4.407-1.519-8.773-2.704-13.065c2.32-1.684,3.832-4.417,3.832-7.497
		c0-5.104-4.153-9.257-9.257-9.257c-0.251,0-0.499,0.01-0.745,0.03c-17.48-37.338-55.137-61.358-96.455-61.358
		c-6.424,0-12.755,0.575-18.939,1.679l-0.593-0.391l-0.373,0.566c-24.475,4.602-46.561,17.641-62.632,37.363
		c-1.272-0.66-2.718-1.033-4.248-1.033c-5.104,0-9.257,4.153-9.257,9.257c0,2.774,1.226,5.266,3.165,6.965
		c-8.891,15.838-13.579,33.784-13.579,52.049c0,58.7,47.757,106.456,106.456,106.456c17.367,0,34.538-4.265,49.799-12.35
		c1.696,1.897,4.162,3.093,6.901,3.093c5.104,0,9.257-4.153,9.257-9.257c0-1.336-0.285-2.607-0.795-3.755
		c11.611-9.005,21.082-20.283,28.03-32.923l48.308-13.968V592.438z M997.759,572.016c1.142,0.505,2.402,0.791,3.729,0.791
		c0.37,0,0.733-0.021,1.09-0.064c0.915,3.378,1.645,6.802,2.206,10.256l-4.025-0.926c-3.376-0.777-6.785-1.421-10.213-1.953
		L997.759,572.016z M1001.488,558.922c2.553,0,4.629,2.076,4.629,4.629c0,2.552-2.076,4.629-4.629,4.629
		c-2.553,0-4.629-2.076-4.629-4.629C996.859,560.998,998.935,558.922,1001.488,558.922z M996.348,555.855
		c-2.48,1.662-4.117,4.491-4.117,7.695c0,2.016,0.655,3.878,1.753,5.4l-9.245,10.387c-3.121-0.355-6.254-0.606-9.391-0.757
		c-5.403-18.492-17.878-34.374-35.257-43.98c0.045-0.372,0.069-0.751,0.069-1.135c0-0.932-0.141-1.83-0.399-2.679l24.839-11.367
		l-1.365-2.983C977.214,526.358,988.74,539.802,996.348,555.855z M914.856,600.93l20.001,0.248
		c-4.325,2.39-7.061,6.952-7.061,11.959v8.526c0,6.095,4.958,11.053,11.053,11.053c1.691,0,3.288-0.393,4.722-1.074
		c1.088,2.732,3.234,4.926,5.93,6.081c-1.006,1.14-1.845,2.442-2.459,3.893c-1.665,3.936-1.469,8.29,0.481,12.056
		c-4.365,3.487-9.155,6.459-14.283,8.825l-1.625-1.209l-43.778-65.975l17.866-24.751l19.884,7.335l-10.453-0.121
		c-3.199,0.009-6.126,1.18-8.352,3.421c-2.225,2.241-3.418,5.214-3.358,8.371C903.543,595.86,908.564,600.851,914.856,600.93z
		 M981.306,621.74l-7.958,3.37v3.981c-0.187,0.06-0.369,0.13-0.56,0.182l-8.628,2.188c0.459-1.214,0.723-2.524,0.723-3.897v-5.653
		l17.202-7.286C982.51,617.034,982.242,619.481,981.306,621.74z M960.026,618.693v8.871c0,3.416-2.78,6.196-6.196,6.196
		c-3.181,0-5.779-2.419-6.127-5.508c1.375-1.842,2.199-4.118,2.199-6.589v-5.654l26.193-11.093c1.776,1.365,3.26,3.106,4.352,5.127
		L960.026,618.693z M945.045,612.791v8.872c0,3.416-2.78,6.196-6.196,6.196s-6.196-2.78-6.196-6.196v-8.526
		c0-3.505,2.076-6.676,5.29-8.079l8.559-3.735l19.907,0.247c1.343,0.016,2.651,0.195,3.904,0.519L945.045,612.791z M927.92,664.691
		l-0.33-0.591l-3.104,1.732c-6.395,1.952-13.172,3.017-20.198,3.017c-18.59,0-35.915-7.189-49.022-20.291
		c0.998-1.476,1.58-3.255,1.58-5.166c0-1.402-0.323-2.728-0.883-3.92l28.839-39.953l43.004,64.808l2.023-1.342l-1.03,1.383
		C928.508,664.479,928.214,664.584,927.92,664.691z M935.531,533.465c0,2.552-2.076,4.629-4.629,4.629
		c-2.553,0-4.629-2.076-4.629-4.629c0-2.552,2.076-4.629,4.629-4.629C933.456,528.836,935.531,530.913,935.531,533.465z
		 M857.956,547.77c12.298-11.043,28.542-17.776,46.333-17.776c5.883,0,11.739,0.749,17.441,2.227
		c-0.055,0.407-0.084,0.822-0.084,1.244c0,1.765,0.506,3.411,1.367,4.816l-19.09,26.447L857.956,547.77z M900.972,568.816
		l-16.004,22.172L860.3,553.811L900.972,568.816z M904.289,525.365c-16.298,0-31.374,5.304-43.618,14.26l26.793-40.652
		c1.121-0.185,2.248-0.347,3.378-0.496l-1.647,2.065l34.31,27.361C917.231,526.218,910.776,525.365,904.289,525.365z
		 M854.101,551.524l1.19,0.439l-1.42,0.942l28.061,42.289l-29.226,40.49c-1.467-0.977-3.226-1.549-5.116-1.549
		c-1.088,0-2.135,0.189-3.105,0.536c-6.302-10.666-9.623-22.808-9.623-35.25C834.861,580.861,842.196,563.993,854.101,551.524z
		 M847.589,638.764c2.553,0,4.628,2.076,4.628,4.629c0,2.552-2.076,4.629-4.628,4.629c-2.553,0-4.629-2.076-4.629-4.629
		C842.961,640.84,845.037,638.764,847.589,638.764z M911.402,673.134L873.6,694.229l-16.175-37.474
		c13.178,10.841,29.503,16.723,46.864,16.723C906.688,673.478,909.06,673.359,911.402,673.134z M940.073,578.064l-31.418-11.591
		l17.923-24.83c1.292,0.686,2.763,1.079,4.325,1.079c3.059,0,5.775-1.491,7.463-3.784c15.568,8.777,26.879,22.954,32.107,39.483
		c-0.123-0.002-0.245-0.008-0.368-0.009L940.073,578.064z M961.75,515.383l-24.61,11.262c-1.647-1.508-3.833-2.437-6.237-2.437
		c-1.206,0-2.354,0.24-3.411,0.661l-33.544-26.75c3.413-0.342,6.862-0.525,10.341-0.525
		C925.203,497.594,945.137,504.03,961.75,515.383z M880.76,500.318l-29.782,45.185l-24.234-4.762
		c0.004-0.112,0.017-0.221,0.017-0.334c0-1.897-0.574-3.663-1.556-5.133C839.601,517.532,859.076,505.419,880.76,500.318z
		 M817.504,535.779c2.553,0,4.628,2.076,4.628,4.629c0,2.552-2.076,4.629-4.628,4.629c-2.553,0-4.629-2.076-4.629-4.629
		C812.875,537.855,814.951,535.779,817.504,535.779z M815.55,549.457c0.629,0.136,1.284,0.207,1.954,0.207
		c3.263,0,6.131-1.701,7.78-4.259l23.833,4.683c-11.733,13.108-18.885,30.398-18.885,49.333c0,11.54,2.684,22.836,7.804,33.069
		l-35.115-23.547c-0.292-3.137-0.46-6.31-0.46-9.522C802.461,581.88,806.981,564.648,815.55,549.457z M803.711,615.321l35.626,23.89
		c-0.64,1.257-1.004,2.676-1.004,4.181c0,5.104,4.153,9.257,9.257,9.257c0.907,0,1.777-0.145,2.606-0.389l18.341,42.493
		C834.762,682.045,809.47,651.891,803.711,615.321z M904.289,701.249c-9.286,0-18.275-1.273-26.828-3.613l49.921-27.858
		c1.696-0.559,3.36-1.189,5-1.865l20.4,15.184c-0.667,1.278-1.05,2.727-1.05,4.266c0,0.705,0.079,1.392,0.229,2.052
		C937.355,697.163,920.917,701.249,904.289,701.249z M960.988,691.992c-2.553,0-4.629-2.076-4.629-4.629
		c0-2.552,2.076-4.629,4.629-4.629s4.629,2.076,4.629,4.629C965.617,689.916,963.541,691.992,960.988,691.992z M966.572,679.984
		c-1.553-1.177-3.488-1.878-5.583-1.878c-1.794,0-3.465,0.521-4.884,1.408l-18.677-13.901c4.646-2.339,9.02-5.143,13.046-8.367
		l41.085-5.248C985.145,662.609,976.757,672.109,966.572,679.984z M1040.931,633.067l-47.7,13.821l-41.035,5.241l-0.17-0.296
		c-1.478-2.565-1.663-5.6-0.51-8.326s3.459-4.707,6.328-5.435l16.174-4.102c4.662-1.259,8.523-4.276,10.874-8.493
		c2.352-4.217,2.886-9.087,1.508-13.714c-2.649-8.888-10.658-14.936-19.932-15.051l-51.553-0.64
		c-3.652-0.045-6.567-2.942-6.635-6.596c-0.034-1.832,0.657-3.556,1.948-4.857c1.274-1.283,2.965-1.987,4.768-1.987
		c0.026,0,0.053,0.001,0.079,0.001l54.97,0.636c9.959,0.115,19.925,1.306,29.621,3.539l41.262,9.496V633.067z"/>
	<circle fill="#008FD3" cx="800.695" cy="610.375" r="10.163"/>
	<circle fill="#008FD3" cx="883.827" cy="596.789" r="10.163"/>
	<circle fill="#008FD3" cx="852.11" cy="548.2" r="10.163"/>
	<circle fill="#008FD3" cx="929.829" cy="662.985" r="10.163"/>
	<circle opacity="0.4" fill="#F0AB00" cx="800.695" cy="610.375" r="10.163"/>
	<circle fill="#008FD3" cx="872.436" cy="697.66" r="10.163"/>
	<circle opacity="0.7" fill="#F0AB00" cx="883.827" cy="596.789" r="10.163"/>
	<circle fill="#F0AB00" cx="886.784" cy="495.59" r="10.163"/>
	<circle opacity="0.7" fill="#F0AB00" cx="852.11" cy="548.2" r="10.163"/>
	<circle opacity="0.4" fill="#F0AB00" cx="929.829" cy="662.985" r="10.163"/>
	<circle fill="#F0AB00" cx="966.895" cy="514.721" r="10.163"/>
	<g>
		<polygon fill="#008FD3" points="1045.708,592.498 1046.009,592.498 1046.588,592.498 1058.042,592.498 1058.621,592.498 
			1059.128,592.498 1059.128,636.768 1058.62,636.768 1058.041,636.768 1046.589,636.768 1046.01,636.768 1045.708,636.768 		"/>
		<rect x="1045.708" y="592.498" fill="#F0AB00" width="13.42" height="11.066"/>
		<rect x="1045.708" y="603.564" opacity="0.7" fill="#F0AB00" width="13.42" height="11.066"/>
		<rect x="1045.708" y="614.633" opacity="0.4" fill="#F0AB00" width="13.42" height="11.066"/>
	</g>
</g>
<path opacity="0.4" fill="#F0AB00" d="M906.614,215.464c-0.154-0.238-0.315-0.469-0.458-0.716c-0.416-0.717-0.786-1.472-1.101-2.264
	c-0.179-0.449-0.33-0.902-0.468-1.357c-0.032-0.107-0.064-0.213-0.094-0.319c-0.26-0.917-0.439-1.841-0.541-2.765
	c-0.01-0.093-0.021-0.185-0.029-0.278c-0.044-0.468-0.073-0.936-0.079-1.403l-8.407-0.111c0,0.001,0,0.001,0,0.002
	c0.001,0.307,0.012,0.615,0.024,0.923c0.005,0.136,0.01,0.271,0.018,0.407c0.016,0.287,0.036,0.575,0.062,0.862
	c0.015,0.164,0.034,0.329,0.052,0.493c0.029,0.271,0.058,0.542,0.096,0.812c0.057,0.401,0.123,0.802,0.2,1.202
	c0.037,0.191,0.082,0.381,0.123,0.572c0.059,0.274,0.12,0.548,0.188,0.821c0.046,0.184,0.096,0.367,0.146,0.55
	c0.082,0.298,0.17,0.596,0.263,0.893c0.048,0.153,0.095,0.307,0.146,0.46c0.151,0.45,0.31,0.898,0.488,1.344
	c0.471,1.182,1.021,2.309,1.641,3.378c0.181,0.312,0.387,0.602,0.579,0.904L906.614,215.464z"/>
<g>
	<g>
		<g>
			
				<circle fill-rule="evenodd" clip-rule="evenodd" fill="#FFFFFF" stroke="#008FD3" stroke-width="8.1" stroke-miterlimit="10" cx="917.066" cy="255.247" r="123.75"/>
			<path d="M981.367,217.659c-1.763-9.973-6.151-18.192-13.746-25.787c-9.536-9.537-22.235-14.789-35.758-14.789
				c-13.522,0-26.221,5.252-35.757,14.789c-4.935,4.935-8.775,9.525-11.313,15.608c-7.279,0.492-14.089,3.584-19.288,8.783
				c-4.286,4.286-7.13,9.627-8.285,15.529c-16.652,0.03-30.189,13.586-30.189,30.245c0,15.547,13.292,30.245,27.35,30.245h26.132
				c2.06,4.044,4.71,7.738,7.83,10.975c0.854,0.887,1.743,1.739,2.666,2.555c3.918,3.461,8.436,6.257,13.374,8.214
				c4.554,1.805,9.464,2.895,14.596,3.13c0.693,0.032,1.388,0.054,2.089,0.054c0.007,0,0.014,0,0.021,0c0.007,0,0.015,0,0.022,0
				c0.491,0,0.98-0.01,1.468-0.026c0.279-0.009,0.557-0.025,0.835-0.039c10.072-0.51,19.287-4.306,26.595-10.34
				c0.965-0.797,1.896-1.634,2.792-2.507c3.572-3.478,6.581-7.532,8.865-12.015h7.101c21.16,0,38.374-17.215,38.374-38.374
				C1007.143,237.441,996.832,223.012,981.367,217.659z M906.131,310.938c-3.276-1.255-6.359-2.899-9.184-4.892
				c-1.408-0.993-2.756-2.064-4.029-3.219c-0.874-0.792-1.703-1.632-2.508-2.494c-2.273-2.436-4.276-5.128-5.926-8.05
				c-0.659-1.167-1.262-2.368-1.809-3.6c-2.012-4.533-3.255-9.481-3.538-14.683c-0.042-0.763-0.066-1.531-0.066-2.304
				c0-0.4,0.019-0.795,0.03-1.193c0.308-10.956,4.835-20.869,12.001-28.187c0.822-0.839,1.676-1.645,2.565-2.413
				c1.107-0.956,2.264-1.854,3.466-2.692c2.896-2.019,6.053-3.686,9.415-4.931c3.906-1.446,8.081-2.334,12.431-2.55v9.284
				c-0.961,0.047-1.933,0.137-2.955,0.277l-1.382,0.188v4.335c-1.031,0.201-2.019,0.462-3.071,0.813l-2.188-3.762l-1.284,0.519
				c-2.827,1.143-5.478,2.671-7.881,4.541l-1.099,0.854l2.176,3.776c-0.757,0.681-1.481,1.404-2.162,2.161l-3.788-2.186l-0.854,1.09
				c-1.888,2.403-3.429,5.045-4.58,7.851l-0.524,1.275l3.821,2.274c-0.352,1.061-0.616,2.064-0.819,3.12h-4.417l-0.196,1.37
				c-0.217,1.51-0.327,3.042-0.327,4.554c0,1.359,0.089,2.67,0.288,4.249l0.175,1.399h4.509c0.22,1.042,0.488,2.064,0.79,3.016
				l-3.909,2.252l0.516,1.288c1.131,2.82,2.651,5.474,4.516,7.886l0.853,1.106l3.945-2.28c0.68,0.756,1.404,1.478,2.159,2.159
				l-2.287,3.96l1.091,0.856c2.402,1.886,5.044,3.426,7.853,4.578l1.284,0.525l2.336-3.992c1.053,0.351,2.041,0.613,3.074,0.814
				v4.611l1.381,0.19c1.017,0.139,1.991,0.214,2.956,0.26v8.703C914.473,313.417,910.156,312.479,906.131,310.938z M922.579,313.646
				v-8.728v-3.211v-9.283c5.405,0.247,10.411,1.369,14.673,3.126c0.218,0.09,0.443,0.173,0.657,0.267
				c-0.818,2.034-1.74,3.937-2.747,5.703C931.802,307.413,927.46,311.708,922.579,313.646z M936.564,291.489
				c-4.21-1.502-8.945-2.448-13.984-2.668v-9.265v-3.374v-2.485h2.04h3.031h2.315h2.543h9.747c-0.127,4.831-0.738,9.45-1.739,13.742
				c-0.405,1.737-0.868,3.426-1.399,5.045C938.294,292.127,937.436,291.801,936.564,291.489z M928.896,270.098h-2.737h-3.58v-7.629
				v-1.887v-3.605v-3.55v-0.388c0.786-0.034,1.562-0.089,2.333-0.157c1.258-0.112,2.493-0.272,3.703-0.472
				c2.528-0.417,4.939-1.025,7.211-1.787c0.954-0.32,1.891-0.66,2.79-1.036c0.765,2.132,1.417,4.39,1.956,6.741
				c0.985,4.304,1.577,8.934,1.688,13.771H928.896z M922.579,249.437v-7.174v-3.211v-9.16c5.047,2.004,9.517,6.53,12.921,12.739
				c0.641,1.169,1.249,2.391,1.81,3.675c-0.346,0.143-0.705,0.275-1.061,0.41c-1.708,0.646-3.525,1.191-5.433,1.622
				c-0.144,0.033-0.283,0.071-0.428,0.102C927.914,248.97,925.296,249.313,922.579,249.437z M941.823,248.072
				c3.408-1.819,6.272-4.059,8.406-6.598c6.27,6.053,10.675,14.028,12.237,22.973c0.141,0.807,0.25,1.625,0.344,2.447
				c0.067,0.592,0.129,1.185,0.172,1.784c0.003,0.039,0.009,0.077,0.011,0.116c0.03,0.433,0.048,0.869,0.066,1.305h-9.669h-3.201
				h-4.33c-0.006-0.256-0.024-0.508-0.032-0.763c-0.094-2.911-0.352-5.752-0.767-8.499c-0.295-1.954-0.668-3.858-1.112-5.708
				c-0.261-1.086-0.548-2.149-0.857-3.194C942.702,250.615,942.286,249.32,941.823,248.072z M940.486,244.791
				c-2.58-5.792-5.959-10.613-9.888-14.027c6.333,1.471,12.115,4.385,16.994,8.367C945.825,241.288,943.404,243.208,940.486,244.791
				z M921.09,229.677L921.09,229.677c0.499,0,0.995,0.016,1.49,0.034C922.084,229.694,921.589,229.677,921.09,229.677z
				 M916.462,296.943c-1.755-0.246-3.214-0.629-5.036-1.322l-1.264-0.481l-2.27,3.879c-1.649-0.768-3.229-1.69-4.717-2.752
				l2.227-3.858l-1.053-0.86c-1.326-1.083-2.547-2.305-3.631-3.63l-0.86-1.052l-3.823,2.209c-1.045-1.49-1.952-3.075-2.707-4.729
				l3.802-2.19l-0.483-1.273c-0.557-1.468-1.028-3.257-1.328-5.039l-0.226-1.332h-4.337c-0.076-0.856-0.112-1.651-0.112-2.452
				c0-0.899,0.044-1.814,0.131-2.728h4.359l0.191-1.376c0.249-1.769,0.644-3.286,1.322-5.071l0.479-1.254l-3.707-2.208
				c0.769-1.651,1.694-3.235,2.758-4.727l3.684,2.127l0.86-1.052c1.081-1.324,2.303-2.545,3.633-3.631l1.052-0.859l-2.111-3.662
				c1.49-1.051,3.077-1.965,4.736-2.728l2.127,3.658l1.268-0.481c1.825-0.693,3.284-1.077,5.036-1.322l1.376-0.193v-4.259
				c0.386-0.036,0.764-0.061,1.141-0.082v5.068v1.988v0.202v1.839v1.76v1.199v2.436v5.761v25.14v1.178v1.493v1.351v0.754v1.917v1.35
				v2.672v3.427c-0.376-0.021-0.754-0.045-1.141-0.081v-4.535L916.462,296.943z M921.09,313.715L921.09,313.715
				c0.501,0,0.993-0.034,1.49-0.051C922.083,313.681,921.591,313.715,921.09,313.715z M930.842,312.547
				c4.002-3.558,7.419-8.583,9.987-14.609c0.078-0.184,0.163-0.36,0.24-0.545c0.088,0.05,0.171,0.104,0.259,0.155
				c2.938,1.718,5.325,3.787,6.97,6.101C943.337,307.886,937.388,310.983,930.842,312.547z M963.044,274
				c-0.024,0.44-0.061,0.876-0.101,1.312c-0.054,0.59-0.117,1.177-0.194,1.76c-0.011,0.083-0.018,0.168-0.03,0.251
				c-0.092,0.674-0.203,1.341-0.326,2.004c-0.106,0.572-0.221,1.142-0.35,1.706c-0.019,0.085-0.034,0.171-0.053,0.255
				c-0.143,0.608-0.302,1.21-0.473,1.807c-0.157,0.546-0.323,1.089-0.5,1.626c-0.444,1.35-0.949,2.673-1.52,3.96
				c-0.547,1.232-1.149,2.433-1.807,3.6c-1.855,3.287-4.146,6.295-6.782,8.959c-2.089-2.763-5.023-5.202-8.58-7.176
				c0.259-0.757,0.505-1.526,0.737-2.308c0.311-1.043,0.589-2.115,0.852-3.199c0.443-1.829,0.813-3.714,1.11-5.646
				c0.418-2.715,0.687-5.521,0.792-8.398c0.01-0.273,0.029-0.543,0.036-0.817h4.354h3.204h9.64
				C963.05,273.799,963.049,273.9,963.044,274z M963.074,272.919c0,0.004,0,0.008,0,0.012v-2.527c0.001,0.034,0.004,0.067,0.005,0.1
				c0.006,0.209,0.01,0.419,0.016,0.628c0.006,0.188,0.015,0.376,0.015,0.565C963.11,272.107,963.09,272.512,963.074,272.919z
				 M968.768,288.683h-5.456c1.848-4.576,2.977-9.516,3.236-14.683l0.028-3.497c-0.326-12.564-5.772-23.87-14.316-31.922
				c-0.884-0.833-1.794-1.636-2.742-2.397c-7.335-5.887-16.526-9.546-26.544-9.957c-0.626-0.026-1.252-0.047-1.884-0.047
				c-5.742,0-11.232,1.081-16.294,3.03c-4.866,1.874-9.33,4.559-13.227,7.892c-0.913,0.781-1.796,1.595-2.645,2.445
				c-7.969,7.979-13.006,18.888-13.319,30.956l0.028,3.497c0.259,5.167,1.388,10.107,3.236,14.683h-24.487
				c-12.208,0-23.75-12.949-23.75-26.645c0-14.692,11.953-26.645,26.645-26.645c0.45,0,0.905,0.013,1.364,0.037l1.645,0.087
				l0.232-1.631c0.817-5.752,3.422-10.965,7.534-15.076c4.829-4.829,11.234-7.595,18.036-7.788l1.204-0.034l0.428-1.125
				c2.297-6.042,6.031-10.544,10.932-15.445c8.856-8.857,20.651-13.734,33.211-13.734c12.561,0,24.356,4.877,33.213,13.734
				c7.303,7.304,11.407,15.212,12.916,24.887l0.172,1.104l1.066,0.335c14.542,4.577,24.313,17.905,24.313,33.165
				C1003.543,273.083,987.943,288.683,968.768,288.683z"/>
		</g>
		<path fill="#008FD3" d="M908.197,279.321c-0.374-0.645-0.707-1.325-0.991-2.038c-0.161-0.404-0.297-0.812-0.421-1.221
			c-0.029-0.096-0.058-0.191-0.085-0.287c-0.234-0.826-0.395-1.657-0.487-2.489c-0.009-0.084-0.018-0.167-0.026-0.25
			c-0.04-0.422-0.066-0.843-0.071-1.263c-0.006-0.591,0.02-1.179,0.081-1.762c0.055-0.532,0.147-1.057,0.256-1.578
			c0.017-0.081,0.033-0.162,0.051-0.243c0.117-0.517,0.261-1.026,0.43-1.526c0.015-0.044,0.031-0.088,0.047-0.132
			c0.372-1.07,0.861-2.097,1.459-3.061c0.247-0.399,0.506-0.79,0.789-1.166c1.638-2.17,3.871-3.933,6.581-5.012
			c0.002-0.001,0.004-0.001,0.007-0.002l-2.799-7.028c-0.002,0.001-0.004,0.002-0.007,0.003c-4.04,1.609-7.371,4.238-9.815,7.474
			c-0.394,0.522-0.757,1.065-1.104,1.617c-0.666,1.058-1.24,2.169-1.726,3.318c-0.033,0.078-0.069,0.154-0.1,0.231
			c-0.117,0.284-0.222,0.573-0.327,0.861c-0.063,0.174-0.127,0.347-0.186,0.522c-0.085,0.251-0.164,0.503-0.24,0.757
			c-0.068,0.228-0.132,0.456-0.193,0.686c-0.059,0.221-0.117,0.443-0.169,0.666c-0.067,0.289-0.126,0.579-0.182,0.871
			c-0.034,0.176-0.072,0.352-0.102,0.529c-0.08,0.476-0.149,0.955-0.2,1.437c-0.042,0.406-0.07,0.815-0.091,1.224
			c-0.019,0.4-0.027,0.802-0.026,1.204c0,0.004,0,0.009,0,0.014c0,0.001,0,0.001,0,0.002c0.001,0.277,0.011,0.554,0.021,0.831
			c0.005,0.122,0.009,0.244,0.016,0.366c0.014,0.259,0.033,0.517,0.056,0.776c0.013,0.148,0.03,0.296,0.047,0.444
			c0.026,0.244,0.052,0.487,0.087,0.731c0.052,0.361,0.111,0.721,0.18,1.082c0.033,0.172,0.074,0.343,0.111,0.515
			c0.053,0.247,0.108,0.493,0.17,0.739c0.041,0.165,0.086,0.33,0.131,0.495c0.074,0.268,0.153,0.536,0.237,0.804
			c0.044,0.138,0.085,0.276,0.131,0.414c0.136,0.405,0.279,0.808,0.439,1.21c0.424,1.064,0.919,2.078,1.477,3.04
			c0.163,0.281,0.348,0.542,0.521,0.814v0c2.751,4.314,6.791,7.496,11.406,9.195l2.612-7.1
			C912.903,284.82,910.038,282.497,908.197,279.321z"/>
		<path fill="#F0AB00" d="M908.441,263.47c0.247-0.399,0.506-0.79,0.789-1.166c1.638-2.17,3.871-3.933,6.581-5.012
			c0.002-0.001,0.004-0.001,0.007-0.002l-2.799-7.028c-0.002,0.001-0.004,0.002-0.007,0.003c-4.04,1.609-7.371,4.238-9.815,7.474
			c-0.394,0.522-0.757,1.065-1.104,1.617L908.441,263.47z"/>
		<path opacity="0.7" fill="#F0AB00" d="M906.116,271.772c-0.006-0.591,0.02-1.179,0.081-1.762c0.055-0.532,0.147-1.057,0.256-1.578
			c0.017-0.081,0.033-0.162,0.051-0.243c0.117-0.517,0.261-1.026,0.43-1.526c0.015-0.044,0.031-0.088,0.047-0.132
			c0.372-1.07,0.861-2.097,1.459-3.061l-6.347-4.116c-0.666,1.058-1.24,2.169-1.726,3.318c-0.033,0.078-0.069,0.154-0.1,0.231
			c-0.117,0.284-0.222,0.573-0.327,0.861c-0.063,0.174-0.127,0.347-0.186,0.522c-0.085,0.251-0.164,0.503-0.24,0.757
			c-0.068,0.228-0.132,0.456-0.193,0.686c-0.059,0.221-0.117,0.443-0.169,0.666c-0.067,0.289-0.126,0.579-0.182,0.871
			c-0.034,0.176-0.072,0.352-0.102,0.529c-0.08,0.476-0.149,0.955-0.2,1.437c-0.042,0.406-0.07,0.815-0.091,1.224
			c-0.019,0.4-0.027,0.802-0.026,1.204c0,0.004,0,0.009,0,0.014L906.116,271.772z"/>
	</g>
	<g>
		<g>
			
				<circle fill-rule="evenodd" clip-rule="evenodd" fill="#FFFFFF" stroke="#008FD3" stroke-width="8.1" stroke-miterlimit="10" cx="595.766" cy="569.347" r="123.75"/>
		</g>
		<g>
			<path d="M645.552,536.021l-0.801-3.191c3.25-2.454,5.283-7.672,6.329-13.697c0,0,0,0,0,0.001
				c8.365-6.56,7.931-17.856,7.488-21.766l-0.162-1.425l-7.343,1.806v0c-0.141-0.768-0.295-1.507-0.466-2.202l-0.301-1.225
				l-33.922,8.343l0.301,1.225c0.171,0.696,0.375,1.421,0.607,2.168l-7.342,1.806l0.518,1.338
				c1.284,3.317,5.375,11.977,13.87,15.037l-3.298,4.984l2.104,1.392l3.594-5.433c0.055-0.083,0.123-0.152,0.185-0.228
				c0.04-0.048,0.076-0.1,0.118-0.145h0c0.073-0.078,0.153-0.146,0.233-0.215c0.049-0.042,0.097-0.084,0.149-0.123
				c0.073-0.054,0.147-0.104,0.225-0.151c0.079-0.048,0.16-0.09,0.243-0.131c0.063-0.03,0.124-0.063,0.189-0.088
				c0.157-0.062,0.318-0.115,0.488-0.15c0.196-0.04,0.392-0.059,0.588-0.059c0.113,0,0.226,0.011,0.337,0.025
				c0.44,0.052,0.863,0.201,1.241,0.451l1.379,0.912l1.722,1.14c1.186,0.785,1.596,2.3,1.043,3.56
				c-0.062,0.149-0.136,0.296-0.229,0.436l-3.594,5.432l2.104,1.392l2.756-4.166c1.091,0.573,2.181,0.964,3.257,1.141l0.799,3.181
				l-7.999,1.967l1.573,6.399l21.545-5.299l-1.573-6.399L645.552,536.021z M651.45,500.251l4.74-1.166
				c0.286,4.244-0.11,11.097-4.57,16.103c0.515-5.079,0.417-10.403-0.169-14.94C651.45,500.249,651.45,500.25,651.45,500.251z
				 M613.361,509.619l4.739-1.166c1.586,4.291,3.972,9.053,6.785,13.313C618.609,519.401,615.077,513.512,613.361,509.619z
				 M637.207,530.939c0,0,0,0.001-0.001,0.001c0.959-2.251,0.28-4.917-1.713-6.423c-0.091-0.069-0.179-0.139-0.275-0.203
				l-2.452-1.622l-0.649-0.43c-1.2-0.794-2.641-1.072-4.061-0.784c-0.106,0.022-0.209,0.052-0.312,0.08
				c-0.533,0.141-1.028,0.366-1.483,0.652c-0.054,0.034-0.106,0.072-0.159,0.107c0.051-0.034,0.095-0.078,0.147-0.11
				c0.458-0.288,0.961-0.506,1.496-0.648c-3.631-5.216-6.754-11.63-8.295-17.053l28.977-7.126c1.256,6.023,1.392,13.97,0.321,20.664
				c-1.254,7.838-3.898,12.806-7.251,13.631C640.228,531.985,638.777,531.725,637.207,530.939z M643.08,536.629l-0.69,0.17
				l-0.642-2.611c0.116-0.022,0.234-0.035,0.35-0.064c0.116-0.029,0.226-0.074,0.339-0.108L643.08,536.629z M635.384,542.71
				l-0.368-1.499l16.644-4.093l0.368,1.499L635.384,542.71z"/>
			<path d="M524.241,535.746l-3.603-5.445c-0.423-0.638-0.57-1.408-0.416-2.166s0.591-1.408,1.23-1.831l3.101-2.052
				c0.474-0.314,1.019-0.476,1.578-0.476c0.195,0,0.391,0.02,0.587,0.059c0.758,0.154,1.408,0.591,1.831,1.23l3.603,5.446
				l2.104-1.392l-3.603-5.445c-0.794-1.201-2.013-2.021-3.431-2.31c-1.419-0.288-2.861-0.01-4.061,0.784l-3.101,2.052
				c-2.487,1.645-3.171,5.006-1.526,7.493l3.603,5.445L524.241,535.746z"/>
			<path d="M555.504,559.467h0.452l1.994,3.014c0.258-1.592,0.205-3.227-0.226-4.789c-0.331-1.202-0.625-2.464-0.278-3.523
				c0.402-1.224,1.678-2.116,3.902-2.729l2.719-0.749c0.075,0.753,0.211,1.51,0.419,2.264l4.32,15.69l-5.733,1.578l1.465,2.214
				l4.938-1.36l0.729,2.646h2.618l-5.903-21.439c-1.621-5.888,1.849-11.996,7.737-13.617c5.885-1.621,11.996,1.851,13.616,7.738
				l1.774,6.443l-2.527,0.696l0.265,1.174c0.079,0.35,1.85,8.607-5.598,10.796l-1.169,0.344l2.015,7.866h2.605l-1.586-6.188
				c5.969-2.403,6.862-8.399,6.398-12.181l2.699-0.743l-2.443-8.875c-1.991-7.229-9.49-11.489-16.72-9.5
				c-5.593,1.54-9.408,6.38-9.926,11.84l-3.382,0.931c-3.059,0.842-4.953,2.314-5.629,4.375c-0.566,1.726-0.172,3.475,0.242,4.979
				C555.391,558.724,555.455,559.094,555.504,559.467z"/>
			<path fill="#008FD3" d="M560.926,616.934l-11.986,31.54c0,0.29,0.03,0.573,0.086,0.847h58.105
				c0.056-0.274,0.086-0.557,0.086-0.847l-11.986-31.54l6.921-30.531l32.056-48.449l-14.467-9.572l-30,45.343h-24.352l-30-45.343
				l-14.467,9.572l33.619,50.812L560.926,616.934z M569.312,585.779c5.627,0,8.252,4.501,8.252,4.501s2.626-4.501,8.253-4.501
				c5.627,0,8.252,4.724,8.252,8.628c0,3.376-3.039,6.578-4.855,8.394c-1.816,1.816-11.65,11.487-11.65,11.487
				s-9.834-9.672-11.65-11.487c-1.816-1.816-4.855-5.018-4.855-8.394C561.06,590.502,563.685,585.779,569.312,585.779z"/>
			<g>
				<polygon fill="#F0AB00" points="619.741,528.382 599.174,559.467 619.974,559.467 634.208,537.953 				"/>
				<polygon fill="#F0AB00" points="520.922,537.953 535.156,559.467 555.955,559.467 535.388,528.382 				"/>
			</g>
			<path opacity="0.7" fill="#F0AB00" d="M565.389,573.725l-9.433-14.258h-20.799l19.385,29.299l0.405,1.787h6.954
				c1.175-2.609,3.604-4.774,7.412-4.774c5.627,0,8.252,4.501,8.252,4.501s2.626-4.501,8.253-4.501c3.808,0,6.237,2.165,7.412,4.774
				h7.982l0.941-4.15l17.821-26.935h-20.799l-9.433,14.258H565.389z"/>
			<path opacity="0.4" fill="#F0AB00" d="M601.211,590.552h-7.982c0.561,1.246,0.84,2.592,0.84,3.854
				c0,3.376-3.039,6.578-4.855,8.394c-1.816,1.816-11.65,11.487-11.65,11.487s-9.834-9.672-11.65-11.487
				c-1.816-1.816-4.855-5.018-4.855-8.394c0-1.262,0.279-2.608,0.84-3.854h-6.954l5.98,26.381l-1.788,4.704h37.88l-1.788-4.704
				L601.211,590.552z"/>
		</g>
	</g>
	<g>
		<g>
			
				<circle fill-rule="evenodd" clip-rule="evenodd" fill="#FFFFFF" stroke="#008FD3" stroke-width="8.1" stroke-miterlimit="10" cx="917.066" cy="888.847" r="123.75"/>
		</g>
		<g>
			<path fill="#008FD3" d="M893.01,916.303c-4.408-0.78-7.61-4.385-8.068-8.62c-0.001-0.02-0.004-0.045-0.006-0.066
				c-0.001-0.006,0.007-0.014,0.008-0.02c-0.009-0.129-0.02-0.258-0.02-0.389c0-2.845,2.262-5.155,5.084-5.245h-0.032
				c-3.515,0-6.367-2.85-6.366-6.367c0-3.516,2.85-6.367,6.365-6.365c0.005-0.002,0.012-0.003,0.012-0.003l-1.267-0.005
				c-3.515,0.003-6.366-2.849-6.365-6.365c0-3.516,2.85-6.368,6.366-6.368h-1.257c-3.515,0.002-6.366-2.85-6.365-6.365
				c0-3.516,2.851-6.368,6.366-6.368l21.27-0.007l-7.265-9.819c-0.72-0.856-1.249-1.806-1.618-2.797l-2.486-6.787
				c-0.871-2.396-0.459-4.911,0.753-7.072c-7.159-7.619-13.315-12.253-13.93-12.711l-3.128-2.318l-3.127,2.318
				c-1.539,1.143-37.634,28.323-37.634,63.06s36.095,61.911,37.634,63.054l3.127,2.317l3.128-2.317
				c1.015-0.754,17.082-12.851,27.889-30.977L893.01,916.303z"/>
			<path fill="#008FD3" d="M877.937,950.678l3.127,2.317l3.128-2.317c1.005-0.743,16.72-12.582,27.518-30.363h-61.297
				C861.216,938.096,876.931,949.935,877.937,950.678z"/>
			<path opacity="0.4" fill="#F0AB00" d="M893.01,916.303c-4.408-0.78-7.61-4.385-8.068-8.62c-0.001-0.02-0.004-0.045-0.006-0.066
				c-0.001-0.006,0.007-0.014,0.008-0.02c-0.009-0.129-0.02-0.258-0.02-0.389c0-2.845,2.262-5.155,5.084-5.245h-0.032
				c-3.515,0-6.367-2.85-6.366-6.367c0-3.516,2.85-6.367,6.365-6.365c0.005-0.002,0.012-0.003,0.012-0.003l-1.267-0.005
				c-1.613,0.001-3.082-0.604-4.205-1.594h-44.213c0,12.065,4.363,23.216,10.11,32.686h61.297c0.124-0.203,0.242-0.411,0.364-0.615
				L893.01,916.303z"/>
			<path opacity="0.7" fill="#F0AB00" d="M882.355,882.858c0-3.516,2.85-6.368,6.366-6.368h-1.257
				c-3.515,0.002-6.366-2.85-6.365-6.365c0-3.516,2.851-6.368,6.366-6.368l21.27-0.007l-6.52-8.812h-51.804
				c-5.747,9.47-10.11,20.622-10.11,32.686h44.208C883.191,886.458,882.355,884.757,882.355,882.858z"/>
			<path fill="#F0AB00" d="M901.472,853.932c-0.72-0.856-1.249-1.806-1.618-2.797l-2.486-6.787c-0.871-2.395-0.46-4.909,0.751-7.068
				c-7.158-7.621-13.312-12.259-13.928-12.715l-3.128-2.318l-3.127,2.318c-1.006,0.743-16.721,12.582-27.518,30.369h51.795
				L901.472,853.932z"/>
			<path d="M979.421,913.509l-3.488,3.488l-31.669-31.882c-0.098-2.437-0.893-4.782-2.287-6.756l0.02-0.026l-0.426-0.516
				c-0.097-0.122-0.196-0.243-0.298-0.362l-26.658-32.316l-5.961-16.381l-1.564,0.568c-1.443,0.524-3.194,1.18-3.19,1.18
				l-0.391,0.129c-5.498,2.013-9.906,8.232-7.705,14.286l2.488,6.794c0.447,1.201,1.075,2.294,1.87,3.247l5.271,7.124l-17.968,0.007
				c-1.761,0-3.386,0.577-4.712,1.542v-21.419h-3.33v39.776l-18.459-18.455l-2.354,2.355l20.813,20.809v27.74l-23.715-23.712
				l-2.354,2.355l26.069,26.064v48.079h3.33v-48.134l4.106-4.105c1.593,1.498,3.61,2.557,5.857,2.955l21.386,3.811l1.074,0.189
				l0.022-0.032c2.86,0.281,5.742-0.551,8.021-2.26l25.064,24.997l-3.231,3.231l12.309,12.31l34.368-34.368L979.421,913.509z
				 M887.467,865.422h18.075c2.592,0,4.702,2.11,4.702,4.704c0.001,1.255-0.488,2.435-1.375,3.323
				c-0.888,0.888-2.067,1.377-3.322,1.377h-18.086c-1.254,0-2.434-0.489-3.32-1.377c-0.888-0.888-1.376-2.068-1.375-3.324
				C882.765,867.532,884.875,865.422,887.467,865.422z M910.751,886.182c-0.887,0.888-2.066,1.377-3.32,1.377h-18.716
				c-1.254,0-2.433-0.489-3.321-1.377c-0.887-0.888-1.375-2.068-1.374-3.323c0-2.593,2.109-4.703,4.702-4.703h16.824h0.001h1.879
				c2.592,0,4.702,2.11,4.702,4.703C912.127,884.114,911.639,885.294,910.751,886.182z M910.871,895.596
				c0.001,1.257-0.488,2.437-1.376,3.325c-0.888,0.888-2.069,1.377-3.325,1.377c0,0-16.104-0.001-16.161,0h-0.033
				c-1.256,0-2.436-0.489-3.325-1.377c-0.889-0.888-1.377-2.069-1.377-3.325c0-2.592,2.107-4.7,4.699-4.7h16.2
				C908.764,890.896,910.871,893.004,910.871,895.596z M882.755,876.609c0.172,0.124,0.343,0.251,0.523,0.361
				c-0.183,0.169-0.356,0.349-0.523,0.534V876.609z M882.755,888.22c0.095,0.105,0.184,0.214,0.285,0.315
				c0.457,0.457,0.962,0.844,1.5,1.173c-0.737,0.68-1.341,1.499-1.785,2.409V888.22z M883.268,907.358
				c-0.006,0.122-0.003,0.25,0.011,0.389l0.008,0.115c0.176,1.622,0.697,3.147,1.488,4.504l-2.02,2.019v-15.287
				c0.386,0.796,0.9,1.534,1.544,2.179c0.347,0.346,0.723,0.654,1.118,0.927c-1.325,1.262-2.156,3.036-2.156,5.006
				C883.26,907.259,883.267,907.308,883.268,907.358z M886.59,907.209c0-1.951,1.565-3.534,3.504-3.581h13.304
				c1.939,0.046,3.503,1.63,3.503,3.581c0,0.958-0.373,1.858-1.05,2.536c-0.676,0.677-1.576,1.05-2.533,1.05h-13.145
				C888.198,910.795,886.59,909.186,886.59,907.209z M922.118,916.206c-1.865,1.881-4.628,2.755-7.215,2.305l-1.288-0.228v0.001
				l-20.315-3.62c-0.622-0.11-1.217-0.294-1.779-0.539h11.796h0.001c1.846,0,3.582-0.719,4.888-2.026
				c1.306-1.306,2.025-3.043,2.025-4.889c0-1.52-0.498-2.921-1.331-4.064c1.095-0.395,2.102-1.021,2.95-1.869
				c1.518-1.518,2.352-3.535,2.352-5.679c0-2.327-0.998-4.424-2.584-5.894c0.534-0.328,1.036-0.713,1.491-1.167
				c1.515-1.517,2.35-3.533,2.349-5.677c0-3.051-1.709-5.709-4.221-7.069c1.509-1.515,2.339-3.526,2.338-5.664
				c0-1.76-0.575-3.385-1.539-4.71h0.006l-9.229-12.474l-0.064-0.082c-0.563-0.67-1.011-1.446-1.328-2.298l-2.484-6.783
				c-1.499-4.12,1.813-8.586,5.666-9.998l0.404-0.134c0.002,0,0.744-0.278,1.662-0.618l5.017,13.787l26.021,31.545l-0.014,0.018
				l1.049,1.236c1.46,1.709,2.243,3.9,2.204,6.167l-0.011,0.703l32.486,32.705l-23.065,22.817l-27.06-26.986L922.118,916.206z
				 M949.762,947.876l29.659-29.66l7.602,7.602l-29.66,29.66L949.762,947.876z"/>
		</g>
	</g>
	<g>
		
			<circle fill-rule="evenodd" clip-rule="evenodd" fill="#FFFFFF" stroke="#008FD3" stroke-width="8.1" stroke-miterlimit="10" cx="1237.466" cy="565.747" r="123.75"/>
		<g>
			<g>
				<rect x="1215.9" y="615.738" width="44.299" height="3.539"/>
				<path d="M1226.975,626.354H1215.9v3.539h11.075v14.155h22.149v-14.155h11.075v-3.539h-11.075H1226.975z M1245.433,640.509
					h-14.766v-10.616h14.766V640.509z"/>
				<path d="M1301.544,567.248c-1.551-5.659-11.036-7.955-24.123-7.868c5.595-7.759,8.62-16.957,8.62-26.598
					c0-12.476-5.12-24.61-14.047-33.293c-9.148-8.898-21.203-13.797-33.944-13.797s-24.796,4.9-33.944,13.797
					c-8.927,8.682-14.047,20.817-14.047,33.293c0,8.925,2.592,17.516,7.425,24.926c-2.093-0.11-4.126-0.176-6.069-0.183
					c-9.971-0.043-22.148,1.302-23.945,7.863c-1.756,6.409,7.703,13.158,16.222,17.799c-11.001,5.969-17.738,12.276-16.222,17.81
					c1.775,6.48,13.713,7.864,23.577,7.864c0.123,0,0.246,0,0.369-0.001c8.022-0.028,17.391-0.938,27.413-2.619
					c0.01,0.482,0.031,0.963,0.031,1.447v1.769h38.379v-1.769c0-0.757,0.023-1.505,0.043-2.253
					c7.485,1.011,14.601,1.576,20.854,1.576c12.718,0,21.885-2.318,23.407-7.873c1.534-5.6-5.494-11.458-12.975-15.945
					C1296.05,578.706,1303.078,572.848,1301.544,567.248z M1206.735,501.973c8.449-8.217,19.571-12.743,31.315-12.743
					c11.744,0,22.865,4.525,31.315,12.743c8.252,8.025,12.984,19.255,12.984,30.809c0,11.47-4.611,22.272-12.984,30.415
					c-7.509,7.303-12.613,18.208-14.721,30.966c-4.728,1.517-9.67,2.94-14.748,4.246v-23.809h-3.692v23.672
					c-1.879-0.431-3.778-0.882-5.709-1.368c-3.095-0.779-6.139-1.605-9.121-2.467c-2.277-12.889-7.765-24.499-15.434-31.958
					c-7.861-8.045-12.19-18.593-12.19-29.699C1193.751,521.228,1198.484,509.999,1206.735,501.973z M1264.567,575.662
					c6.383,2.385,12.198,4.922,17.22,7.531c-6.544,3.399-14.434,6.677-23.169,9.654
					C1259.837,586.488,1261.845,580.675,1264.567,575.662z M1254.138,597.754c-0.152,1.287-0.277,2.589-0.369,3.908
					c-2.62-0.404-5.331-0.874-8.11-1.403C1248.544,599.459,1251.371,598.621,1254.138,597.754z M1231.317,600.471
					c-3.025,0.675-6.02,1.29-8.964,1.837c-0.103-1.45-0.256-2.887-0.439-4.316c2.535,0.717,5.107,1.409,7.717,2.067
					C1230.192,600.199,1230.755,600.334,1231.317,600.471z M1217.407,593.257c-9.853-3.023-18.878-6.455-26.448-10.065
					c5.663-2.696,12.383-5.409,19.99-7.98C1213.881,580.525,1216.08,586.683,1217.407,593.257z M1185.956,580.67
					c-8.074-4.33-16.307-10.4-15.196-14.454c1.098-4.008,11.165-5.432,20.337-5.432c0.103,0,0.205,0,0.307,0.001
					c2.694,0.009,5.559,0.13,8.542,0.339c1.038,1.316,2.145,2.59,3.335,3.808c2.19,2.13,4.179,4.639,5.963,7.424
					c-8.038,2.746-15.583,5.799-21.996,8.987C1186.814,581.119,1186.376,580.895,1185.956,580.67z M1191.403,605.601
					c-0.103,0-0.204,0.001-0.307,0.001c-9.171,0-19.239-1.424-20.337-5.432c-0.99-3.615,5.099-9.239,16.485-15.136
					c8.563,4.281,19.155,8.343,30.795,11.829c0.3,2.006,0.517,4.04,0.651,6.094C1208.693,604.655,1199.361,605.573,1191.403,605.601
					z M1222.531,605.919c-0.003-0.108-0.011-0.216-0.015-0.324c4.472-0.822,9.052-1.788,13.688-2.897v3.221H1222.531z
					 M1253.566,605.919h-13.67v-3.497c4.607,0.966,9.208,1.8,13.709,2.485C1253.594,605.245,1253.572,605.578,1253.566,605.919z
					 M1298.255,598.31c-1.408,5.137-17.351,7.078-40.823,3.88c0.127-1.932,0.324-3.827,0.583-5.685
					c10.188-3.383,19.341-7.183,26.703-11.13c0.18-0.097,0.362-0.196,0.543-0.295
					C1292.555,589.275,1299.264,594.626,1298.255,598.31z M1285.261,581.306c-0.181-0.099-0.363-0.198-0.543-0.294
					c-5.311-2.848-11.562-5.617-18.453-8.211c1.698-2.656,3.605-5.054,5.729-7.12c0.99-0.962,1.921-1.965,2.812-2.993
					c1.113-0.032,2.205-0.053,3.25-0.053c11.829,0,19.258,2.008,20.199,5.441C1299.264,571.76,1292.555,577.111,1285.261,581.306z"
					/>
				<path d="M1239.05,546.77c7.536,0,13.667-5.877,13.667-13.101c0-7.224-6.131-13.101-13.667-13.101
					c-7.536,0-13.667,5.877-13.667,13.101C1225.383,540.893,1231.514,546.77,1239.05,546.77z M1239.05,523.827
					c5.661,0,10.267,4.415,10.267,9.841s-4.606,9.842-10.267,9.842c-5.661,0-10.267-4.415-10.267-9.842
					S1233.389,523.827,1239.05,523.827z"/>
				<rect x="1301.273" y="542.408" transform="matrix(0.0073 -1 1 0.0073 749.8417 1843.5186)" width="4.237" height="3.4"/>
				<rect x="1301.257" y="550.57" transform="matrix(0.0073 -1 1 0.0073 741.6635 1851.6047)" width="4.237" height="3.4"/>
				<rect x="1305.601" y="546.388" transform="matrix(1 -0.0095 0.0095 1 -5.1215 12.3861)" width="4.42" height="3.26"/>
				<rect x="1297.342" y="545.803" transform="matrix(0.0072 -1 1 0.0072 741.6184 1843.0045)" width="3.259" height="4.42"/>
				<path d="M1176.873,547.467c3.28,0,5.949-2.558,5.949-5.703c0-3.144-2.669-5.703-5.949-5.703c-3.281,0-5.95,2.558-5.95,5.703
					C1170.923,544.909,1173.592,547.467,1176.873,547.467z M1176.873,539.321c1.405,0,2.549,1.096,2.549,2.443
					c0,1.348-1.144,2.444-2.549,2.444c-1.406,0-2.549-1.096-2.549-2.444C1174.323,540.417,1175.467,539.321,1176.873,539.321z"/>
				<rect x="1184.582" y="483.277" transform="matrix(0.0073 -1 1 0.0073 693.1266 1668.1278)" width="4.237" height="3.4"/>
				<rect x="1184.565" y="491.439" transform="matrix(0.0073 -1 1 0.0073 684.9482 1676.2142)" width="4.237" height="3.4"/>
				<rect x="1188.91" y="487.257" transform="matrix(0.9999 -0.0102 0.0102 0.9999 -4.9185 12.1594)" width="4.42" height="3.26"/>
				<rect x="1180.651" y="486.672" transform="matrix(0.0073 -1 1 0.0073 684.7915 1667.5662)" width="3.259" height="4.42"/>
				<path d="M1281.836,612.781c-3.281,0-5.95,2.558-5.95,5.703c0,3.145,2.669,5.703,5.95,5.703c3.281,0,5.949-2.558,5.949-5.703
					C1287.786,615.339,1285.117,612.781,1281.836,612.781z M1281.836,620.928c-1.406,0-2.549-1.097-2.549-2.444
					c0-1.347,1.144-2.444,2.549-2.444c1.405,0,2.549,1.097,2.549,2.444C1284.386,619.831,1283.242,620.928,1281.836,620.928z"/>
			</g>
			<path fill="#008FD3" d="M1274.419,529.096l-0.096-0.641h-4.977c-0.276-1.625-0.677-3.097-1.289-4.728l4.286-2.408l-0.258-0.601
				c-1.264-2.946-2.942-5.702-4.986-8.192l-0.417-0.508l-4.239,2.337c-1.072-1.205-2.24-2.326-3.485-3.345l2.433-4.043l-0.538-0.4
				c-2.621-1.948-5.503-3.534-8.566-4.716l-0.625-0.241l-2.446,4.013c-1.726-0.598-3.216-0.975-4.884-1.235v-4.619l-0.677-0.086
				c-1.7-0.216-3.208-0.316-4.745-0.316c-1.571,0-3.147,0.106-4.82,0.326l-0.674,0.088v4.608c-1.66,0.26-3.182,0.645-4.889,1.234
				l-2.422-3.993l-0.627,0.243c-3.073,1.192-5.955,2.783-8.566,4.73l-0.536,0.399l2.406,4.002c-1.253,1.024-2.422,2.144-3.487,3.34
				l-4.191-2.319l-0.417,0.51c-2.052,2.505-3.727,5.256-4.977,8.179l-0.255,0.596l4.226,2.412c-0.613,1.633-1.015,3.106-1.291,4.732
				h-4.905l-0.096,0.641c-0.236,1.577-0.355,3.171-0.355,4.739c0,1.408,0.097,2.774,0.314,4.43l0.086,0.654h4.974
				c0.317,1.62,0.758,3.228,1.272,4.637l-4.324,2.387l0.252,0.602c1.229,2.936,2.88,5.7,4.907,8.214l0.417,0.517l4.361-2.415
				c1.066,1.197,2.234,2.316,3.484,3.339l-2.532,4.203l0.532,0.4c2.612,1.965,5.483,3.57,8.534,4.768l0.626,0.246l2.586-4.237
				c1.707,0.59,3.23,0.974,4.891,1.235v4.904l0.674,0.088c1.674,0.219,3.251,0.326,4.82,0.326c1.537,0,3.045-0.101,4.745-0.316
				l0.677-0.086v-4.915c1.669-0.261,3.158-0.637,4.882-1.234l2.578,4.257l0.628-0.245c3.064-1.198,5.941-2.797,8.55-4.753l0.533-0.4
				l-2.551-4.242c1.252-1.024,2.421-2.144,3.486-3.34l4.411,2.441l0.417-0.516c2.03-2.512,3.684-5.275,4.917-8.212l0.253-0.603
				l-4.383-2.414c0.514-1.409,0.955-3.016,1.272-4.636h5.046l0.086-0.654c0.217-1.654,0.314-3.02,0.314-4.43
				C1274.775,532.266,1274.655,530.672,1274.419,529.096z M1238.905,553.366c-11.301,0-20.463-8.782-20.463-19.615
				c0-10.833,9.161-19.615,20.463-19.615s20.463,8.782,20.463,19.615C1259.368,544.584,1250.206,553.366,1238.905,553.366z"/>
			<g opacity="0.4">
				<path fill="#F0AB00" d="M1250.548,549.878c-3.306,2.197-7.316,3.488-11.643,3.488c-2.999,0-5.845-0.624-8.411-1.735
					l9.625,16.482c1.134-0.04,2.284-0.135,3.538-0.294l0.677-0.086v-4.915c1.669-0.261,3.158-0.637,4.882-1.234l2.578,4.257
					l0.628-0.245c1.974-0.772,3.86-1.727,5.657-2.82L1250.548,549.878z"/>
				<path fill="#F0AB00" d="M1230.648,515.803l-7.539-12.91c-2.19,1.032-4.267,2.272-6.194,3.71l-0.536,0.399l2.406,4.002
					c-1.253,1.024-2.422,2.144-3.487,3.34l-4.191-2.319l-0.417,0.51c-0.603,0.736-1.162,1.499-1.699,2.275l9.619,16.471
					C1219.519,524.339,1224.211,518.529,1230.648,515.803z"/>
			</g>
			<g opacity="0.7">
				<path fill="#F0AB00" d="M1262.441,552.86l4.411,2.441l0.417-0.516c1.477-1.827,2.748-3.79,3.81-5.854l-13.306-22.783
					c1.026,2.338,1.595,4.907,1.595,7.602c0,6.684-3.49,12.583-8.816,16.125l7.532,12.897c0.991-0.603,1.962-1.236,2.889-1.93
					l0.533-0.4l-2.551-4.242C1260.207,555.176,1261.376,554.056,1262.441,552.86z"/>
				<path fill="#F0AB00" d="M1230.653,515.801c2.525-1.068,5.315-1.666,8.252-1.666c6.875,0,12.953,3.253,16.663,8.237
					l-10.418-17.839c-0.27-0.05-0.538-0.103-0.817-0.146v-1.252l-2.107-3.609c-1.142-0.107-2.223-0.16-3.315-0.16
					c-1.571,0-3.147,0.106-4.82,0.326l-0.674,0.088v4.608c-1.66,0.26-3.182,0.645-4.889,1.234l-2.422-3.993l-0.627,0.243
					c-0.803,0.311-1.591,0.653-2.366,1.018L1230.653,515.801z"/>
			</g>
			<g>
				<path fill="#F0AB00" d="M1274.323,528.455h-4.977c-0.276-1.625-0.677-3.096-1.289-4.728l4.286-2.408l-0.258-0.601
					c-1.264-2.946-2.942-5.702-4.986-8.192l-0.417-0.508l-4.239,2.337c-1.072-1.205-2.24-2.326-3.485-3.345l2.433-4.043l-0.538-0.4
					c-2.621-1.947-5.503-3.534-8.566-4.716l-0.625-0.241l-2.446,4.013c-1.438-0.498-2.718-0.837-4.067-1.089l10.418,17.839
					c0.871,1.17,1.616,2.433,2.205,3.776l13.306,22.783c0.398-0.773,0.771-1.558,1.108-2.359l0.253-0.603l-4.383-2.414
					c0.514-1.409,0.955-3.016,1.272-4.636h5.046l0.086-0.654c0.217-1.654,0.314-3.02,0.314-4.43c0-1.569-0.12-3.163-0.355-4.739
					L1274.323,528.455z"/>
				<path fill="#F0AB00" d="M1244.334,503.135v-3.366l-0.677-0.086c-0.492-0.062-0.965-0.112-1.43-0.156L1244.334,503.135z"/>
			</g>
			<ellipse fill="#F0AB00" cx="1174.699" cy="574.849" rx="6.331" ry="6.069"/>
			<g>
				<ellipse fill="#008FD3" cx="1273.746" cy="588.997" rx="6.331" ry="6.069"/>
				<ellipse opacity="0.7" fill="#F0AB00" cx="1273.746" cy="588.997" rx="6.331" ry="6.069"/>
			</g>
			<ellipse fill="#008FD3" cx="1189.929" cy="606.656" rx="6.331" ry="6.069"/>
			<ellipse opacity="0.4" fill="#F0AB00" cx="1189.929" cy="606.656" rx="6.331" ry="6.069"/>
			<ellipse fill="#008FD3" cx="1299.899" cy="598.724" rx="6.331" ry="6.069"/>
		</g>
	</g>
</g>
<g>
</g>
<g>
</g>
<g>
</g>
<g>
</g>
<g>
</g>
<g>
</g>
<g>
</g>
<g>
</g>
<g>
</g>
<g>
</g>
<g>
</g>
<g>
</g>
<g>
</g>
<g>
</g>
<g>
</g>
</svg>
