<svg xmlns="http://www.w3.org/2000/svg" viewBox="0 0 1236.185 737.302">
  <defs>
    <style>
      .cls-1, .cls-11 {
        fill: none;
        stroke: #000;
        stroke-miterlimit: 10;
      }

      .cls-1 {
        stroke-width: 3px;
      }

      .cls-2 {
        fill: #4fb81c;
      }

      .cls-3 {
        fill: #942582;
      }

      .cls-4 {
        fill: #e35500;
      }

      .cls-5, .cls-6, .cls-7 {
        fill: #efab1f;
      }

      .cls-5 {
        opacity: 0.4;
      }

      .cls-6, .cls-8 {
        opacity: 0.7;
      }

      .cls-8 {
        fill: #f7a800;
      }

      .cls-9 {
        fill: #148fcf;
      }

      .cls-10 {
        fill: #1d1d1b;
      }

      .cls-11 {
        stroke-width: 2px;
      }
    </style>
  </defs>
  <g id="Layer_1" data-name="Layer 1">
    <g>
      <path class="cls-1" d="M790.774,239.165c98.341,6.236,177,84.89,183.23,183.23h171.265C1138.763,229.546,983.624,74.407,790.774,67.9Z" transform="translate(-160.757 -66.349)"/>
      <path class="cls-1" d="M582.334,422.4c6.236-98.34,84.89-176.994,183.231-183.23V67.9c-192.85,6.507-347.989,161.646-354.5,354.5Z" transform="translate(-160.757 -66.349)"/>
      <path class="cls-1" d="M765.565,630.835c-98.341-6.236-176.995-84.889-183.231-183.23H411.07c6.506,192.849,161.645,347.988,354.5,354.5Z" transform="translate(-160.757 -66.349)"/>
      <path class="cls-1" d="M974,447.605c-6.235,98.341-84.889,176.994-183.23,183.23V802.1c192.85-6.507,347.989-161.646,354.5-354.495Z" transform="translate(-160.757 -66.349)"/>
    </g>
    <g>
      <path class="cls-2" d="M1150.3,289.135V265.447h6.75a17.806,17.806,0,0,1,5.055.673,9.963,9.963,0,0,1,3.875,2.105,9.52,9.52,0,0,1,2.484,3.653,14.45,14.45,0,0,1,.883,5.335,14.647,14.647,0,0,1-.9,5.422,9.715,9.715,0,0,1-2.515,3.707,9.96,9.96,0,0,1-3.875,2.122,17.558,17.558,0,0,1-5.008.671Zm4-3.547h3.109q4.062,0,6-1.942t1.938-6.433q0-4.289-1.953-6.168t-6.047-1.879H1154.3Z" transform="translate(-160.757 -66.349)"/>
      <path class="cls-2" d="M1171.843,280.65a9.864,9.864,0,0,1,.765-4.1,8.158,8.158,0,0,1,1.954-2.742,7.217,7.217,0,0,1,2.625-1.524,9.04,9.04,0,0,1,2.75-.461,8.552,8.552,0,0,1,2.781.461,6,6,0,0,1,2.383,1.539,7.789,7.789,0,0,1,1.664,2.836,13.125,13.125,0,0,1,.625,4.352v.922h-11.61a4.5,4.5,0,0,0,1.391,3.379,4.749,4.749,0,0,0,3.156,1.058,6.118,6.118,0,0,0,2.727-.533,8.421,8.421,0,0,0,2.039-1.458l2.078,2.054a9.174,9.174,0,0,1-7.141,3.062,9.515,9.515,0,0,1-3.07-.5,7.028,7.028,0,0,1-2.609-1.57,7.74,7.74,0,0,1-1.821-2.75A10.591,10.591,0,0,1,1171.843,280.65Zm4-1.656h7.937q-.36-3.9-3.875-3.906a4.714,4.714,0,0,0-1.39.2,3.39,3.39,0,0,0-1.219.677,3.926,3.926,0,0,0-.945,1.215A5.218,5.218,0,0,0,1175.843,278.994Z" transform="translate(-160.757 -66.349)"/>
      <path class="cls-2" d="M1189.89,280.619a10.223,10.223,0,0,1,.728-4.087,7.789,7.789,0,0,1,1.906-2.732,7.144,7.144,0,0,1,2.631-1.519,9.493,9.493,0,0,1,2.86-.459,8.518,8.518,0,0,1,2.734.4,6.053,6.053,0,0,1,1.984,1.078,6.777,6.777,0,0,1,1.375,1.576,11.6,11.6,0,0,1,.954,1.871l-3.329,1.188a3.763,3.763,0,0,0-3.781-2.844,4.361,4.361,0,0,0-1.578.289,3.265,3.265,0,0,0-1.312.945,4.875,4.875,0,0,0-.9,1.711,8.58,8.58,0,0,0-.336,2.586,6.991,6.991,0,0,0,1.055,4.164,3.5,3.5,0,0,0,3.008,1.446,4.382,4.382,0,0,0,2.3-.579,4.62,4.62,0,0,0,1.664-2.375l3.266,1.188a11.876,11.876,0,0,1-1.078,1.949,6.963,6.963,0,0,1-1.5,1.588,7.238,7.238,0,0,1-2.047,1.086,8.237,8.237,0,0,1-2.7.408,8.466,8.466,0,0,1-2.9-.517,7.053,7.053,0,0,1-2.537-1.592,7.942,7.942,0,0,1-1.791-2.744A10.643,10.643,0,0,1,1189.89,280.619Z" transform="translate(-160.757 -66.349)"/>
      <path class="cls-2" d="M1206.89,285.029a5.426,5.426,0,0,1,2.562-4.737,13.091,13.091,0,0,1,3.438-1.558,30.119,30.119,0,0,1,5.062-1.021v-.447a1.961,1.961,0,0,0-.674-1.662,3.479,3.479,0,0,0-2.113-.516,7.759,7.759,0,0,0-3.222.642,14.813,14.813,0,0,0-2.5,1.411l-1.915-2.211a12.675,12.675,0,0,1,3.452-2.185,11.554,11.554,0,0,1,4.734-.923,9.336,9.336,0,0,1,2.861.381,4.214,4.214,0,0,1,2.933,2.984,8.931,8.931,0,0,1,.32,2.5v7.281a23.618,23.618,0,0,0,.11,2.53,6.021,6.021,0,0,0,.375,1.638h-3.969q-.158-.551-.274-1a4.849,4.849,0,0,1-.117-1.186,7.471,7.471,0,0,1-2.834,1.892,10.225,10.225,0,0,1-3.445.542,6.151,6.151,0,0,1-1.9-.282,4.314,4.314,0,0,1-1.511-.831,3.833,3.833,0,0,1-1-1.371A4.555,4.555,0,0,1,1206.89,285.029Zm3.843-.732a1.841,1.841,0,0,0,.642,1.527,2.711,2.711,0,0,0,1.738.514,6.654,6.654,0,0,0,2.725-.529,7.353,7.353,0,0,0,2.114-1.418V280.65a18.856,18.856,0,0,0-5.387,1.364Q1210.734,282.895,1210.733,284.3Z" transform="translate(-160.757 -66.349)"/>
      <path class="cls-2" d="M1226.046,289.135V272.15h3.937v2.782h.063a6.659,6.659,0,0,1,6.109-3.11h.266l-.125,3.61a4.469,4.469,0,0,0-.539-.047c-.245-.01-.42-.016-.524-.016a5.676,5.676,0,0,0-3.171.82,6.732,6.732,0,0,0-2.079,2.2v10.75Z" transform="translate(-160.757 -66.349)"/>
      <path class="cls-2" d="M1239.233,289.135V265.447h3.938v8.938a7.561,7.561,0,0,1,2.156-1.8,6.416,6.416,0,0,1,3.25-.766,6.554,6.554,0,0,1,2.678.547,5.734,5.734,0,0,1,2.138,1.649,8.056,8.056,0,0,1,1.41,2.75,13.1,13.1,0,0,1,.509,3.851,12.706,12.706,0,0,1-.525,3.86,7.7,7.7,0,0,1-1.472,2.734,5.888,5.888,0,0,1-2.294,1.633,7.944,7.944,0,0,1-2.975.539,6.765,6.765,0,0,1-2.664-.539,6.071,6.071,0,0,1-2.211-1.6v1.891Zm3.938-4.985a5.559,5.559,0,0,0,1.875,1.563,4.668,4.668,0,0,0,2.125.547,3.68,3.68,0,0,0,3.226-1.375,7.367,7.367,0,0,0,.977-4.235,6.552,6.552,0,0,0-1.078-4.093,3.6,3.6,0,0,0-3-1.375,4.474,4.474,0,0,0-2.313.656,7.071,7.071,0,0,0-1.812,1.484Z" transform="translate(-160.757 -66.349)"/>
      <path class="cls-2" d="M1257.827,280.666a10.418,10.418,0,0,1,.7-4.015,7.723,7.723,0,0,1,1.862-2.755,7.3,7.3,0,0,1,2.649-1.573,9.479,9.479,0,0,1,3.046-.5,9.362,9.362,0,0,1,3.022.5,7.384,7.384,0,0,1,2.65,1.573,7.859,7.859,0,0,1,1.885,2.755,10.224,10.224,0,0,1,.716,4.015,10.084,10.084,0,0,1-.716,4,7.859,7.859,0,0,1-1.885,2.729,7.556,7.556,0,0,1-2.65,1.583,9.08,9.08,0,0,1-6.029,0,7.561,7.561,0,0,1-2.649-1.583,7.819,7.819,0,0,1-1.885-2.729A10.048,10.048,0,0,1,1257.827,280.666Zm3.938,0a9.066,9.066,0,0,0,.257,2.232,5.213,5.213,0,0,0,.784,1.748,3.72,3.72,0,0,0,1.345,1.16,4.178,4.178,0,0,0,1.934.423,3.791,3.791,0,0,0,3.248-1.465,6.761,6.761,0,0,0,1.088-4.1,8.9,8.9,0,0,0-.258-2.193,4.953,4.953,0,0,0-.791-1.741,3.8,3.8,0,0,0-1.346-1.135,4.224,4.224,0,0,0-1.941-.415,3.792,3.792,0,0,0-3.232,1.441A6.586,6.586,0,0,0,1261.765,280.666Z" transform="translate(-160.757 -66.349)"/>
      <path class="cls-2" d="M1277.89,289.135V272.15h3.937v2.719a13.76,13.76,0,0,1,1.094-1.094,7.69,7.69,0,0,1,1.375-.976,8.336,8.336,0,0,1,1.664-.7,6.659,6.659,0,0,1,1.945-.274,5.29,5.29,0,0,1,3.688,1.219,4.8,4.8,0,0,1,1.344,3.734v12.36H1289V277.9a3.149,3.149,0,0,0-.609-2.109,2.456,2.456,0,0,0-1.953-.7,5.01,5.01,0,0,0-2.415.594,10.776,10.776,0,0,0-2.195,1.609v11.844Z" transform="translate(-160.757 -66.349)"/>
      <path class="cls-2" d="M1297.3,269.2v-3.359h4V269.2Zm.031,19.938V272.15h3.938v16.985Z" transform="translate(-160.757 -66.349)"/>
      <path class="cls-2" d="M1304.749,289.135v-2.266l9.047-11.594h-8.375V272.15h13.312v2.36l-9.093,11.578h9.625v3.047Z" transform="translate(-160.757 -66.349)"/>
      <path class="cls-2" d="M1321.108,285.029a5.43,5.43,0,0,1,2.563-4.737,13.083,13.083,0,0,1,3.437-1.558,30.133,30.133,0,0,1,5.063-1.021v-.447a1.964,1.964,0,0,0-.674-1.662,3.479,3.479,0,0,0-2.113-.516,7.755,7.755,0,0,0-3.222.642,14.813,14.813,0,0,0-2.5,1.411l-1.915-2.211a12.659,12.659,0,0,1,3.452-2.185,11.554,11.554,0,0,1,4.734-.923,9.336,9.336,0,0,1,2.861.381,4.214,4.214,0,0,1,2.933,2.984,8.968,8.968,0,0,1,.32,2.5v7.281a23.921,23.921,0,0,0,.109,2.53,6.1,6.1,0,0,0,.375,1.638h-3.968q-.157-.551-.274-1a4.849,4.849,0,0,1-.117-1.186,7.471,7.471,0,0,1-2.834,1.892,10.225,10.225,0,0,1-3.445.542,6.146,6.146,0,0,1-1.9-.282,4.318,4.318,0,0,1-1.512-.831,3.843,3.843,0,0,1-1-1.371A4.538,4.538,0,0,1,1321.108,285.029Zm3.844-.732a1.841,1.841,0,0,0,.642,1.527,2.709,2.709,0,0,0,1.738.514,6.657,6.657,0,0,0,2.725-.529,7.353,7.353,0,0,0,2.114-1.418V280.65a18.856,18.856,0,0,0-5.387,1.364Q1324.951,282.895,1324.952,284.3Z" transform="translate(-160.757 -66.349)"/>
      <path class="cls-2" d="M1338.671,275.275V272.15h2.937v-5.921h3.938v5.921h4.391v3.125h-4.391v8.4a2.977,2.977,0,0,0,.516,1.963,2.582,2.582,0,0,0,1.984.592,6.37,6.37,0,0,0,.93-.071,5.122,5.122,0,0,0,.773-.163v3.14c-.115.02-.284.047-.508.078s-.469.057-.734.078-.542.036-.828.047-.561.016-.821.016a9.5,9.5,0,0,1-2.648-.305,3.751,3.751,0,0,1-1.6-.875,2.957,2.957,0,0,1-.789-1.453,8.856,8.856,0,0,1-.211-2.039v-9.407Z" transform="translate(-160.757 -66.349)"/>
      <path class="cls-2" d="M1353.3,269.2v-3.359h4V269.2Zm.031,19.938V272.15h3.938v16.985Z" transform="translate(-160.757 -66.349)"/>
      <path class="cls-2" d="M1360.905,280.666a10.418,10.418,0,0,1,.7-4.015,7.723,7.723,0,0,1,1.862-2.755,7.3,7.3,0,0,1,2.649-1.573,9.479,9.479,0,0,1,3.046-.5,9.372,9.372,0,0,1,3.023.5,7.389,7.389,0,0,1,2.649,1.573,7.859,7.859,0,0,1,1.885,2.755,10.224,10.224,0,0,1,.717,4.015,10.083,10.083,0,0,1-.717,4,7.859,7.859,0,0,1-1.885,2.729,7.561,7.561,0,0,1-2.649,1.583,9.083,9.083,0,0,1-6.03,0,7.561,7.561,0,0,1-2.649-1.583,7.846,7.846,0,0,1-1.885-2.729A10.065,10.065,0,0,1,1360.905,280.666Zm3.938,0a9.017,9.017,0,0,0,.258,2.232,5.192,5.192,0,0,0,.783,1.748,3.728,3.728,0,0,0,1.345,1.16,4.178,4.178,0,0,0,1.934.423,3.788,3.788,0,0,0,3.248-1.465,6.761,6.761,0,0,0,1.088-4.1,8.9,8.9,0,0,0-.258-2.193,4.953,4.953,0,0,0-.791-1.741,3.8,3.8,0,0,0-1.346-1.135,4.221,4.221,0,0,0-1.941-.415,3.792,3.792,0,0,0-3.232,1.441A6.586,6.586,0,0,0,1364.843,280.666Z" transform="translate(-160.757 -66.349)"/>
      <path class="cls-2" d="M1380.968,289.135V272.15h3.937v2.719a13.93,13.93,0,0,1,1.094-1.094,7.69,7.69,0,0,1,1.375-.976,8.336,8.336,0,0,1,1.664-.7,6.659,6.659,0,0,1,1.945-.274,5.29,5.29,0,0,1,3.688,1.219,4.8,4.8,0,0,1,1.344,3.734v12.36h-3.938V277.9a3.149,3.149,0,0,0-.609-2.109,2.455,2.455,0,0,0-1.953-.7,5,5,0,0,0-2.414.594,10.753,10.753,0,0,0-2.2,1.609v11.844Z" transform="translate(-160.757 -66.349)"/>
    </g>
    <g>
      <path class="cls-3" d="M161.31,553.634V529.946h6.75a17.8,17.8,0,0,1,5.055.673,9.955,9.955,0,0,1,3.875,2.105,9.528,9.528,0,0,1,2.484,3.653,14.45,14.45,0,0,1,.883,5.335,14.647,14.647,0,0,1-.9,5.422,9.715,9.715,0,0,1-2.515,3.707,9.96,9.96,0,0,1-3.875,2.122,17.558,17.558,0,0,1-5.008.671Zm4-3.547h3.109q4.062,0,6-1.941t1.938-6.434q0-4.289-1.953-6.168t-6.047-1.879H165.31Z" transform="translate(-160.757 -66.349)"/>
      <path class="cls-3" d="M182.857,545.149a9.847,9.847,0,0,1,.766-4.1,8.156,8.156,0,0,1,1.953-2.742,7.217,7.217,0,0,1,2.625-1.524,9.04,9.04,0,0,1,2.75-.461,8.548,8.548,0,0,1,2.781.461,5.992,5.992,0,0,1,2.383,1.539,7.789,7.789,0,0,1,1.664,2.836,13.125,13.125,0,0,1,.625,4.352v.922h-11.61a4.5,4.5,0,0,0,1.391,3.379,4.751,4.751,0,0,0,3.156,1.058,6.118,6.118,0,0,0,2.727-.533,8.4,8.4,0,0,0,2.039-1.458l2.078,2.054a9.174,9.174,0,0,1-7.141,3.062,9.515,9.515,0,0,1-3.07-.5,7.036,7.036,0,0,1-2.609-1.57,7.74,7.74,0,0,1-1.821-2.75A10.61,10.61,0,0,1,182.857,545.149Zm4-1.656h7.937q-.359-3.9-3.875-3.906a4.719,4.719,0,0,0-1.39.2,3.4,3.4,0,0,0-1.219.677,3.941,3.941,0,0,0-.945,1.215A5.218,5.218,0,0,0,186.857,543.493Z" transform="translate(-160.757 -66.349)"/>
      <path class="cls-3" d="M200.9,545.118a10.223,10.223,0,0,1,.728-4.087,7.778,7.778,0,0,1,1.907-2.732,7.129,7.129,0,0,1,2.631-1.519,9.481,9.481,0,0,1,2.859-.459,8.518,8.518,0,0,1,2.734.4,6.058,6.058,0,0,1,1.985,1.078,6.777,6.777,0,0,1,1.375,1.576,11.6,11.6,0,0,1,.953,1.871l-3.328,1.188a3.764,3.764,0,0,0-3.782-2.844,4.365,4.365,0,0,0-1.578.289,3.265,3.265,0,0,0-1.312.945,4.875,4.875,0,0,0-.9,1.711,8.611,8.611,0,0,0-.336,2.586,6.991,6.991,0,0,0,1.055,4.164,3.5,3.5,0,0,0,3.008,1.446,4.382,4.382,0,0,0,2.3-.579,4.627,4.627,0,0,0,1.665-2.375l3.265,1.188a11.729,11.729,0,0,1-1.078,1.949,6.963,6.963,0,0,1-1.5,1.588,7.2,7.2,0,0,1-2.047,1.086,8.233,8.233,0,0,1-2.7.408,8.47,8.47,0,0,1-2.9-.517,7.062,7.062,0,0,1-2.537-1.592,7.94,7.94,0,0,1-1.79-2.744A10.623,10.623,0,0,1,200.9,545.118Z" transform="translate(-160.757 -66.349)"/>
      <path class="cls-3" d="M218.091,545.149a9.847,9.847,0,0,1,.766-4.1,8.156,8.156,0,0,1,1.953-2.742,7.233,7.233,0,0,1,2.625-1.524,9.04,9.04,0,0,1,2.75-.461,8.548,8.548,0,0,1,2.781.461,5.985,5.985,0,0,1,2.383,1.539,7.775,7.775,0,0,1,1.664,2.836,13.1,13.1,0,0,1,.625,4.352v.922H222.029a4.5,4.5,0,0,0,1.39,3.379,4.752,4.752,0,0,0,3.157,1.058,6.113,6.113,0,0,0,2.726-.533,8.383,8.383,0,0,0,2.039-1.458l2.078,2.054a9.808,9.808,0,0,1-10.211,2.562,7.036,7.036,0,0,1-2.609-1.57,7.752,7.752,0,0,1-1.82-2.75A10.59,10.59,0,0,1,218.091,545.149Zm4-1.656h7.938q-.36-3.9-3.875-3.906a4.726,4.726,0,0,0-1.391.2,3.413,3.413,0,0,0-1.219.677,3.941,3.941,0,0,0-.945,1.215A5.239,5.239,0,0,0,222.091,543.493Z" transform="translate(-160.757 -66.349)"/>
      <path class="cls-3" d="M237.123,553.634V536.649h3.937v2.719a13.93,13.93,0,0,1,1.094-1.094,7.69,7.69,0,0,1,1.375-.976,8.361,8.361,0,0,1,1.664-.7,6.659,6.659,0,0,1,1.945-.274,5.288,5.288,0,0,1,3.688,1.219,4.8,4.8,0,0,1,1.343,3.734v12.36h-3.937V542.4a3.149,3.149,0,0,0-.609-2.109,2.457,2.457,0,0,0-1.954-.7,5.006,5.006,0,0,0-2.414.594,10.776,10.776,0,0,0-2.195,1.609v11.844Z" transform="translate(-160.757 -66.349)"/>
      <path class="cls-3" d="M254.794,539.774v-3.125h2.938v-5.921h3.937v5.921h4.391v3.125h-4.391v8.4a2.977,2.977,0,0,0,.516,1.963,2.585,2.585,0,0,0,1.984.592,6.36,6.36,0,0,0,.93-.071,5.138,5.138,0,0,0,.774-.163v3.14c-.115.02-.285.047-.508.078s-.469.057-.735.078-.542.036-.828.047-.56.016-.82.016a9.516,9.516,0,0,1-2.649-.3,3.753,3.753,0,0,1-1.6-.875,2.941,2.941,0,0,1-.789-1.453,8.8,8.8,0,0,1-.211-2.039v-9.407Z" transform="translate(-160.757 -66.349)"/>
      <path class="cls-3" d="M269.279,553.634V536.649h3.937v2.782h.063a6.659,6.659,0,0,1,6.109-3.11h.266l-.125,3.61a4.469,4.469,0,0,0-.539-.047c-.245-.01-.42-.016-.524-.016a5.679,5.679,0,0,0-3.172.82,6.74,6.74,0,0,0-2.078,2.2v10.75Z" transform="translate(-160.757 -66.349)"/>
      <path class="cls-3" d="M280.826,549.528a5.426,5.426,0,0,1,2.562-4.737,13.106,13.106,0,0,1,3.438-1.558,30.119,30.119,0,0,1,5.062-1.021v-.447a1.96,1.96,0,0,0-.673-1.661,3.477,3.477,0,0,0-2.114-.517,7.759,7.759,0,0,0-3.222.642,14.813,14.813,0,0,0-2.5,1.411l-1.915-2.211a12.666,12.666,0,0,1,3.453-2.185,11.549,11.549,0,0,1,4.733-.923,9.336,9.336,0,0,1,2.861.381,4.214,4.214,0,0,1,2.933,2.984,8.931,8.931,0,0,1,.32,2.5v7.281a23.618,23.618,0,0,0,.11,2.53,6.021,6.021,0,0,0,.375,1.638h-3.969q-.158-.55-.274-1a4.849,4.849,0,0,1-.117-1.186,7.471,7.471,0,0,1-2.834,1.892,10.221,10.221,0,0,1-3.445.542,6.151,6.151,0,0,1-1.9-.282,4.314,4.314,0,0,1-1.511-.831,3.833,3.833,0,0,1-1-1.371A4.555,4.555,0,0,1,280.826,549.528Zm3.843-.732a1.841,1.841,0,0,0,.642,1.527,2.709,2.709,0,0,0,1.738.514,6.654,6.654,0,0,0,2.725-.529,7.353,7.353,0,0,0,2.114-1.418v-3.741a18.865,18.865,0,0,0-5.387,1.364Q284.67,547.394,284.669,548.8Z" transform="translate(-160.757 -66.349)"/>
      <path class="cls-3" d="M300.154,553.634V529.946h3.937v23.688Z" transform="translate(-160.757 -66.349)"/>
      <path class="cls-3" d="M308.826,533.7v-3.359h4V533.7Zm.031,19.938V536.649h3.937v16.985Z" transform="translate(-160.757 -66.349)"/>
      <path class="cls-3" d="M316.279,553.634v-2.266l9.047-11.594h-8.375v-3.125h13.312v2.36l-9.094,11.578h9.625v3.047Z" transform="translate(-160.757 -66.349)"/>
      <path class="cls-3" d="M332.638,549.528a5.43,5.43,0,0,1,2.563-4.737,13.083,13.083,0,0,1,3.437-1.558,30.133,30.133,0,0,1,5.063-1.021v-.447a1.961,1.961,0,0,0-.674-1.661,3.471,3.471,0,0,0-2.113-.517,7.752,7.752,0,0,0-3.222.642,14.863,14.863,0,0,0-2.5,1.411l-1.914-2.211a12.644,12.644,0,0,1,3.452-2.185,11.552,11.552,0,0,1,4.733-.923,9.343,9.343,0,0,1,2.862.381,4.215,4.215,0,0,1,2.932,2.984,8.892,8.892,0,0,1,.321,2.5v7.281a23.921,23.921,0,0,0,.109,2.53,6.1,6.1,0,0,0,.375,1.638h-3.969q-.156-.55-.273-1a4.849,4.849,0,0,1-.117-1.186,7.467,7.467,0,0,1-2.835,1.892,10.213,10.213,0,0,1-3.445.542,6.144,6.144,0,0,1-1.9-.282,4.318,4.318,0,0,1-1.512-.831,3.845,3.845,0,0,1-1-1.371A4.555,4.555,0,0,1,332.638,549.528Zm3.844-.732a1.841,1.841,0,0,0,.642,1.527,2.707,2.707,0,0,0,1.738.514,6.653,6.653,0,0,0,2.724-.529,7.371,7.371,0,0,0,2.115-1.418v-3.741a18.856,18.856,0,0,0-5.387,1.364Q336.481,547.394,336.482,548.8Z" transform="translate(-160.757 -66.349)"/>
      <path class="cls-3" d="M350.2,539.774v-3.125h2.937v-5.921h3.938v5.921h4.39v3.125h-4.39v8.4a2.983,2.983,0,0,0,.515,1.963,2.586,2.586,0,0,0,1.985.592,6.346,6.346,0,0,0,.929-.071,5.111,5.111,0,0,0,.774-.163v3.14c-.115.02-.284.047-.508.078s-.469.057-.734.078-.542.036-.829.047-.56.016-.82.016a9.508,9.508,0,0,1-2.648-.3,3.751,3.751,0,0,1-1.6-.875,2.949,2.949,0,0,1-.789-1.453,8.8,8.8,0,0,1-.211-2.039v-9.407Z" transform="translate(-160.757 -66.349)"/>
      <path class="cls-3" d="M364.826,533.7v-3.359h4V533.7Zm.031,19.938V536.649h3.937v16.985Z" transform="translate(-160.757 -66.349)"/>
      <path class="cls-3" d="M372.435,545.165a10.4,10.4,0,0,1,.7-4.015A7.722,7.722,0,0,1,375,538.4a7.293,7.293,0,0,1,2.649-1.574,9.483,9.483,0,0,1,3.046-.5,9.362,9.362,0,0,1,3.022.5,7.369,7.369,0,0,1,2.649,1.574,7.834,7.834,0,0,1,1.886,2.754,10.224,10.224,0,0,1,.716,4.015,10.084,10.084,0,0,1-.716,4,7.861,7.861,0,0,1-1.886,2.73,7.582,7.582,0,0,1-2.649,1.583,9.1,9.1,0,0,1-6.029,0,7.591,7.591,0,0,1-2.649-1.583,7.846,7.846,0,0,1-1.885-2.73A10.065,10.065,0,0,1,372.435,545.165Zm3.938,0a8.97,8.97,0,0,0,.258,2.232,5.206,5.206,0,0,0,.783,1.749,3.722,3.722,0,0,0,1.346,1.159,4.17,4.17,0,0,0,1.933.423,3.79,3.79,0,0,0,3.248-1.465,6.761,6.761,0,0,0,1.088-4.1,8.9,8.9,0,0,0-.258-2.193,4.971,4.971,0,0,0-.791-1.741,3.8,3.8,0,0,0-1.346-1.135,4.224,4.224,0,0,0-1.941-.415,3.8,3.8,0,0,0-3.233,1.441A6.593,6.593,0,0,0,376.373,545.165Z" transform="translate(-160.757 -66.349)"/>
      <path class="cls-3" d="M392.5,553.634V536.649h3.937v2.719a13.93,13.93,0,0,1,1.094-1.094,7.69,7.69,0,0,1,1.375-.976,8.361,8.361,0,0,1,1.664-.7,6.659,6.659,0,0,1,1.945-.274,5.288,5.288,0,0,1,3.688,1.219,4.8,4.8,0,0,1,1.343,3.734v12.36h-3.937V542.4A3.149,3.149,0,0,0,403,540.29a2.457,2.457,0,0,0-1.954-.7,5.006,5.006,0,0,0-2.414.594,10.776,10.776,0,0,0-2.195,1.609v11.844Z" transform="translate(-160.757 -66.349)"/>
    </g>
    <g>
      <path class="cls-4" d="M1150.3,553.634V529.946h6.75a17.806,17.806,0,0,1,5.055.673,9.963,9.963,0,0,1,3.875,2.105,9.528,9.528,0,0,1,2.484,3.653,14.45,14.45,0,0,1,.883,5.335,14.647,14.647,0,0,1-.9,5.422,9.715,9.715,0,0,1-2.515,3.707,9.96,9.96,0,0,1-3.875,2.122,17.558,17.558,0,0,1-5.008.671Zm4-3.547h3.109q4.062,0,6-1.941t1.938-6.434q0-4.289-1.953-6.168t-6.047-1.879H1154.3Z" transform="translate(-160.757 -66.349)"/>
      <path class="cls-4" d="M1173.249,533.7v-3.359h4V533.7Zm.031,19.938V536.649h3.938v16.985Z" transform="translate(-160.757 -66.349)"/>
      <path class="cls-4" d="M1180.03,556.049a3.41,3.41,0,0,1,.719-2.192,4.772,4.772,0,0,1,2-1.421,2.17,2.17,0,0,1-1.408-2.057,2.62,2.62,0,0,1,.718-1.782,6.976,6.976,0,0,1,1.735-1.4,5.728,5.728,0,0,1-.781-9.152,6.417,6.417,0,0,1,2.234-1.268,9.231,9.231,0,0,1,3-.456,8.242,8.242,0,0,1,3.063.516,7.5,7.5,0,0,1,2.171,1.281,8.207,8.207,0,0,1,1.993-1.109,7.84,7.84,0,0,1,2.211-.563v3.266a11.748,11.748,0,0,0-1.353.09,8.851,8.851,0,0,0-1.6.342,3.837,3.837,0,0,1,.61,2.191,6.115,6.115,0,0,1-.486,2.471,5.5,5.5,0,0,1-1.4,1.927,6.47,6.47,0,0,1-2.231,1.263,9.17,9.17,0,0,1-2.976.45,6.3,6.3,0,0,1-1.234-.1c-.334-.068-.714-.157-1.141-.27a2.731,2.731,0,0,0-.617.486.868.868,0,0,0-.242.612.755.755,0,0,0,.41.734,4.51,4.51,0,0,0,1.523.309l3.03.181a19.664,19.664,0,0,1,3.212.44,6.952,6.952,0,0,1,2.187.869,3.355,3.355,0,0,1,1.238,1.356,4.375,4.375,0,0,1,.384,1.909,4.164,4.164,0,0,1-.642,2.319,5.022,5.022,0,0,1-1.792,1.639,9.349,9.349,0,0,1-2.771.974,18.27,18.27,0,0,1-3.576.325,19.773,19.773,0,0,1-3.758-.307,8.534,8.534,0,0,1-2.531-.856,3.769,3.769,0,0,1-1.438-1.32A3.24,3.24,0,0,1,1180.03,556.049Zm3.61-.7q0,1.083,1.3,1.511a13.243,13.243,0,0,0,3.89.428,9.255,9.255,0,0,0,3.434-.516q1.254-.516,1.254-1.412a1.38,1.38,0,0,0-.2-.751,1.532,1.532,0,0,0-.68-.53,4.284,4.284,0,0,0-1.338-.3q-.855-.078-2.128-.276l-2.938-.183a4.956,4.956,0,0,1-1.031-.109,2.732,2.732,0,0,0-1.195.947A2.151,2.151,0,0,0,1183.64,555.351Zm1.187-12.9a2.8,2.8,0,0,0,.93,2.279,3.862,3.862,0,0,0,2.555.776,3.733,3.733,0,0,0,2.531-.776,2.854,2.854,0,0,0,.89-2.279,3.1,3.1,0,0,0-.875-2.377,4.377,4.377,0,0,0-5.117.015A3.035,3.035,0,0,0,1184.827,542.454Z" transform="translate(-160.757 -66.349)"/>
      <path class="cls-4" d="M1200.733,533.7v-3.359h4V533.7Zm.032,19.938V536.649h3.937v16.985Z" transform="translate(-160.757 -66.349)"/>
      <path class="cls-4" d="M1207.7,539.774v-3.125h2.938v-5.921h3.937v5.921h4.391v3.125h-4.391v8.4a2.977,2.977,0,0,0,.516,1.963,2.585,2.585,0,0,0,1.984.592,6.37,6.37,0,0,0,.93-.071,5.122,5.122,0,0,0,.773-.163v3.14c-.115.02-.284.047-.508.078s-.468.057-.734.078-.542.036-.828.047-.561.016-.82.016a9.511,9.511,0,0,1-2.649-.3,3.747,3.747,0,0,1-1.6-.875,2.941,2.941,0,0,1-.789-1.453,8.8,8.8,0,0,1-.211-2.039v-9.407Z" transform="translate(-160.757 -66.349)"/>
      <path class="cls-4" d="M1221.015,549.528a5.426,5.426,0,0,1,2.562-4.737,13.091,13.091,0,0,1,3.438-1.558,30.119,30.119,0,0,1,5.062-1.021v-.447a1.958,1.958,0,0,0-.674-1.661,3.471,3.471,0,0,0-2.113-.517,7.759,7.759,0,0,0-3.222.642,14.813,14.813,0,0,0-2.5,1.411l-1.915-2.211a12.675,12.675,0,0,1,3.452-2.185,11.554,11.554,0,0,1,4.734-.923,9.336,9.336,0,0,1,2.861.381,4.214,4.214,0,0,1,2.933,2.984,8.931,8.931,0,0,1,.32,2.5v7.281a23.618,23.618,0,0,0,.11,2.53,6.021,6.021,0,0,0,.375,1.638h-3.969q-.158-.55-.274-1a4.849,4.849,0,0,1-.117-1.186,7.471,7.471,0,0,1-2.834,1.892,10.225,10.225,0,0,1-3.445.542,6.151,6.151,0,0,1-1.9-.282,4.314,4.314,0,0,1-1.511-.831,3.833,3.833,0,0,1-1-1.371A4.555,4.555,0,0,1,1221.015,549.528Zm3.843-.732a1.841,1.841,0,0,0,.642,1.527,2.711,2.711,0,0,0,1.738.514,6.654,6.654,0,0,0,2.725-.529,7.353,7.353,0,0,0,2.114-1.418v-3.741a18.856,18.856,0,0,0-5.387,1.364Q1224.859,547.394,1224.858,548.8Z" transform="translate(-160.757 -66.349)"/>
      <path class="cls-4" d="M1240.343,553.634V529.946h3.937v23.688Z" transform="translate(-160.757 -66.349)"/>
      <path class="cls-4" d="M1249.015,533.7v-3.359h4V533.7Zm.031,19.938V536.649h3.937v16.985Z" transform="translate(-160.757 -66.349)"/>
      <path class="cls-4" d="M1256.468,553.634v-2.266l9.047-11.594h-8.375v-3.125h13.312v2.36l-9.094,11.578h9.625v3.047Z" transform="translate(-160.757 -66.349)"/>
      <path class="cls-4" d="M1272.827,549.528a5.43,5.43,0,0,1,2.563-4.737,13.083,13.083,0,0,1,3.437-1.558,30.133,30.133,0,0,1,5.063-1.021v-.447a1.961,1.961,0,0,0-.674-1.661,3.473,3.473,0,0,0-2.113-.517,7.752,7.752,0,0,0-3.222.642,14.813,14.813,0,0,0-2.5,1.411l-1.915-2.211a12.659,12.659,0,0,1,3.452-2.185,11.552,11.552,0,0,1,4.733-.923,9.347,9.347,0,0,1,2.862.381,4.215,4.215,0,0,1,2.932,2.984,8.929,8.929,0,0,1,.321,2.5v7.281a23.921,23.921,0,0,0,.109,2.53,6.021,6.021,0,0,0,.375,1.638h-3.969q-.156-.55-.273-1a4.849,4.849,0,0,1-.117-1.186,7.479,7.479,0,0,1-2.834,1.892,10.227,10.227,0,0,1-3.446.542,6.144,6.144,0,0,1-1.9-.282,4.318,4.318,0,0,1-1.512-.831,3.845,3.845,0,0,1-1.005-1.371A4.555,4.555,0,0,1,1272.827,549.528Zm3.844-.732a1.843,1.843,0,0,0,.641,1.527,2.712,2.712,0,0,0,1.739.514,6.653,6.653,0,0,0,2.724-.529,7.371,7.371,0,0,0,2.115-1.418v-3.741a18.856,18.856,0,0,0-5.387,1.364Q1276.67,547.394,1276.671,548.8Z" transform="translate(-160.757 -66.349)"/>
      <path class="cls-4" d="M1290.39,539.774v-3.125h2.937v-5.921h3.938v5.921h4.39v3.125h-4.39v8.4a2.983,2.983,0,0,0,.515,1.963,2.586,2.586,0,0,0,1.985.592,6.357,6.357,0,0,0,.929-.071,5.111,5.111,0,0,0,.774-.163v3.14c-.115.02-.284.047-.508.078s-.469.057-.734.078-.542.036-.829.047-.56.016-.82.016a9.5,9.5,0,0,1-2.648-.3,3.751,3.751,0,0,1-1.6-.875,2.949,2.949,0,0,1-.789-1.453,8.8,8.8,0,0,1-.211-2.039v-9.407Z" transform="translate(-160.757 -66.349)"/>
      <path class="cls-4" d="M1305.015,533.7v-3.359h4V533.7Zm.031,19.938V536.649h3.937v16.985Z" transform="translate(-160.757 -66.349)"/>
      <path class="cls-4" d="M1312.624,545.165a10.4,10.4,0,0,1,.7-4.015,7.71,7.71,0,0,1,1.862-2.754,7.293,7.293,0,0,1,2.649-1.574,9.479,9.479,0,0,1,3.046-.5,9.362,9.362,0,0,1,3.022.5,7.381,7.381,0,0,1,2.65,1.574,7.831,7.831,0,0,1,1.884,2.754,10.206,10.206,0,0,1,.717,4.015,10.065,10.065,0,0,1-.717,4,7.857,7.857,0,0,1-1.884,2.73,7.6,7.6,0,0,1-2.65,1.583,9.1,9.1,0,0,1-6.029,0,7.591,7.591,0,0,1-2.649-1.583,7.833,7.833,0,0,1-1.885-2.73A10.048,10.048,0,0,1,1312.624,545.165Zm3.938,0a9.019,9.019,0,0,0,.257,2.232,5.227,5.227,0,0,0,.784,1.749,3.727,3.727,0,0,0,1.345,1.159,4.178,4.178,0,0,0,1.934.423,3.791,3.791,0,0,0,3.248-1.465,6.768,6.768,0,0,0,1.088-4.1,8.9,8.9,0,0,0-.258-2.193,4.971,4.971,0,0,0-.791-1.741,3.808,3.808,0,0,0-1.346-1.135,4.224,4.224,0,0,0-1.941-.415,3.8,3.8,0,0,0-3.233,1.441A6.593,6.593,0,0,0,1316.562,545.165Z" transform="translate(-160.757 -66.349)"/>
      <path class="cls-4" d="M1332.687,553.634V536.649h3.937v2.719a13.76,13.76,0,0,1,1.094-1.094,7.69,7.69,0,0,1,1.375-.976,8.336,8.336,0,0,1,1.664-.7,6.654,6.654,0,0,1,1.945-.274,5.29,5.29,0,0,1,3.688,1.219,4.8,4.8,0,0,1,1.343,3.734v12.36H1343.8V542.4a3.149,3.149,0,0,0-.609-2.109,2.457,2.457,0,0,0-1.954-.7,5.006,5.006,0,0,0-2.414.594,10.776,10.776,0,0,0-2.195,1.609v11.844Z" transform="translate(-160.757 -66.349)"/>
    </g>
    <g>
      <path class="cls-2" d="M978.823,213.158A44.666,44.666,0,0,0,961.5,177.806a94.531,94.531,0,0,1,14.857-14.4l2.468-1.828,2.467,1.828c1.214.9,29.69,22.345,29.69,49.75S982.5,262,981.289,262.9l-2.467,1.828-2.468-1.828a94.446,94.446,0,0,1-14.85-14.393A44.671,44.671,0,0,0,978.823,213.158Z" transform="translate(-160.757 -66.349)"/>
      <path class="cls-2" d="M970.638,238.943H1003A93.348,93.348,0,0,1,981.289,262.9l-2.467,1.828-2.468-1.828A94.239,94.239,0,0,1,961.505,248.5,45.028,45.028,0,0,0,970.638,238.943Z" transform="translate(-160.757 -66.349)"/>
      <path class="cls-5" d="M978.823,213.158h32.156c0,9.518-3.442,18.315-7.976,25.786H970.638A44.541,44.541,0,0,0,978.823,213.158Z" transform="translate(-160.757 -66.349)"/>
      <path class="cls-6" d="M970.632,187.366h32.374c4.535,7.471,7.977,16.269,7.977,25.787h-32.16A44.526,44.526,0,0,0,970.632,187.366Z" transform="translate(-160.757 -66.349)"/>
      <path class="cls-7" d="M961.5,177.809A94.361,94.361,0,0,1,976.358,163.4l2.468-1.828,2.467,1.828A93.25,93.25,0,0,1,1003,187.362H970.63A44.969,44.969,0,0,0,961.5,177.809Z" transform="translate(-160.757 -66.349)"/>
      <path d="M888,213.158A46.114,46.114,0,0,0,933,259.2c.356.017.713.027,1.071.027h.027q.523,0,1.043-.026a46.114,46.114,0,0,0,39.439-24.134L977.51,238v37.953h2.627V238l20.545-20.541-1.857-1.858-18.688,18.685V212.4l16.4-16.4-1.857-1.858-14.542,14.539V177.328H977.51v20.511a46.149,46.149,0,0,0-42.373-30.722q-.519-.027-1.043-.027h-.027c-.358,0-.715.01-1.071.028A46.113,46.113,0,0,0,888,213.158Zm60.521-21.065H959a61.255,61.255,0,0,1,3.568,19.752H950.29A122.368,122.368,0,0,0,948.519,192.093Zm1.771,22.378h12.28A61.266,61.266,0,0,1,959,234.224H948.519A122.38,122.38,0,0,0,950.29,214.471Zm-2.275-25c-1.63-7.917-4.092-14.591-7.271-18.536,7.171,2.63,13.291,9.392,17.214,18.536Zm22.438,0h-9.681c-3.017-7.409-7.405-13.464-12.638-17.4A43.649,43.649,0,0,1,970.453,189.466Zm7.023,22.379H965.2a63.779,63.779,0,0,0-3.439-19.752h10.286A43.142,43.142,0,0,1,977.476,211.845ZM975.822,232.6q.94-2.011,1.688-4.122v5.809Zm-3.779,1.625H961.757a63.78,63.78,0,0,0,3.439-19.753h12.28A43.149,43.149,0,0,1,972.043,234.224ZM948.134,254.25c5.233-3.936,9.621-9.99,12.638-17.4h9.68A43.642,43.642,0,0,1,948.134,254.25Zm-7.389,1.136c3.178-3.944,5.64-10.618,7.27-18.536h9.943C954.035,246,947.915,252.756,940.745,255.386Zm-5.364-18.536h10.042c-2.336,11.083-6.182,18.183-10.042,19.516Zm0-22.379h12.282a119.129,119.129,0,0,1-1.729,19.753H935.381Zm0-22.378h10.553a119.126,119.126,0,0,1,1.729,19.752H935.381Zm0-22.143c3.86,1.333,7.706,8.433,10.042,19.516H935.381Zm-39.29,22.143h10.287a63.808,63.808,0,0,0-3.44,19.752h-12.28A43.142,43.142,0,0,1,896.091,192.093Zm9.473,19.752a61.255,61.255,0,0,1,3.569-19.752h10.482a122.369,122.369,0,0,0-1.77,19.752Zm12.281,2.626a122.382,122.382,0,0,0,1.77,19.753H909.133a61.266,61.266,0,0,1-3.569-19.753Zm2.155-42.4c-5.233,3.935-9.621,9.99-12.637,17.4h-9.681A43.65,43.65,0,0,1,920,172.067Zm7.39-1.137c-3.178,3.945-5.641,10.619-7.27,18.536h-9.943C914.1,180.322,920.22,173.56,927.39,170.93Zm5.364,18.536H922.711c2.337-11.083,6.183-18.183,10.043-19.516Zm0,22.379H920.471a119.226,119.226,0,0,1,1.73-19.752h10.553Zm0,22.379H922.2a119.229,119.229,0,0,1-1.73-19.753h12.283Zm-10.043,2.626h10.043v19.516C928.894,255.033,925.048,247.933,922.711,236.85Zm4.679,18.536c-7.17-2.63-13.29-9.391-17.213-18.536h9.943C921.749,244.768,924.212,251.442,927.39,255.386ZM897.682,236.85h9.681c3.017,7.41,7.4,13.464,12.637,17.4A43.645,43.645,0,0,1,897.682,236.85Zm-7.024-22.379h12.28a63.81,63.81,0,0,0,3.44,19.753H896.092A43.138,43.138,0,0,1,890.658,214.471Z" transform="translate(-160.757 -66.349)"/>
    </g>
    <g>
      <path class="cls-3" d="M565.468,586.685a9.792,9.792,0,1,1-13.847,13.848Z" transform="translate(-160.757 -66.349)"/>
      <g>
        <polygon class="cls-3" points="412.986 576.526 419.425 576.526 420.904 568.647 414.958 568.647 412.986 576.526"/>
        <polygon class="cls-3" points="422.104 576.526 428.572 576.526 429.559 568.647 423.582 568.647 422.104 576.526"/>
        <polygon class="cls-3" points="431.221 576.526 437.71 576.526 438.204 568.647 432.208 568.647 431.221 576.526"/>
        <polygon class="cls-3" points="440.349 576.526 446.848 576.526 446.848 568.647 440.842 568.647 440.349 576.526"/>
        <polygon class="cls-3" points="449.479 568.647 449.479 576.526 455.978 576.526 455.485 568.647 449.479 568.647"/>
        <polygon class="cls-3" points="458.124 568.647 458.617 576.526 465.106 576.526 464.12 568.647 458.124 568.647"/>
        <polygon class="cls-3" points="417.587 558.144 415.616 566.023 421.397 566.023 422.876 558.144 417.587 558.144"/>
        <polygon class="cls-3" points="424.076 566.023 429.887 566.023 430.873 558.144 425.554 558.144 424.076 566.023"/>
        <polygon class="cls-3" points="432.536 566.023 438.368 566.023 438.861 558.144 433.522 558.144 432.536 566.023"/>
        <polygon class="cls-3" points="441.006 566.023 446.848 566.023 446.848 558.144 441.499 558.144 441.006 566.023"/>
        <polygon class="cls-3" points="454.827 558.144 449.479 558.144 449.479 566.023 455.321 566.023 454.827 558.144"/>
        <polygon class="cls-3" points="462.805 558.144 457.466 558.144 457.959 566.023 463.791 566.023 462.805 558.144"/>
        <polygon class="cls-3" points="466.769 568.647 467.755 576.526 474.224 576.526 472.745 568.647 466.769 568.647"/>
        <polygon class="cls-3" points="481.369 568.647 475.424 568.647 476.903 576.526 483.34 576.526 481.369 568.647"/>
        <polygon class="cls-3" points="470.773 558.144 465.454 558.144 466.441 566.023 472.252 566.023 470.773 558.144"/>
        <polygon class="cls-3" points="478.74 558.144 473.452 558.144 474.931 566.023 480.712 566.023 478.74 558.144"/>
      </g>
      <path class="cls-7" d="M558.584,603.4a9.757,9.757,0,0,1-6.963-2.862l6.923-6.924.04.041Z" transform="translate(-160.757 -66.349)"/>
      <g>
        <polygon class="cls-7" points="412.986 576.526 419.425 576.526 420.904 568.647 414.958 568.647 412.986 576.526"/>
        <polygon class="cls-7" points="422.104 576.526 428.572 576.526 429.559 568.647 423.582 568.647 422.104 576.526"/>
        <polygon class="cls-7" points="417.587 558.144 415.616 566.023 421.397 566.023 422.876 558.144 417.587 558.144"/>
        <polygon class="cls-7" points="425.554 558.144 424.076 566.023 429.887 566.023 430.873 558.144 425.554 558.144"/>
      </g>
      <path class="cls-6" d="M558.7,593.764l6.77,6.77a9.755,9.755,0,0,1-6.833,2.858v-9.627Z" transform="translate(-160.757 -66.349)"/>
      <polygon class="cls-8" points="432.208 568.647 431.221 576.526 437.71 576.526 438.204 568.647 432.208 568.647"/>
      <polygon class="cls-8" points="440.842 568.647 440.349 576.526 446.848 576.526 446.848 568.647 440.842 568.647"/>
      <polygon class="cls-8" points="433.522 558.144 432.536 566.023 438.368 566.023 438.861 558.144 433.522 558.144"/>
      <polygon class="cls-8" points="441.499 558.144 441.006 566.023 446.848 566.023 446.848 558.144 441.499 558.144"/>
      <path class="cls-5" d="M558.7,593.764h9.626a9.753,9.753,0,0,1-2.856,6.771Z" transform="translate(-160.757 -66.349)"/>
      <polygon class="cls-5" points="449.479 576.526 455.978 576.526 455.485 568.647 449.479 568.647 449.479 576.526"/>
      <polygon class="cls-5" points="458.617 576.526 465.106 576.526 464.12 568.647 458.124 568.647 458.617 576.526"/>
      <polygon class="cls-5" points="449.479 566.023 455.321 566.023 454.827 558.144 449.479 558.144 449.479 566.023"/>
      <polygon class="cls-5" points="457.959 566.023 463.791 566.023 462.805 558.144 457.466 558.144 457.959 566.023"/>
      <path d="M560.185,581.106h-3.28l.319-6.6h2.642Zm0,25.009h-3.28l.319,6.606h2.642ZM539.434,592.29v2.64l6.605.32v-3.281Zm31.615-.32v3.28l6.6-.32v-2.64Zm-25.083-12.806-1.868,1.867,4.445,4.9,2.32-2.32Zm22.581,22.128-2.32,2.32,4.9,4.444,1.867-1.867Zm-24.45,4.9,1.869,1.867,4.895-4.444-2.32-2.32Zm22.128-22.581,2.321,2.32,4.444-4.9-1.868-1.868Zm76.857,64.583v39.165l-103.584,0v-2.627h35.259V648.191h-7.8l7.147-29.064h69.633l7.147,29.064Zm4.451-2.626-5.855-23.811H576.163l-5.854,23.811ZM632.567,684.73V656.079H616.792V684.73Zm7.888-36.539H577.384V684.73h36.782V653.453h21.028V684.73h5.261ZM608.9,666.322H582.645V653.453H608.9Zm-2.626-10.243h-21V663.7h21Zm-54.654-55.546a9.791,9.791,0,1,1,13.846-13.847Zm9.778-13.494a7.16,7.16,0,0,0-9.422,9.421ZM621.51,668.25a1.97,1.97,0,1,0,1.97,1.97A1.969,1.969,0,0,0,621.51,668.25Z" transform="translate(-160.757 -66.349)"/>
    </g>
    <g>
      <path d="M909.476,674.749h-.468a22.065,22.065,0,0,1-15.793-8.478,28.653,28.653,0,0,1-6.37-17.186,22.859,22.859,0,0,1,6.124-16.5c4.517-4.817,11.1-7.8,19.591-8.889-.964-6.177.817-12.682,5.093-18.473a39.405,39.405,0,0,1,18.171-13.24c14.162-5.158,33.1-3.234,44.3,17.311,12.655-6.638,24.98-4.637,34.763,5.668l-1.9,1.808c-9.038-9.521-20.472-11.245-32.19-4.855-.671.366-1.038.568-1.605.394l-.787-.658c-10.332-20.109-28.3-22.07-41.674-17.2-16.9,6.154-23.6,20.1-21.326,30.1l.33,1.45-1.479.148c-23.4,2.354-24.881,18.107-24.777,22.879.3,13.6,10.449,22.575,19.685,23.1.748.018,30.492-.138,46.105-.222l.014,2.627C945.2,674.584,913.712,674.749,909.476,674.749Zm111.505-8.664c0-.033,0-.067,0-.1l-7.246-1.011a15.2,15.2,0,0,0,.149-2.037c0-.069,0-.135-.007-.2,0,.033,0,.065,0,.1,0-.156-.009-.31-.016-.464l7.7,1.074a6.326,6.326,0,1,1-.583,2.642Zm2.6,0a3.737,3.737,0,1,0,3.737-3.738A3.741,3.741,0,0,0,1023.581,666.085Zm-12.857,6.088,3.148,3.56a10.532,10.532,0,1,1-4.908,12.662l-3.326,1.479a9.694,9.694,0,1,1-10.587-7.172l.649-4.969.016,0a15.081,15.081,0,0,0,2.02.275c.028,0,.056,0,.084,0,.15.009.3.01.454.015l0,.045-.607,4.653a9.66,9.66,0,0,1,6.979,4.743l3.775-1.679c-.022-.275-.033-.55-.033-.819a10.513,10.513,0,0,1,3.367-7.71l-2.8-3.167A15.2,15.2,0,0,0,1010.724,672.173Zm-7.371,20.145a7.1,7.1,0,1,0-7.1,7.1A7.1,7.1,0,0,0,1003.353,692.318Zm7.635-7.345a7.935,7.935,0,1,0,7.935-7.935A7.944,7.944,0,0,0,1010.988,684.973Zm-.8-31.936c-.1-.116-.207-.228-.311-.341l2.6-2.048a9.574,9.574,0,0,1-.722-3.661c0-.284.015-.577.042-.874l-3.233-.844a3.812,3.812,0,1,1,.747-2.49l3.065.8a9.7,9.7,0,1,1,1.416,9.343l-2.325,1.834c-.084-.129-.161-.262-.249-.389A15.007,15.007,0,0,0,1010.185,653.037Zm4.161-6.05a7.1,7.1,0,1,0,7.1-7.1A7.1,7.1,0,0,0,1014.346,646.987ZM1006.711,643a1.219,1.219,0,1,0-1.219,1.219A1.221,1.221,0,0,0,1006.711,643Zm-13.279,5.809c-.144.054-.283.118-.425.176l-.886-2.435a7.384,7.384,0,0,1-.9.058,8.024,8.024,0,0,1-8.014-8.015,7.908,7.908,0,0,1,.334-2.265l-5.27-2.48a3.781,3.781,0,0,1-2.789,1.217,3.818,3.818,0,1,1,3.817-3.817c0,.07,0,.14-.007.209l5.381,2.532a7.991,7.991,0,0,1,13.1,0l5.7-3.8a7,7,0,0,1-.115-1.257,7.192,7.192,0,1,1,1.063,3.747l-5.505,3.67a7.979,7.979,0,0,1-4.283,9.486l.858,2.359c-.151.033-.3.063-.452.1A14.7,14.7,0,0,0,993.432,648.808Zm12.52-19.87a4.577,4.577,0,1,0,4.576-4.577A4.582,4.582,0,0,0,1005.952,628.938ZM976.7,631.247a1.22,1.22,0,1,0-1.219,1.219A1.221,1.221,0,0,0,976.7,631.247Zm19.937,7.345a5.417,5.417,0,1,0-5.417,5.417A5.422,5.422,0,0,0,996.637,638.592Zm-7.562,35.921-4.734,6.782a6.267,6.267,0,0,1,1.043,3.468,6.333,6.333,0,0,1-12.415,1.766l-4.574-1.105a3.817,3.817,0,1,1,.3-2.6l4.095.989a6.311,6.311,0,0,1,2.355-4.03l-.9-6.9a10.416,10.416,0,0,1-4.011.794,10.534,10.534,0,1,1,10.45-11.833h3.031c-.006.09-.017.178-.022.267-.017.273-.028.546-.028.823a15.044,15.044,0,0,0,.083,1.509h-3.064a10.532,10.532,0,0,1-4,7.023l.929,7.126a6.29,6.29,0,0,1,4.858.843l4.741-6.791A15.227,15.227,0,0,0,989.075,674.513Zm-22.869,9.2a1.219,1.219,0,1,0-1.219,1.22A1.221,1.221,0,0,0,966.206,683.713Zm11.963-20.566a7.935,7.935,0,1,0-7.935,7.934A7.944,7.944,0,0,0,978.169,663.147Zm4.617,21.616a3.738,3.738,0,1,0-3.738,3.738A3.742,3.742,0,0,0,982.786,684.763Zm3.482-30.294c-.086.127-.163.26-.246.389l-9.527-6.725a4.651,4.651,0,1,1,1.544-3.455,4.568,4.568,0,0,1-.173,1.242l9.733,6.871c-.1.114-.211.225-.311.342A15.053,15.053,0,0,0,986.268,654.469Zm-10.828-9.791a2.059,2.059,0,1,0-2.058,2.059A2.06,2.06,0,0,0,975.44,644.678Z" transform="translate(-160.757 -66.349)"/>
      <path class="cls-4" d="M1013.879,662.734c0-.123-.007-.244-.012-.365,0-.093,0-.187-.009-.279-.007-.124-.016-.247-.025-.369-.016-.19-.035-.378-.057-.566,0-.032-.006-.064-.01-.1-.015-.119-.032-.237-.05-.354-.012-.086-.028-.17-.042-.255-.02-.116-.037-.233-.059-.349-.018-.094-.036-.189-.055-.283-.054-.257-.115-.51-.181-.762-.022-.081-.046-.162-.069-.243-.065-.229-.134-.457-.21-.682-.016-.047-.029-.094-.046-.14a15.047,15.047,0,0,0-1.194-2.611c-.125-.215-.265-.419-.4-.626-.084-.129-.161-.262-.249-.389a15.007,15.007,0,0,0-1.025-1.329c-.1-.116-.207-.228-.311-.341a14.993,14.993,0,0,0-14.388-4.5c-.151.033-.3.063-.452.1a14.7,14.7,0,0,0-1.6.507c-.144.054-.283.118-.425.176a15.121,15.121,0,0,0-5.408,3.807c-.1.114-.211.225-.311.342a15.053,15.053,0,0,0-1.02,1.336c-.086.127-.163.26-.246.389-.111.174-.227.345-.33.523a15.025,15.025,0,0,0-1.977,6.466c-.006.09-.017.178-.022.267-.017.273-.028.546-.028.823a15.8,15.8,0,0,0,.82,4.913,15.211,15.211,0,0,0,.75,1.792q.216.433.457.85a15.183,15.183,0,0,0,10.008,7.241l.016,0a15.081,15.081,0,0,0,2.02.275c.028,0,.056,0,.084,0,.15.009.3.01.454.015.167.006.333.017.5.017a15.13,15.13,0,0,0,14.29-10.2,15,15,0,0,0,.671-2.876,15.2,15.2,0,0,0,.149-2.037C1013.886,662.868,1013.881,662.8,1013.879,662.734Z" transform="translate(-160.757 -66.349)"/>
      <path class="cls-7" d="M997.736,678.012c.028,0,.056,0,.084,0,.316.019.635.032.956.032a15.075,15.075,0,0,0,13.084-7.555H985.692a15.07,15.07,0,0,0,12.044,7.52Z" transform="translate(-160.757 -66.349)"/>
      <path class="cls-6" d="M1013.886,662.937H983.665a15.045,15.045,0,0,0,.82,4.913,15.211,15.211,0,0,0,.75,1.792q.216.433.457.85h26.168a15.052,15.052,0,0,0,2.026-7.555Z" transform="translate(-160.757 -66.349)"/>
      <path class="cls-5" d="M1011.86,655.381H985.692a15.034,15.034,0,0,0-2.027,7.556h30.221A15.043,15.043,0,0,0,1011.86,655.381Z" transform="translate(-160.757 -66.349)"/>
    </g>
    <g>
      <path class="cls-9" d="M161.31,289.135V265.447h6.75a17.8,17.8,0,0,1,5.055.673,9.955,9.955,0,0,1,3.875,2.105,9.52,9.52,0,0,1,2.484,3.653,14.45,14.45,0,0,1,.883,5.335,14.647,14.647,0,0,1-.9,5.422,9.715,9.715,0,0,1-2.515,3.707,9.96,9.96,0,0,1-3.875,2.122,17.558,17.558,0,0,1-5.008.671Zm4-3.547h3.109q4.062,0,6-1.942t1.938-6.433q0-4.289-1.953-6.168t-6.047-1.879H165.31Z" transform="translate(-160.757 -66.349)"/>
      <path class="cls-9" d="M182.857,280.65a9.847,9.847,0,0,1,.766-4.1,8.156,8.156,0,0,1,1.953-2.742,7.217,7.217,0,0,1,2.625-1.524,9.04,9.04,0,0,1,2.75-.461,8.548,8.548,0,0,1,2.781.461,5.992,5.992,0,0,1,2.383,1.539,7.789,7.789,0,0,1,1.664,2.836,13.125,13.125,0,0,1,.625,4.352v.922h-11.61a4.5,4.5,0,0,0,1.391,3.379,4.751,4.751,0,0,0,3.156,1.058,6.118,6.118,0,0,0,2.727-.533,8.4,8.4,0,0,0,2.039-1.458l2.078,2.054a9.174,9.174,0,0,1-7.141,3.062,9.515,9.515,0,0,1-3.07-.5,7.036,7.036,0,0,1-2.609-1.57,7.74,7.74,0,0,1-1.821-2.75A10.61,10.61,0,0,1,182.857,280.65Zm4-1.656h7.937q-.359-3.9-3.875-3.906a4.719,4.719,0,0,0-1.39.2,3.39,3.39,0,0,0-1.219.677,3.941,3.941,0,0,0-.945,1.215A5.218,5.218,0,0,0,186.857,278.994Z" transform="translate(-160.757 -66.349)"/>
      <path class="cls-9" d="M201.857,289.135V272.15h3.937v2.782h.063a6.659,6.659,0,0,1,6.109-3.11h.266l-.125,3.61a4.469,4.469,0,0,0-.539-.047c-.245-.01-.42-.016-.524-.016a5.676,5.676,0,0,0-3.171.82,6.732,6.732,0,0,0-2.079,2.2v10.75Z" transform="translate(-160.757 -66.349)"/>
      <path class="cls-9" d="M213.294,280.65a9.847,9.847,0,0,1,.766-4.1,8.156,8.156,0,0,1,1.953-2.742,7.233,7.233,0,0,1,2.625-1.524,9.04,9.04,0,0,1,2.75-.461,8.548,8.548,0,0,1,2.781.461,5.985,5.985,0,0,1,2.383,1.539,7.775,7.775,0,0,1,1.664,2.836,13.1,13.1,0,0,1,.625,4.352v.922H217.232a4.5,4.5,0,0,0,1.391,3.379,4.748,4.748,0,0,0,3.156,1.058,6.11,6.11,0,0,0,2.726-.533,8.383,8.383,0,0,0,2.039-1.458l2.079,2.054a9.174,9.174,0,0,1-7.141,3.062,9.511,9.511,0,0,1-3.07-.5,7.032,7.032,0,0,1-2.61-1.57,7.752,7.752,0,0,1-1.82-2.75A10.59,10.59,0,0,1,213.294,280.65Zm4-1.656h7.938q-.36-3.9-3.875-3.906a4.726,4.726,0,0,0-1.391.2,3.394,3.394,0,0,0-1.218.677,3.943,3.943,0,0,0-.946,1.215A5.239,5.239,0,0,0,217.294,278.994Z" transform="translate(-160.757 -66.349)"/>
      <path class="cls-9" d="M230.513,291.55a3.409,3.409,0,0,1,.718-2.192,4.77,4.77,0,0,1,2-1.421,2.17,2.17,0,0,1-1.408-2.057,2.622,2.622,0,0,1,.717-1.782,7,7,0,0,1,1.736-1.4,5.728,5.728,0,0,1-.781-9.152,6.426,6.426,0,0,1,2.234-1.268,9.231,9.231,0,0,1,3-.456,8.239,8.239,0,0,1,3.063.516,7.5,7.5,0,0,1,2.171,1.281,8.218,8.218,0,0,1,1.992-1.109,7.857,7.857,0,0,1,2.211-.563v3.266a11.733,11.733,0,0,0-1.352.09,8.851,8.851,0,0,0-1.6.342,3.837,3.837,0,0,1,.61,2.191,6.115,6.115,0,0,1-.486,2.471,5.5,5.5,0,0,1-1.4,1.927,6.479,6.479,0,0,1-2.231,1.263,9.17,9.17,0,0,1-2.976.45,6.3,6.3,0,0,1-1.234-.1q-.5-.1-1.141-.27a2.731,2.731,0,0,0-.617.486.868.868,0,0,0-.242.612.756.756,0,0,0,.41.734,4.5,4.5,0,0,0,1.523.309l3.029.181a19.662,19.662,0,0,1,3.213.44,6.952,6.952,0,0,1,2.187.869,3.352,3.352,0,0,1,1.238,1.355,4.382,4.382,0,0,1,.384,1.91,4.164,4.164,0,0,1-.642,2.319,5.022,5.022,0,0,1-1.792,1.639,9.349,9.349,0,0,1-2.771.974,18.27,18.27,0,0,1-3.576.325,19.773,19.773,0,0,1-3.758-.307,8.534,8.534,0,0,1-2.531-.856,3.769,3.769,0,0,1-1.438-1.32A3.24,3.24,0,0,1,230.513,291.55Zm3.61-.7q0,1.083,1.3,1.511a13.255,13.255,0,0,0,3.891.428,9.259,9.259,0,0,0,3.434-.516q1.254-.516,1.254-1.412a1.372,1.372,0,0,0-.2-.751,1.532,1.532,0,0,0-.68-.53,4.284,4.284,0,0,0-1.338-.3q-.857-.078-2.128-.276l-2.938-.183a4.956,4.956,0,0,1-1.031-.109,2.738,2.738,0,0,0-1.195.947A2.151,2.151,0,0,0,234.123,290.852Zm1.187-12.9a2.8,2.8,0,0,0,.93,2.279,3.861,3.861,0,0,0,2.554.776,3.734,3.734,0,0,0,2.532-.776,2.857,2.857,0,0,0,.89-2.279,3.1,3.1,0,0,0-.875-2.377,4.377,4.377,0,0,0-5.117.015A3.035,3.035,0,0,0,235.31,277.955Z" transform="translate(-160.757 -66.349)"/>
      <path class="cls-9" d="M250.888,284.338V272.15h3.938v11.263q0,2.769,2.537,2.769a4.91,4.91,0,0,0,2.419-.611,11.62,11.62,0,0,0,2.2-1.61V272.15h3.937v16.985h-3.937V286.85a10.041,10.041,0,0,1-1.018.9,7.911,7.911,0,0,1-1.362.848,8.248,8.248,0,0,1-1.73.614,9.052,9.052,0,0,1-2.122.233,4.849,4.849,0,0,1-3.542-1.289A5.109,5.109,0,0,1,250.888,284.338Z" transform="translate(-160.757 -66.349)"/>
      <path class="cls-9" d="M270.544,289.135V265.447h3.938v23.688Z" transform="translate(-160.757 -66.349)"/>
      <path class="cls-9" d="M278,285.029a5.426,5.426,0,0,1,2.562-4.737A13.106,13.106,0,0,1,284,278.734a30.119,30.119,0,0,1,5.062-1.021v-.447a1.966,1.966,0,0,0-.673-1.662,3.484,3.484,0,0,0-2.114-.516,7.755,7.755,0,0,0-3.222.642,14.813,14.813,0,0,0-2.5,1.411l-1.915-2.211a12.675,12.675,0,0,1,3.452-2.185,11.557,11.557,0,0,1,4.734-.923,9.336,9.336,0,0,1,2.861.381,4.214,4.214,0,0,1,2.933,2.984,8.931,8.931,0,0,1,.32,2.5v7.281a23.921,23.921,0,0,0,.109,2.53,6.1,6.1,0,0,0,.375,1.638h-3.968q-.158-.551-.274-1a4.849,4.849,0,0,1-.117-1.186,7.471,7.471,0,0,1-2.834,1.892,10.221,10.221,0,0,1-3.445.542,6.146,6.146,0,0,1-1.9-.282,4.3,4.3,0,0,1-1.511-.831,3.833,3.833,0,0,1-1.005-1.371A4.555,4.555,0,0,1,278,285.029Zm3.843-.732a1.841,1.841,0,0,0,.642,1.527,2.709,2.709,0,0,0,1.738.514,6.654,6.654,0,0,0,2.725-.529,7.353,7.353,0,0,0,2.114-1.418V280.65a18.865,18.865,0,0,0-5.387,1.364Q281.842,282.895,281.841,284.3Z" transform="translate(-160.757 -66.349)"/>
      <path class="cls-9" d="M295.56,275.275V272.15H298.5v-5.921h3.937v5.921h4.391v3.125h-4.391v8.4a2.977,2.977,0,0,0,.516,1.963,2.583,2.583,0,0,0,1.984.592,6.36,6.36,0,0,0,.93-.071,5.122,5.122,0,0,0,.773-.163v3.14c-.115.02-.284.047-.508.078s-.468.057-.734.078-.542.036-.828.047-.56.016-.82.016a9.511,9.511,0,0,1-2.649-.305,3.753,3.753,0,0,1-1.6-.875,2.95,2.95,0,0,1-.79-1.453,8.86,8.86,0,0,1-.21-2.039v-9.407Z" transform="translate(-160.757 -66.349)"/>
      <path class="cls-9" d="M310.185,269.2v-3.359h4V269.2Zm.031,19.938V272.15h3.938v16.985Z" transform="translate(-160.757 -66.349)"/>
      <path class="cls-9" d="M317.794,280.666a10.4,10.4,0,0,1,.7-4.015,7.721,7.721,0,0,1,1.861-2.755,7.3,7.3,0,0,1,2.649-1.573,9.483,9.483,0,0,1,3.046-.5,9.368,9.368,0,0,1,3.023.5,7.389,7.389,0,0,1,2.649,1.573,7.859,7.859,0,0,1,1.885,2.755,10.224,10.224,0,0,1,.717,4.015,10.083,10.083,0,0,1-.717,4,7.859,7.859,0,0,1-1.885,2.729,7.561,7.561,0,0,1-2.649,1.583,9.083,9.083,0,0,1-6.03,0A7.561,7.561,0,0,1,320.4,287.4a7.846,7.846,0,0,1-1.885-2.729A10.065,10.065,0,0,1,317.794,280.666Zm3.938,0a9.017,9.017,0,0,0,.258,2.232,5.211,5.211,0,0,0,.783,1.748,3.723,3.723,0,0,0,1.346,1.16,4.17,4.17,0,0,0,1.933.423,3.788,3.788,0,0,0,3.248-1.465,6.761,6.761,0,0,0,1.088-4.1,8.9,8.9,0,0,0-.258-2.193,4.935,4.935,0,0,0-.791-1.741,3.79,3.79,0,0,0-1.346-1.135,4.221,4.221,0,0,0-1.941-.415,3.794,3.794,0,0,0-3.232,1.441A6.586,6.586,0,0,0,321.732,280.666Z" transform="translate(-160.757 -66.349)"/>
      <path class="cls-9" d="M337.857,289.135V272.15h3.937v2.719a13.93,13.93,0,0,1,1.094-1.094,7.69,7.69,0,0,1,1.375-.976,8.361,8.361,0,0,1,1.664-.7,6.661,6.661,0,0,1,1.946-.274,5.288,5.288,0,0,1,3.687,1.219,4.8,4.8,0,0,1,1.344,3.734v12.36h-3.938V277.9a3.149,3.149,0,0,0-.609-2.109,2.455,2.455,0,0,0-1.953-.7,5,5,0,0,0-2.414.594,10.753,10.753,0,0,0-2.2,1.609v11.844Z" transform="translate(-160.757 -66.349)"/>
    </g>
    <g>
      <path d="M651.076,421.869v-31.09h20.077v4.881H656.326v7.732H667.2v4.655H656.326v9.044h15.668v4.778Z" transform="translate(-160.757 -66.349)"/>
      <path d="M676.157,421.869V399.577h5.168v3.569a17.675,17.675,0,0,1,1.436-1.436,10.11,10.11,0,0,1,1.8-1.282,11.006,11.006,0,0,1,2.185-.922,8.737,8.737,0,0,1,2.553-.36,6.939,6.939,0,0,1,4.84,1.6,6.3,6.3,0,0,1,1.763,4.9v16.222h-5.168V407.124a4.13,4.13,0,0,0-.8-2.769,3.221,3.221,0,0,0-2.563-.922,6.562,6.562,0,0,0-3.168.779,14.13,14.13,0,0,0-2.882,2.112v15.545Z" transform="translate(-160.757 -66.349)"/>
      <path d="M700.192,410.733a12.936,12.936,0,0,1,1-5.383,10.713,10.713,0,0,1,2.564-3.6,9.451,9.451,0,0,1,3.445-2,11.828,11.828,0,0,1,3.609-.606,11.186,11.186,0,0,1,3.651.606,7.827,7.827,0,0,1,3.127,2.019,10.208,10.208,0,0,1,2.184,3.723,17.189,17.189,0,0,1,.821,5.711v1.21H705.36a5.912,5.912,0,0,0,1.826,4.436,6.242,6.242,0,0,0,4.142,1.388,8.013,8.013,0,0,0,3.579-.7,10.954,10.954,0,0,0,2.676-1.914l2.728,2.7a12.872,12.872,0,0,1-13.4,3.364,9.238,9.238,0,0,1-3.425-2.062,10.163,10.163,0,0,1-2.389-3.609A13.907,13.907,0,0,1,700.192,410.733Zm5.25-2.173H715.86q-.471-5.127-5.086-5.127a6.262,6.262,0,0,0-1.825.262,4.482,4.482,0,0,0-1.6.888,5.188,5.188,0,0,0-1.241,1.595A6.9,6.9,0,0,0,705.442,408.56Z" transform="translate(-160.757 -66.349)"/>
      <path d="M725.13,421.869V399.577H730.3v3.651h.082a8.741,8.741,0,0,1,8.018-4.082h.349l-.164,4.738a5.634,5.634,0,0,0-.708-.062q-.482-.019-.687-.02a7.436,7.436,0,0,0-4.163,1.077,8.822,8.822,0,0,0-2.727,2.881v14.109Z" transform="translate(-160.757 -66.349)"/>
      <path d="M739.28,425.038a4.473,4.473,0,0,1,.943-2.876,6.275,6.275,0,0,1,2.628-1.866A2.847,2.847,0,0,1,741,417.6a3.441,3.441,0,0,1,.942-2.34,9.176,9.176,0,0,1,2.278-1.836,7.521,7.521,0,0,1-1.026-12.012,8.449,8.449,0,0,1,2.933-1.664,12.08,12.08,0,0,1,3.937-.6,10.832,10.832,0,0,1,4.021.677,9.828,9.828,0,0,1,2.849,1.682,10.782,10.782,0,0,1,2.616-1.456,10.3,10.3,0,0,1,2.9-.738V403.6a15.855,15.855,0,0,0-1.775.117,11.657,11.657,0,0,0-2.1.45,5.046,5.046,0,0,1,.8,2.875,8.026,8.026,0,0,1-.637,3.244,7.19,7.19,0,0,1-1.84,2.529,8.494,8.494,0,0,1-2.928,1.658,12.027,12.027,0,0,1-3.906.591,8.308,8.308,0,0,1-1.62-.133q-.655-.134-1.5-.355a3.577,3.577,0,0,0-.81.637,1.147,1.147,0,0,0-.318.8,1,1,0,0,0,.538.965,5.959,5.959,0,0,0,2,.4l3.976.239a25.876,25.876,0,0,1,4.217.576,9.118,9.118,0,0,1,2.869,1.142,4.394,4.394,0,0,1,1.626,1.778,5.759,5.759,0,0,1,.5,2.506,5.468,5.468,0,0,1-.843,3.045,6.6,6.6,0,0,1-2.352,2.15,12.324,12.324,0,0,1-3.636,1.279,24.039,24.039,0,0,1-4.7.425,25.87,25.87,0,0,1-4.932-.4A11.19,11.19,0,0,1,741.772,429a4.956,4.956,0,0,1-1.887-1.731A4.259,4.259,0,0,1,739.28,425.038Zm4.738-.916q0,1.424,1.7,1.984a17.387,17.387,0,0,0,5.106.562,12.161,12.161,0,0,0,4.507-.677q1.645-.678,1.646-1.852a1.8,1.8,0,0,0-.26-.987,2,2,0,0,0-.893-.7,5.619,5.619,0,0,0-1.756-.393q-1.122-.105-2.792-.364l-3.856-.239a6.5,6.5,0,0,1-1.354-.144,3.587,3.587,0,0,0-1.568,1.244A2.815,2.815,0,0,0,744.018,424.122Zm1.558-16.927a3.674,3.674,0,0,0,1.22,2.993,5.084,5.084,0,0,0,3.353,1.017,4.91,4.91,0,0,0,3.323-1.017,3.753,3.753,0,0,0,1.169-2.993,4.064,4.064,0,0,0-1.149-3.12,5.745,5.745,0,0,0-6.716.021A3.978,3.978,0,0,0,745.576,407.2Z" transform="translate(-160.757 -66.349)"/>
      <path d="M763.336,429.84l1.169-4.2a12.883,12.883,0,0,0,1.456.306,14.356,14.356,0,0,0,2.338.164,3.613,3.613,0,0,0,2.174-.584,4.37,4.37,0,0,0,1.353-1.934l.615-1.638-8.551-22.381h5.373l5.742,16.217h.082l5.722-16.217h5.127l-9.5,24.733a18.229,18.229,0,0,1-1.22,2.614,7.534,7.534,0,0,1-1.589,1.959,6.473,6.473,0,0,1-2.143,1.221,8.829,8.829,0,0,1-2.861.419,17.509,17.509,0,0,1-3.23-.238Q764.176,430.046,763.336,429.84Z" transform="translate(-160.757 -66.349)"/>
      <path d="M620.428,454.078v-4.1h3.855V442.2h5.168v7.773h5.763v4.1h-5.763V465.1a3.91,3.91,0,0,0,.677,2.576,3.388,3.388,0,0,0,2.6.777,8.294,8.294,0,0,0,1.221-.092,6.692,6.692,0,0,0,1.015-.215v4.122q-.226.04-.667.1t-.964.1c-.348.027-.711.047-1.087.061s-.734.021-1.076.021a12.418,12.418,0,0,1-3.476-.4,4.912,4.912,0,0,1-2.1-1.148,3.874,3.874,0,0,1-1.036-1.906,11.57,11.57,0,0,1-.277-2.677V454.078Z" transform="translate(-160.757 -66.349)"/>
      <path d="M639.438,472.269V449.977h5.168v3.65h.082a8.741,8.741,0,0,1,8.019-4.081h.349l-.164,4.737a5.718,5.718,0,0,0-.708-.061q-.481-.021-.687-.021a7.442,7.442,0,0,0-4.163,1.077,8.825,8.825,0,0,0-2.728,2.881v14.11Z" transform="translate(-160.757 -66.349)"/>
      <path d="M654.594,466.88a7.125,7.125,0,0,1,3.363-6.217,17.12,17.12,0,0,1,4.512-2.044,39.337,39.337,0,0,1,6.644-1.342v-.586a2.576,2.576,0,0,0-.884-2.181,4.573,4.573,0,0,0-2.774-.678,10.168,10.168,0,0,0-4.228.843,19.5,19.5,0,0,0-3.284,1.851l-2.512-2.9a16.6,16.6,0,0,1,4.531-2.868,15.15,15.15,0,0,1,6.212-1.211,12.309,12.309,0,0,1,3.756.5,5.532,5.532,0,0,1,3.848,3.916,11.685,11.685,0,0,1,.421,3.28V466.8a31.3,31.3,0,0,0,.144,3.321,7.988,7.988,0,0,0,.492,2.15h-5.209q-.205-.723-.359-1.31a6.387,6.387,0,0,1-.154-1.557,9.812,9.812,0,0,1-3.72,2.484,13.431,13.431,0,0,1-4.521.711,8.063,8.063,0,0,1-2.5-.37,5.709,5.709,0,0,1-1.984-1.09,5.033,5.033,0,0,1-1.319-1.8A5.972,5.972,0,0,1,654.594,466.88Zm5.045-.961a2.413,2.413,0,0,0,.842,2,3.549,3.549,0,0,0,2.282.675,8.709,8.709,0,0,0,3.576-.7,9.617,9.617,0,0,0,2.774-1.861v-4.908a24.706,24.706,0,0,0-7.07,1.79Q659.639,464.077,659.639,465.919Z" transform="translate(-160.757 -66.349)"/>
      <path d="M679.777,472.269V449.977h5.168v3.568a17.836,17.836,0,0,1,1.436-1.436,10.133,10.133,0,0,1,1.805-1.282,11.031,11.031,0,0,1,2.184-.922,8.737,8.737,0,0,1,2.553-.359,6.935,6.935,0,0,1,4.84,1.6,6.3,6.3,0,0,1,1.763,4.9v16.222h-5.168V457.523a4.13,4.13,0,0,0-.8-2.768,3.225,3.225,0,0,0-2.564-.923,6.577,6.577,0,0,0-3.168.779,14.137,14.137,0,0,0-2.882,2.113v15.545Z" transform="translate(-160.757 -66.349)"/>
      <path d="M703.382,469.229l2.83-3.137a11.673,11.673,0,0,0,3.056,1.869,9.869,9.869,0,0,0,3.958.78,7.407,7.407,0,0,0,3.271-.591,2.058,2.058,0,0,0,1.179-2,1.7,1.7,0,0,0-.4-1.15,3.446,3.446,0,0,0-1.082-.808,8.041,8.041,0,0,0-1.571-.574l-1.9-.5-2.921-.761a10.01,10.01,0,0,1-2.715-1.134,6.2,6.2,0,0,1-2-1.961,5.717,5.717,0,0,1-.779-3.135,5.823,5.823,0,0,1,.615-2.687,6.254,6.254,0,0,1,1.7-2.068,8.12,8.12,0,0,1,2.605-1.349,11.043,11.043,0,0,1,3.363-.483,14.144,14.144,0,0,1,5.321.866,14.5,14.5,0,0,1,3.842,2.308l-2.471,3.35a11.868,11.868,0,0,0-1.417-.934,13.823,13.823,0,0,0-1.621-.781,10.8,10.8,0,0,0-1.684-.523,7.486,7.486,0,0,0-1.6-.185,5.084,5.084,0,0,0-2.953.626,1.9,1.9,0,0,0-.82,1.561,1.628,1.628,0,0,0,.386,1.1,3.445,3.445,0,0,0,1.011.775,6.834,6.834,0,0,0,1.512.549l1.935.481q1.429.356,2.972.739a9.472,9.472,0,0,1,2.75,1.14,6.336,6.336,0,0,1,2.006,2.014,5.974,5.974,0,0,1,.8,3.251,5.873,5.873,0,0,1-2.744,5.18,9.65,9.65,0,0,1-2.991,1.255,15.045,15.045,0,0,1-3.6.418,16.065,16.065,0,0,1-5.722-.984A11.286,11.286,0,0,1,703.382,469.229Z" transform="translate(-160.757 -66.349)"/>
      <path d="M727.212,446.1v-4.41h5.25v4.41Zm.041,26.168V449.977h5.168v22.292Z" transform="translate(-160.757 -66.349)"/>
      <path d="M736.358,454.078v-4.1h3.856V442.2h5.168v7.773h5.763v4.1h-5.763V465.1a3.9,3.9,0,0,0,.677,2.576,3.388,3.388,0,0,0,2.6.777,8.281,8.281,0,0,0,1.22-.092,6.665,6.665,0,0,0,1.015-.215v4.122q-.225.04-.666.1t-.964.1q-.524.041-1.087.061t-1.077.021a12.428,12.428,0,0,1-3.476-.4,4.918,4.918,0,0,1-2.1-1.148,3.872,3.872,0,0,1-1.035-1.906,11.57,11.57,0,0,1-.277-2.677V454.078Z" transform="translate(-160.757 -66.349)"/>
      <path d="M755.554,446.1v-4.41h5.25v4.41Zm.041,26.168V449.977h5.168v22.292Z" transform="translate(-160.757 -66.349)"/>
      <path d="M765.541,461.153a13.667,13.667,0,0,1,.92-5.269,10.15,10.15,0,0,1,2.444-3.616,9.591,9.591,0,0,1,3.476-2.065,12.46,12.46,0,0,1,4-.657,12.312,12.312,0,0,1,3.968.657,9.692,9.692,0,0,1,3.476,2.065,10.287,10.287,0,0,1,2.474,3.616,13.378,13.378,0,0,1,.941,5.269,13.2,13.2,0,0,1-.941,5.251,10.28,10.28,0,0,1-2.474,3.582,9.915,9.915,0,0,1-3.476,2.078,11.919,11.919,0,0,1-7.914,0,9.919,9.919,0,0,1-3.477-2.078,10.3,10.3,0,0,1-2.475-3.582A13.219,13.219,0,0,1,765.541,461.153Zm5.168,0a11.835,11.835,0,0,0,.339,2.931,6.821,6.821,0,0,0,1.027,2.293,4.873,4.873,0,0,0,1.767,1.521,5.451,5.451,0,0,0,2.537.556,4.972,4.972,0,0,0,4.264-1.923,8.874,8.874,0,0,0,1.427-5.378,11.7,11.7,0,0,0-.339-2.88,6.5,6.5,0,0,0-1.037-2.282,4.97,4.97,0,0,0-1.767-1.491,5.553,5.553,0,0,0-2.548-.545,4.978,4.978,0,0,0-4.242,1.893A8.643,8.643,0,0,0,770.709,461.153Z" transform="translate(-160.757 -66.349)"/>
      <path d="M791.873,472.269V449.977h5.168v3.568a17.674,17.674,0,0,1,1.436-1.436,10.125,10.125,0,0,1,1.8-1.282,11.065,11.065,0,0,1,2.185-.922,8.732,8.732,0,0,1,2.553-.359,6.932,6.932,0,0,1,4.839,1.6,6.294,6.294,0,0,1,1.764,4.9v16.222h-5.168V457.523a4.125,4.125,0,0,0-.8-2.768,3.221,3.221,0,0,0-2.563-.923,6.578,6.578,0,0,0-3.169.779,14.132,14.132,0,0,0-2.881,2.113v15.545Z" transform="translate(-160.757 -66.349)"/>
    </g>
    <path d="M978.033,434.332A200.911,200.911,0,0,0,777.093,233.7c-110.683,0-200.73,90.047-200.73,200.73s90.047,200.729,200.73,200.729a201.183,201.183,0,0,0,200.94-200.831Zm-34.685,95.819H908.172c11.08-27.776,17.171-58.962,17.673-91.464H968.92A190.627,190.627,0,0,1,943.348,530.151Zm-17.5-100.175c-.5-32.5-6.593-63.687-17.673-91.464h35.055a190.624,190.624,0,0,1,25.69,91.464ZM937.856,329.8H904.48a203.911,203.911,0,0,0-21.068-36.627c-11.633-15.971-24.95-28.9-39.419-38.581A192.923,192.923,0,0,1,937.856,329.8ZM876.4,298.312a193.748,193.748,0,0,1,18.52,31.489H844.932c-9.138-38.137-23.113-67.879-39.721-83.555C832.063,253.413,856.71,271.279,876.4,298.312Zm22.383,40.2c11.508,27.549,17.859,58.79,18.379,91.464H856.418c-.277-33.063-3.692-64.179-9.514-91.464ZM917.16,438.687c-.52,32.674-6.871,63.915-18.379,91.464H846.9c5.822-27.285,9.237-58.4,9.514-91.464ZM894.918,538.862a193.8,193.8,0,0,1-18.52,31.49c-19.688,27.032-44.335,44.9-71.187,52.065,16.608-15.676,30.583-45.417,39.721-83.555ZM843.31,614.533c14.734-9.731,28.286-22.821,40.1-39.043a203.954,203.954,0,0,0,21.068-36.628h33.511a192.919,192.919,0,0,1-94.429,75.577C843.478,614.47,843.394,614.5,843.31,614.533Zm-258.1-180.1c0-105.8,86.077-191.881,191.881-191.881.394,0,.786.012,1.179.015v.125c17.238,0,34.677,19.9,47.845,54.6a279.637,279.637,0,0,1,9.953,32.51l2.012,8.711c6.03,27.709,9.358,58.941,9.632,91.464v8.711c-.274,32.523-3.6,63.756-9.632,91.464l-2.012,8.711a279.714,279.714,0,0,1-9.953,32.511c-13.168,34.7-30.607,54.6-47.845,54.6v.329c-.393,0-.785.015-1.179.015C671.289,626.315,585.212,540.238,585.212,434.434Z" transform="translate(-160.757 -66.349)"/>
    <g>
      <path class="cls-9" d="M621.371,206.479h0c-.173-.176-.985-.987-5.15-5.152-.981-.956-2.457-.513-3.415-.089a6.989,6.989,0,0,1-1.292-.982,2.578,2.578,0,0,1-.617-1.174,3.854,3.854,0,0,0,.31-2.425v0a1.916,1.916,0,0,0-.491-.836c-.111-.111-5.013-5.011-5.128-5.128-1.234-1.233-3.09-.431-4.47.382l-4.7-4.7v0l-4.747-4.746c.814-1.379,1.616-3.236.383-4.468l-5.134-5.134a1.906,1.906,0,0,0-.762-.466h0a3.776,3.776,0,0,0-2.494.29,2.578,2.578,0,0,1-1.174-.617,7.022,7.022,0,0,1-.982-1.292c.423-.959.864-2.436-.1-3.427,0,0-4.561-4.56-5.086-5.086l-.053-.053c-1.269-1.267-3.395-.155-4.195.264l-.211.136A169.875,169.875,0,0,0,559.3,173.333l-.743.743a170.394,170.394,0,0,0-11.563,12.553l-.137.211c-.419.8-1.532,2.93-.24,4.225l5.11,5.109c.98.98,2.469.532,3.434.106a7.041,7.041,0,0,1,1.29.98,2.607,2.607,0,0,1,.62,1.174,3.767,3.767,0,0,0-.29,2.493v0a1.9,1.9,0,0,0,.468.765l0,0c.252.258,1.205,1.211,5.147,5.151.549.534,1.594,1.031,4.412-.436l4.783,4.785h0l4.739,4.741c-1.465,2.819-.967,3.865-.422,4.423l5.136,5.138h0a1.936,1.936,0,0,0,.829.49h0a3.848,3.848,0,0,0,2.424-.311,2.633,2.633,0,0,1,1.177.619,7.032,7.032,0,0,1,.979,1.29c-.427.965-.873,2.454.107,3.434l.048.048,5.086,5.088h0c1.27,1.268,3.4.153,4.2-.266l.2-.129a159.188,159.188,0,0,0,12.975-11.9,158.639,158.639,0,0,0,11.9-12.978l.131-.2C621.528,209.873,622.639,207.745,621.371,206.479Z" transform="translate(-160.757 -66.349)"/>
      <path class="cls-7" d="M546.855,186.84c-.419.8-1.532,2.93-.24,4.225l5.11,5.109c.98.98,2.469.532,3.434.106a7.041,7.041,0,0,1,1.29.98,2.607,2.607,0,0,1,.62,1.174,3.767,3.767,0,0,0-.29,2.493l29.373-29.373a3.776,3.776,0,0,0-2.494.29,2.578,2.578,0,0,1-1.174-.617,7.022,7.022,0,0,1-.982-1.292c.423-.959.864-2.436-.1-3.427,0,0-4.561-4.56-5.086-5.086l-.053-.053c-1.269-1.267-3.395-.155-4.195.264l-.211.136A169.875,169.875,0,0,0,559.3,173.333l-.743.743a170.394,170.394,0,0,0-11.563,12.553Z" transform="translate(-160.757 -66.349)"/>
      <path class="cls-6" d="M557.25,201.691c.252.258,1.205,1.211,5.147,5.151.549.534,1.594,1.031,4.412-.436l4.783,4.785,24.822-24.822-4.747-4.746c.814-1.379,1.616-3.236.383-4.468l-5.134-5.134a1.906,1.906,0,0,0-.762-.466L556.78,200.929a1.9,1.9,0,0,0,.468.765Z" transform="translate(-160.757 -66.349)"/>
      <path class="cls-5" d="M575.912,220.356l5.136,5.138h0a1.936,1.936,0,0,0,.829.49l29.329-29.329a1.916,1.916,0,0,0-.491-.836c-.111-.111-5.013-5.011-5.128-5.128-1.234-1.233-3.09-.431-4.47.382l-4.7-4.7L571.6,211.192l4.739,4.741C574.869,218.752,575.367,219.8,575.912,220.356Z" transform="translate(-160.757 -66.349)"/>
      <path class="cls-10" d="M640.847,271.186c-.288-1.156-1.5-1.863-2.672-2.325l0-3.562v-1.107c0-2.878-4.543-3.581-23.148-3.581s-23.148.7-23.148,3.581c0,1.35,0,1.864.009,2.088l0,2.576c-1.189.465-2.412,1.182-2.686,2.355a1.647,1.647,0,0,0-.067.472v6.423a1.638,1.638,0,0,0,.067.47c.352,1.494,2.239,2.248,3.649,2.688l.232.05a254.566,254.566,0,0,0,43.9,0l.234-.051c1.4-.437,3.272-1.187,3.637-2.666a1.678,1.678,0,0,0,.072-.492v-6.45A1.6,1.6,0,0,0,640.847,271.186Zm-2.577,6.7a5.121,5.121,0,0,1-1.735.808,253.241,253.241,0,0,1-43.016,0,5.134,5.134,0,0,1-1.74-.808v-6a4.916,4.916,0,0,1,1.579-.753H617.92v-2.649H594.532v-2.329c0-.277,0-1.164-.007-1.649,2.126-1.254,14.939-1.254,20.5-1.254s18.373,0,20.5,1.255c0,.5,0,1.44,0,1.643l-.094,1.373h.1v3.239l.926.292a5.287,5.287,0,0,1,1.818.834ZM573.012,220.23l-5.826,3.383a15.846,15.846,0,0,1-3.153,4.461,21.528,21.528,0,0,1-4.991,3.623,210.653,210.653,0,0,1-15.6,17.41c-1.845,1.846-3.711,3.64-5.545,5.334-10.849,10.014-22.384,19.765-24.683,21.7a5.5,5.5,0,0,1-1.625,2.652,12.975,12.975,0,0,1-2.071,1.647,5.531,5.531,0,0,1-4.238,1.024,6.425,6.425,0,0,1-4.006-4,5.54,5.54,0,0,1,1.026-4.239,12.951,12.951,0,0,1,1.646-2.07,5.5,5.5,0,0,1,2.652-1.624c1.935-2.3,11.687-13.836,21.7-24.684,1.691-1.832,3.484-3.7,5.327-5.539a211.33,211.33,0,0,1,17.416-15.6,21.531,21.531,0,0,1,3.624-4.991,15.845,15.845,0,0,1,4.459-3.153l3.384-5.827,1.937,1.938-3.49,6.011-.448.165a12.713,12.713,0,0,0-3.969,2.739,18.94,18.94,0,0,0-3.254,4.552l-.136.282-.249.193a205,205,0,0,0-17.4,15.568c-1.818,1.818-3.586,3.656-5.254,5.463-11.087,12.012-21.852,24.868-21.96,25l-.473.566-.629-.09a2.953,2.953,0,0,0-1.364.912,10.344,10.344,0,0,0-1.3,1.65c-1.346,2.054-.36,2.971-.025,3.2l.219.153.167.24c.219.315,1.137,1.3,3.19-.045a10.4,10.4,0,0,0,1.65-1.3,2.958,2.958,0,0,0,.912-1.365l-.09-.63.566-.472c.128-.107,12.987-10.874,25-21.959,1.809-1.67,3.649-3.439,5.47-5.26a204.684,204.684,0,0,0,15.561-17.4l.193-.249.284-.136a19.026,19.026,0,0,0,4.55-3.253,12.712,12.712,0,0,0,2.738-3.97l.166-.448,6.011-3.491Zm48.1-9.556-.131.2a158.639,158.639,0,0,1-11.9,12.978,159.188,159.188,0,0,1-12.975,11.9l-.2.129c-.8.419-2.93,1.534-4.2.266h0l-5.086-5.088-.048-.048c-.98-.98-.534-2.469-.107-3.434a7.032,7.032,0,0,0-.979-1.29,2.633,2.633,0,0,0-1.177-.619c-.817.34-2.289.789-3.257-.179h0l-5.136-5.138c-.545-.558-1.043-1.6.422-4.423l-9.525-9.527c-2.818,1.467-3.863.97-4.412.436-3.942-3.94-4.9-4.893-5.147-5.151l0,0c-.971-.968-.52-2.443-.179-3.26a2.607,2.607,0,0,0-.62-1.174,7.041,7.041,0,0,0-1.29-.98c-.965.426-2.454.874-3.434-.106l-5.11-5.109c-1.093-1.1-.464-2.786.009-3.766l2.055,2.055c0,.006,0,.017-.006.023L552.3,193,567.3,178l1.872,1.873-13.622,13.621.217.1a10.5,10.5,0,0,1,2.551,1.792,5.228,5.228,0,0,1,1.306,2.369l7.156-7.156,1.872,1.873-8.442,8.441L564,204.7a6.156,6.156,0,0,0,1.248-.473l11.8-11.8,1.873,1.873-10.235,10.236,9.525,9.525,10.236-10.236,1.873,1.873-11.8,11.794a6.3,6.3,0,0,0-.476,1.254c.676.675,2.562,2.563,3.781,3.782l8.441-8.442,1.873,1.872-7.156,7.157a5.189,5.189,0,0,1,2.37,1.305,10.458,10.458,0,0,1,1.79,2.551l.105.218,13.622-13.623,1.873,1.873-15,15c1.247,1.246,3.025,3.025,3.625,3.626a4.94,4.94,0,0,0,1.2-.473,164.8,164.8,0,0,0,12.641-11.614,164.406,164.406,0,0,0,11.612-12.641,4.979,4.979,0,0,0,.472-1.2l-.014-.014,1.873-1.873c.119.119.187.188.223.225h0C622.639,207.745,621.528,209.873,621.11,210.674Z" transform="translate(-160.757 -66.349)"/>
    </g>
    <g>
      <line class="cls-11" y1="237.651" x2="364.642" y2="237.651"/>
      <path d="M525.117,309.64a5.64,5.64,0,1,0-5.64-5.64A5.641,5.641,0,0,0,525.117,309.64Z" transform="translate(-160.757 -66.349)"/>
    </g>
    <g>
      <line class="cls-11" y1="499.124" x2="364.642" y2="499.124"/>
      <path d="M525.117,571.113a5.64,5.64,0,1,0-5.64-5.64A5.641,5.641,0,0,0,525.117,571.113Z" transform="translate(-160.757 -66.349)"/>
    </g>
    <g>
      <line class="cls-11" x1="871.543" y1="237.651" x2="1236.185" y2="237.651"/>
      <circle cx="871.825" cy="237.651" r="5.64"/>
    </g>
    <g>
      <line class="cls-11" x1="871.543" y1="499.124" x2="1236.185" y2="499.124"/>
      <circle cx="871.825" cy="499.124" r="5.64"/>
    </g>
  </g>
</svg>
